<svg width="141" height="141" viewBox="0 0 141 141" fill="none" xmlns="http://www.w3.org/2000/svg">
<g clip-path="url(#clip0_1942_10732)">
<path d="M70.5 12C102.75 12 129 38.25 129 70.5C129 102.75 102.75 129 70.5 129C38.25 129 12 102.75 12 70.5C12 38.25 38.25 12 70.5 12ZM70.5 0C31.56 0 0 31.56 0 70.5C0 109.44 31.56 141 70.5 141C109.44 141 141 109.44 141 70.5C141 31.56 109.44 0 70.5 0Z" fill="#A8B4E5"/>
<path fill-rule="evenodd" clip-rule="evenodd" d="M111.258 122.743L18.2578 29.7426L26.7431 21.2573L119.743 114.257L111.258 122.743Z" fill="#A8B4E5"/>
</g>
<defs>
<clipPath id="clip0_1942_10732">
<rect width="141" height="141" fill="white"/>
</clipPath>
</defs>
</svg>
