<svg width="24" height="24" viewBox="0 0 24 24" fill="none" xmlns="http://www.w3.org/2000/svg">
<path d="M21 6L12 15L7.0001 10.0001" stroke="#6E747C" stroke-width="1.5"/>
<path fill-rule="evenodd" clip-rule="evenodd" d="M19.6667 10.4386V18.3333C19.6667 19.0697 19.0697 19.6667 18.3333 19.6667H5.66667C4.93029 19.6667 4.33333 19.0697 4.33333 18.3333V6.66667C4.33333 5.93029 4.93029 5.33333 5.66667 5.33333H18.3333C18.4506 5.33333 18.5644 5.34848 18.6728 5.37693L19.6834 4.36651C19.2874 4.13359 18.826 4 18.3333 4H5.66667C4.19391 4 3 5.19391 3 6.66667V18.3333C3 19.8061 4.19391 21 5.66667 21H18.3333C19.8061 21 21 19.8061 21 18.3333V9.10555L19.6667 10.4386Z" fill="#6E747C"/>
</svg>
