<svg width="12" height="12" viewBox="0 0 12 12" fill="none" xmlns="http://www.w3.org/2000/svg">
<rect x="1.32031" y="2.27979" width="9.48" height="7.56" rx="0.6" stroke="#191B1C" stroke-width="0.75"/>
<path d="M6 3.6001V4.2001" stroke="#191B1C" stroke-width="0.6" stroke-linecap="round" stroke-linejoin="round"/>
<path d="M6 7.7998V8.3998" stroke="#191B1C" stroke-width="0.6" stroke-linecap="round" stroke-linejoin="round"/>
<path d="M7.0498 5.1002C7.0498 4.98201 7.03041 4.86497 6.99271 4.75578C6.95502 4.64659 6.89978 4.54737 6.83013 4.4638C6.76049 4.38023 6.67781 4.31393 6.58682 4.2687C6.49582 4.22347 6.3983 4.2002 6.2998 4.2002H5.6248C5.42589 4.2002 5.23513 4.29502 5.09447 4.4638C4.95382 4.63258 4.8748 4.8615 4.8748 5.1002C4.8748 5.33889 4.95382 5.56781 5.09447 5.73659C5.23513 5.90537 5.42589 6.0002 5.6248 6.0002H6.4498C6.64872 6.0002 6.83948 6.09502 6.98013 6.2638C7.12079 6.43258 7.1998 6.6615 7.1998 6.9002C7.1998 7.13889 7.12079 7.36781 6.98013 7.53659C6.83948 7.70537 6.64872 7.8002 6.4498 7.8002H5.5498C5.35089 7.8002 5.16013 7.70537 5.01947 7.53659C4.87882 7.36781 4.7998 7.13889 4.7998 6.9002" stroke="#191B1C" stroke-width="0.6" stroke-linecap="round" stroke-linejoin="round"/>
<path d="M9.8998 11.4002C11.0596 11.4002 11.9998 10.46 11.9998 9.3002C11.9998 8.1404 11.0596 7.2002 9.8998 7.2002C8.74001 7.2002 7.7998 8.1404 7.7998 9.3002C7.7998 10.46 8.74001 11.4002 9.8998 11.4002Z" fill="#191B1C"/>
<path d="M11.0098 8.7002L9.76477 9.86394L9.01777 9.16569" stroke="white" stroke-width="0.6" stroke-linecap="round" stroke-linejoin="round"/>
</svg>
