<svg width="12" height="12" viewBox="0 0 12 12" fill="none" xmlns="http://www.w3.org/2000/svg">
<rect x="1.32031" y="2.27979" width="9.48" height="7.56" rx="0.6" stroke="#191B1C" stroke-width="0.75"/>
<path d="M8.04004 3.6001V4.2001" stroke="#191B1C" stroke-width="0.6" stroke-linecap="round" stroke-linejoin="round"/>
<path d="M8.04004 7.7998V8.3998" stroke="#191B1C" stroke-width="0.6" stroke-linecap="round" stroke-linejoin="round"/>
<path d="M9.08984 5.1002C9.08984 4.98201 9.07044 4.86497 9.03275 4.75578C8.99506 4.64659 8.93982 4.54737 8.87017 4.4638C8.80053 4.38023 8.71785 4.31393 8.62686 4.2687C8.53586 4.22347 8.43834 4.2002 8.33984 4.2002H7.66484C7.46593 4.2002 7.27517 4.29502 7.13451 4.4638C6.99386 4.63258 6.91484 4.8615 6.91484 5.1002C6.91484 5.33889 6.99386 5.56781 7.13451 5.73659C7.27517 5.90537 7.46593 6.0002 7.66484 6.0002H8.48984C8.68876 6.0002 8.87952 6.09502 9.02017 6.2638C9.16083 6.43258 9.23984 6.6615 9.23984 6.9002C9.23984 7.13889 9.16083 7.36781 9.02017 7.53659C8.87952 7.70537 8.68876 7.8002 8.48984 7.8002H7.58984C7.39093 7.8002 7.20017 7.70537 7.05951 7.53659C6.91886 7.36781 6.83984 7.13889 6.83984 6.9002" stroke="#191B1C" stroke-width="0.6" stroke-linecap="round" stroke-linejoin="round"/>
<path d="M2.7002 4.2002H5.4002" stroke="#191B1C" stroke-width="0.75" stroke-linecap="round"/>
<path d="M2.7002 6H5.4002" stroke="#191B1C" stroke-width="0.75" stroke-linecap="round"/>
<path d="M2.7002 7.7998H5.4002" stroke="#191B1C" stroke-width="0.75" stroke-linecap="round"/>
</svg>
