<?xml version="1.0" encoding="utf-8"?>
<!-- Generator: Adobe Illustrator 25.4.8, SVG Export Plug-In . SVG Version: 6.00 Build 0)  -->
<svg version="1.1" id="레이어_1" xmlns="http://www.w3.org/2000/svg" xmlns:xlink="http://www.w3.org/1999/xlink" x="0px"
	 y="0px" viewBox="0 0 24 24" style="enable-background:new 0 0 24 24;" xml:space="preserve">
<style type="text/css">
	.st0{fill:none;stroke:#0043E1;stroke-width:1.5;stroke-linecap:round;stroke-linejoin:round;}
	.st1{fill:none;stroke:#0043E1;stroke-width:1.25;}
	.st2{fill:none;stroke:#0043E1;stroke-width:1.25;stroke-linejoin:round;}
</style>
<path class="st0" d="M20,16.1v3.8c0,0.6-0.7,1.1-1.6,1.1H5.6C4.7,21,4,20.5,4,19.9v-3.8C4,15.5,4.7,15,5.6,15h2.2c0,0,0,0,0,0
	c0,0.7,0.8,1.3,1.8,1.3h4.7c1,0,1.8-0.6,1.8-1.3c0,0,0,0,0,0h2.4C19.3,15,20,15.5,20,16.1z"/>
<path class="st0" d="M4,16l0.8-6H7"/>
<path class="st0" d="M20,16l-0.9-6H17"/>
<circle class="st1" cx="8.7" cy="4.6" r="2.1"/>
<rect x="9.6" y="7.9" transform="matrix(0.9566 -0.2914 0.2914 0.9566 -2.4301 4.2235)" class="st2" width="6.6" height="4.8"/>
</svg>
