<svg width="21" height="20" viewBox="0 0 21 20" fill="none" xmlns="http://www.w3.org/2000/svg">
<path d="M1.75 16.8735H19.25" stroke="#191B1C" stroke-width="1.25" stroke-linecap="round" stroke-linejoin="round"/>
<path d="M11.7495 16.8735V3.12353C11.7495 2.95777 11.6837 2.7988 11.5665 2.68159C11.4492 2.56438 11.2903 2.49854 11.1245 2.49854H3.62451C3.45875 2.49854 3.29978 2.56438 3.18257 2.68159C3.06536 2.7988 2.99951 2.95777 2.99951 3.12353V16.8735" stroke="#191B1C" stroke-width="1.25" stroke-linecap="round" stroke-linejoin="round"/>
<path d="M17.9995 16.8735V8.12354C17.9995 7.95777 17.9337 7.7988 17.8165 7.68159C17.6992 7.56438 17.5403 7.49854 17.3745 7.49854H11.7495" stroke="#191B1C" stroke-width="1.25" stroke-linecap="round" stroke-linejoin="round"/>
<path d="M5.49951 5.62354H7.99951" stroke="#191B1C" stroke-width="1.25" stroke-linecap="round" stroke-linejoin="round"/>
<path d="M6.74951 10.6235H9.24951" stroke="#191B1C" stroke-width="1.25" stroke-linecap="round" stroke-linejoin="round"/>
<path d="M5.49951 13.7485H7.99951" stroke="#191B1C" stroke-width="1.25" stroke-linecap="round" stroke-linejoin="round"/>
<path d="M14.2495 13.7485H15.4995" stroke="#191B1C" stroke-width="1.25" stroke-linecap="round" stroke-linejoin="round"/>
<path d="M14.2495 10.6235H15.4995" stroke="#191B1C" stroke-width="1.25" stroke-linecap="round" stroke-linejoin="round"/>
</svg>
