<?xml version="1.0" encoding="utf-8"?>
<!-- Generator: Adobe Illustrator 25.4.8, SVG Export Plug-In . SVG Version: 6.00 Build 0)  -->
<svg version="1.1" id="레이어_1" xmlns="http://www.w3.org/2000/svg" xmlns:xlink="http://www.w3.org/1999/xlink" x="0px"
	 y="0px" viewBox="0 0 21 22" style="enable-background:new 0 0 21 22;" xml:space="preserve">
<style type="text/css">
	.st0{fill:none;stroke:#333333;stroke-width:2;stroke-linecap:round;stroke-linejoin:round;}
	.st1{fill:#333333;}
	.st2{fill:#FF0000;stroke:#FFFFFF;stroke-width:2;}
</style>
<path class="st0" d="M10.4,2.4c5,0,9,4,9,9c0,5-4,9-9,9c-5,0-9-4-9-9C1.4,6.5,5.4,2.4,10.4,2.4z"/>
<path class="st1" d="M10.1,17.4c0.5,0,0.9-0.4,0.9-0.9c0-0.5-0.4-0.9-0.9-0.9c-0.5,0-0.9,0.4-0.9,0.9C9.1,17,9.6,17.4,10.1,17.4z"/>
<path class="st0" d="M7.4,9c0-1.4,1.2-2.6,2.6-2.6s2.6,1.2,2.6,2.6c0,1-0.7,1.7-1.4,2.3c-1.2,1-1.2,1.3-1.2,2.1V14"/>
<circle class="st2" cx="43.4" cy="6.4" r="5"/>
</svg>
