<?xml version="1.0" encoding="utf-8"?>
<!-- Generator: Adobe Illustrator 25.4.8, SVG Export Plug-In . SVG Version: 6.00 Build 0)  -->
<svg version="1.1" id="레이어_1" xmlns="http://www.w3.org/2000/svg" xmlns:xlink="http://www.w3.org/1999/xlink" x="0px"
	 y="0px" viewBox="0 0 21 22" style="enable-background:new 0 0 21 22;" xml:space="preserve">
<style type="text/css">
	.st0{fill:#333333;}
	.st1{fill:none;stroke:#333333;stroke-width:2;stroke-linecap:round;stroke-linejoin:round;}
	.st2{fill:#FF0000;}
</style>
<path class="st0" d="M10.1,17.4c0.5,0,0.9-0.4,0.9-0.9c0-0.5-0.4-0.9-0.9-0.9c-0.5,0-0.9,0.4-0.9,0.9C9.1,17,9.6,17.4,10.1,17.4z"/>
<path class="st1" d="M7.4,9c0-1.4,1.2-2.6,2.6-2.6s2.6,1.2,2.6,2.6c0,1-0.7,1.7-1.4,2.3c-1.2,1-1.2,1.3-1.2,2.1V14"/>
<path class="st0" d="M17.8,8.4c0.4,0.9,0.6,2,0.6,3.1c0,4.4-3.6,8-8,8s-8-3.6-8-8s3.6-8,8-8c1.1,0,2.1,0.2,3.1,0.6
	c0.1-0.7,0.4-1.3,0.8-1.8c-1.2-0.5-2.5-0.8-3.9-0.8c-5.5,0-10,4.5-10,10s4.5,10,10,10s10-4.5,10-10c0-1.4-0.3-2.7-0.8-3.9
	C19.1,8,18.5,8.3,17.8,8.4z"/>
<circle class="st2" cx="17.2" cy="4.7" r="3.2"/>
</svg>
