<svg width="22" height="20" viewBox="0 0 22 20" fill="none" xmlns="http://www.w3.org/2000/svg">
<path d="M8 13V14.6C8 15.7046 8.89543 16.6 10 16.6H15.3125L18.5625 19V16.6H19C20.1046 16.6 21 15.7046 21 14.6V9C21 7.89543 20.1046 7 19 7H17" stroke="#0043E1" stroke-width="1.5" stroke-linejoin="round"/>
<path d="M15 1H3C1.89543 1 1 1.89543 1 3V11C1 12.1046 1.89543 13 3 13H4V16L8 13H15C16.1046 13 17 12.1046 17 11V3C17 1.89543 16.1046 1 15 1Z" stroke="#0043E1" stroke-width="1.5" stroke-linejoin="round"/>
<path d="M4.7998 5H13.3998" stroke="#0043E1" stroke-width="1.5" stroke-linecap="round" stroke-linejoin="round"/>
<path d="M4.7998 9H13.3998" stroke="#0043E1" stroke-width="1.5" stroke-linecap="round" stroke-linejoin="round"/>
</svg>
