<?xml version="1.0" encoding="utf-8"?>
<!-- Generator: Adobe Illustrator 25.4.8, SVG Export Plug-In . SVG Version: 6.00 Build 0)  -->
<svg version="1.1" id="레이어_1" xmlns="http://www.w3.org/2000/svg" xmlns:xlink="http://www.w3.org/1999/xlink" x="0px"
	 y="0px" viewBox="0 0 30 30" style="enable-background:new 0 0 30 30;" xml:space="preserve">
<style type="text/css">
	.st0{fill:#43D68C;}
	.st1{opacity:0.8;}
	.st2{clip-path:url(#SVGID_00000018933564744555596730000009920945770698662313_);fill:#2EBF73;}
	.st3{fill:#FFFFFF;}
</style>
<g>
	<path class="st0" d="M23.7,29H6.3C3.4,29,1,26.6,1,23.7V6.3C1,3.4,3.4,1,6.3,1h17.4C26.6,1,29,3.4,29,6.3v17.4
		C29,26.6,26.6,29,23.7,29z"/>
</g>
<g class="st1">
	<defs>
		<ellipse id="SVGID_1_" class="st1" cx="14.5" cy="22.5" rx="19.5" ry="13.5"/>
	</defs>
	<clipPath id="SVGID_00000064352310461758811730000003668315857332512647_">
		<use xlink:href="#SVGID_1_"  style="overflow:visible;"/>
	</clipPath>
	<path style="clip-path:url(#SVGID_00000064352310461758811730000003668315857332512647_);fill:#2EBF73;" d="M23.7,29H6.3
		C3.4,29,1,26.6,1,23.7V6.3C1,3.4,3.4,1,6.3,1h17.4C26.6,1,29,3.4,29,6.3v17.4C29,26.6,26.6,29,23.7,29z"/>
</g>
<g>
	<path class="st3" d="M12.9,21.1l-6.5-7.6C6,13,6,12.2,6.6,11.7l0,0c0.5-0.4,1.3-0.4,1.8,0.1l6.5,7.6c0.4,0.5,0.4,1.3-0.1,1.8l0,0
		C14.1,21.7,13.3,21.7,12.9,21.1z"/>
	<path class="st3" d="M15.3,20.8l9.4-11.1c0.4-0.5,0.4-1.3-0.1-1.8l0,0c-0.5-0.4-1.3-0.4-1.8,0.1l-9.4,11.1
		c-0.4,0.5-0.4,1.3,0.1,1.8l0,0C14.1,21.3,14.9,21.3,15.3,20.8z"/>
</g>
</svg>
