<?xml version="1.0" encoding="utf-8"?>
<!-- Generator: Adobe Illustrator 25.4.8, SVG Export Plug-In . SVG Version: 6.00 Build 0)  -->
<svg version="1.1" id="레이어_1" xmlns="http://www.w3.org/2000/svg" xmlns:xlink="http://www.w3.org/1999/xlink" x="0px"
	 y="0px" viewBox="0 0 26 26" style="enable-background:new 0 0 26 26;" xml:space="preserve">
<style type="text/css">
	.st0{fill:#004CFF;}
	.st1{fill:#FFFFFF;}
</style>
<g>
	<g>
		<path class="st0" d="M13,25c6.6,0,12-5.4,12-12c0-6.6-5.4-12-12-12C6.4,1,1,6.4,1,13C1,19.6,6.4,25,13,25z"/>
		<path class="st1" d="M13,26C5.8,26,0,20.2,0,13S5.8,0,13,0s13,5.8,13,13S20.2,26,13,26z M13,2C6.9,2,2,6.9,2,13s4.9,11,11,11
			s11-4.9,11-11S19.1,2,13,2z"/>
	</g>
	<g>
		<path class="st1" d="M12.2,16.9L12.2,16.9c-0.4,0-0.8-0.2-1.1-0.4L9,14.3c-0.6-0.6-0.6-1.5,0-2.1c0.6-0.6,1.5-0.6,2.1,0l1.1,1.1
			L16,9.5c0.6-0.6,1.5-0.6,2.1,0s0.6,1.5,0,2.1l-4.8,4.8C13,16.7,12.6,16.9,12.2,16.9z"/>
	</g>
</g>
</svg>
