<svg width="306" height="83" viewBox="0 0 306 83" fill="none" xmlns="http://www.w3.org/2000/svg">
<path d="M74.1845 62.8564C74.3134 62.8575 74.4402 62.8246 74.5521 62.7611C74.664 62.6977 74.7569 62.6059 74.8214 62.4952C74.886 62.3845 74.9198 62.2588 74.9194 62.1309C74.9191 62.003 74.8846 61.8775 74.8195 61.7671L56.4254 30.6635L49.9858 19.7704L38.584 0.481903C38.5006 0.345001 38.3741 0.239197 38.224 0.180866C38.074 0.122536 37.9087 0.114933 37.7539 0.159233C37.599 0.203533 37.4632 0.297256 37.3674 0.425915C37.2716 0.554573 37.2212 0.710991 37.224 0.870941V40.8835C37.2206 41.0141 37.1826 41.1415 37.1138 41.2528C37.0449 41.3641 36.9478 41.4555 36.832 41.5177L17.9011 52.0839L1.04739 61.5026C0.906898 61.5812 0.796638 61.7039 0.733917 61.8514C0.671196 61.999 0.659531 62.163 0.700752 62.3178C0.741982 62.4726 0.833778 62.6094 0.961754 62.7069C1.08973 62.8044 1.24664 62.8569 1.40795 62.8564H74.1845Z" fill="url(#paint0_linear_5_2884)"/>
<path fill-rule="evenodd" clip-rule="evenodd" d="M37.2117 40.9971C37.1953 41.0879 37.1619 41.1752 37.113 41.2544C37.0442 41.3658 36.947 41.4571 36.8313 41.5193L17.9003 52.0856L1.04663 61.5042C0.906134 61.5829 0.795873 61.7056 0.733151 61.8531C0.670428 62.0006 0.658765 62.1646 0.699994 62.3194C0.741223 62.4742 0.833015 62.611 0.960989 62.7085C1.08896 62.806 1.24588 62.8586 1.40719 62.8581H74.1837C74.3126 62.8591 74.4394 62.8262 74.5513 62.7628C74.6632 62.6993 74.7561 62.6076 74.8207 62.4968C74.8331 62.4755 74.8444 62.4537 74.8545 62.4314C68.1068 58.6269 62.5763 55.4556 57.0457 52.2844C50.9718 48.8015 44.8979 45.3187 37.2117 40.9971Z" fill="url(#paint1_linear_5_2884)"/>
<path d="M0.770082 19.5591C0.64123 19.5581 0.514394 19.591 0.402513 19.6544C0.290631 19.7179 0.1977 19.8096 0.133169 19.9203C0.068639 20.031 0.0348147 20.1567 0.0351589 20.2846C0.035503 20.4125 0.0699818 20.5381 0.135107 20.6484L18.5292 51.752L24.9688 62.6451L36.3706 81.9336C36.4539 82.0705 36.5805 82.1763 36.7305 82.2347C36.8806 82.293 37.0458 82.3006 37.2007 82.2563C37.3556 82.212 37.4914 82.1183 37.5872 81.9896C37.683 81.861 37.7334 81.7045 37.7306 81.5446V41.532C37.734 41.4014 37.772 41.2741 37.8408 41.1627C37.9096 41.0514 38.0068 40.96 38.1225 40.8979L57.0535 30.3316L73.9072 20.913C74.0477 20.8343 74.158 20.7116 74.2207 20.5641C74.2834 20.4166 74.2951 20.2526 74.2538 20.0978C74.2126 19.943 74.1208 19.8061 73.9928 19.7087C73.8649 19.6112 73.7079 19.5586 73.5466 19.5591H0.770082Z" fill="url(#paint2_linear_5_2884)"/>
<path fill-rule="evenodd" clip-rule="evenodd" d="M0.158401 19.8794L37.7978 41.2423C37.7562 41.3329 37.7332 41.4311 37.7306 41.5313V81.5439C37.7334 81.7038 37.683 81.8602 37.5872 81.9889C37.4914 82.1175 37.3556 82.2113 37.2007 82.2556C37.0458 82.2999 36.8806 82.2923 36.7305 82.2339C36.5805 82.1756 36.4539 82.0698 36.3706 81.9329L24.9688 62.6444L18.5292 51.7513L0.135107 20.6477C0.0699818 20.5373 0.035503 20.4118 0.0351589 20.2839C0.0348147 20.156 0.068639 20.0303 0.133169 19.9196C0.141151 19.9059 0.149568 19.8925 0.158401 19.8794Z" fill="#030303"/>
<path d="M111.777 20.4973C109.862 19.3965 107.695 18.8489 105.503 18.9121C103.326 18.8504 101.173 19.3981 99.2735 20.4973C97.41 21.5268 95.8835 23.1027 94.8862 25.0264C93.89 27.1247 93.3937 29.4384 93.4385 31.7747V41.6934C93.3884 44.0448 93.8848 46.3744 94.8862 48.487C95.8959 50.4012 97.4193 51.9738 99.2735 53.0161C101.181 54.0949 103.329 54.6413 105.503 54.6013C107.7 54.6152 109.863 54.0376 111.777 52.9255C113.564 51.8673 115.013 50.2931 115.945 48.3964C116.982 46.2952 117.495 43.9602 117.437 41.6028V31.7747C117.489 29.4324 116.977 27.1134 115.945 25.0264C115.026 23.1203 113.574 21.5426 111.777 20.4973ZM112.567 41.8746C112.587 43.3145 112.287 44.7399 111.689 46.0413C111.147 47.2034 110.275 48.1671 109.189 48.8041C108.055 49.4305 106.789 49.7582 105.503 49.7582C104.218 49.7582 102.952 49.4305 101.818 48.8041C100.755 48.1513 99.9006 47.1907 99.3613 46.0413C98.7518 44.7443 98.4509 43.3158 98.4838 41.8746V31.6388C98.4368 30.1963 98.7384 28.7643 99.3613 27.4721C99.9006 26.3227 100.755 25.3621 101.818 24.7094C102.943 24.0546 104.212 23.7105 105.503 23.7105C106.795 23.7105 108.064 24.0546 109.189 24.7094C110.275 25.3463 111.147 26.3101 111.689 27.4721C112.299 28.7691 112.6 30.1976 112.567 31.6388V41.8746Z" fill="black"/>
<path d="M152.887 37.9344C151.836 37.147 150.617 36.6342 149.333 36.4398C150.59 36.2181 151.778 35.6902 152.799 34.8999C153.697 34.2066 154.407 33.2863 154.861 32.2278C155.301 31.1533 155.525 29.9976 155.519 28.831C155.576 27.0714 155.199 25.3258 154.422 23.7584C153.699 22.3189 152.545 21.1591 151.132 20.4522C149.403 19.622 147.51 19.2189 145.604 19.2746H132.179V54.4656H145.999C147.824 54.5112 149.633 54.0912 151.263 53.2427C152.733 52.5147 153.956 51.3468 154.773 49.8912C155.599 48.3543 156.023 46.6215 156.001 44.8639C155.996 43.519 155.712 42.1909 155.168 40.9689C154.658 39.7806 153.875 38.7388 152.887 37.9344ZM144.726 23.849C146.292 23.7515 147.842 24.2155 149.114 25.1624C149.637 25.658 150.044 26.2708 150.302 26.9538C150.561 27.6368 150.665 28.372 150.605 29.1027C150.655 29.7966 150.564 30.4936 150.337 31.1488C150.111 31.8041 149.754 32.4031 149.289 32.9072C148.159 33.8318 146.734 34.2845 145.297 34.1753H136.829V23.849H144.726ZM151.263 44.4563C151.298 45.2079 151.166 45.9577 150.877 46.6484C150.588 47.3392 150.15 47.9526 149.596 48.4419C148.036 49.5301 146.165 50.0409 144.288 49.8912H137.005V38.6138H145.472C146.608 38.5886 147.735 38.8367 148.762 39.3384C149.583 39.7539 150.247 40.4389 150.649 41.2859C151.071 42.2533 151.281 43.305 151.263 44.3657V44.4563Z" fill="black"/>
<path d="M172.936 19.2739H170.655V54.2384H175.393V53.8761C175.393 53.9722 175.43 54.0643 175.496 54.1323C175.562 54.2002 175.651 54.2384 175.744 54.2384H187.765H188.028L191.714 50.3887C191.778 50.3349 191.825 50.2615 191.847 50.1788C191.868 50.0962 191.864 50.0085 191.835 49.9282C191.806 49.848 191.753 49.7793 191.684 49.7319C191.615 49.6844 191.533 49.6607 191.45 49.664H175.744C175.654 49.6739 175.57 49.7152 175.506 49.7812C175.442 49.8471 175.402 49.9337 175.393 50.0264V39.3377H189.871V34.8087H175.393V23.9389H192.415V19.4098H172.936V19.2739Z" fill="black"/>
<path d="M227.163 45.4071L211.149 19.229H206.85V54.2388H211.544V28.4683L227.514 54.2388H231.901V19.229H227.163V45.4071Z" fill="black"/>
<path d="M252.65 49.5738V39.3381H267.128V34.809H252.65V23.9392H265.329L269.146 19.9537C269.193 19.8894 269.223 19.8134 269.232 19.7333C269.242 19.6533 269.23 19.5721 269.199 19.4983C269.167 19.4244 269.117 19.3605 269.054 19.3132C268.991 19.2658 268.917 19.2368 268.839 19.229H247.78V54.1935H269.716V49.6644L252.65 49.5738Z" fill="black"/>
<path d="M305.649 23.9842V19.2739H288.977H286.564H284.195V54.4196H288.977V39.6548H303.06V34.9445H288.977V23.9842H305.649Z" fill="black"/>
<path d="M99.9394 68.3478C99.4309 68.1123 98.8705 67.9897 98.3022 67.9897C97.734 67.9897 97.1735 68.1123 96.665 68.3478C96.2074 68.5904 95.8397 68.9563 95.6105 69.397C95.3466 69.8985 95.2174 70.4519 95.2339 71.0099V73.3347C95.2168 73.8954 95.346 74.4516 95.6105 74.9558C95.84 75.3943 96.2078 75.7574 96.665 75.9968C97.1719 76.2374 97.733 76.3628 98.3022 76.3628C98.8714 76.3628 99.4325 76.2374 99.9394 75.9968C100.401 75.7602 100.773 75.3965 101.003 74.9558C101.262 74.4502 101.388 73.8945 101.37 73.3347V71.0099C101.388 70.4528 101.262 69.8999 101.003 69.397C100.773 68.954 100.402 68.5876 99.9394 68.3478ZM100.316 73.3758C100.325 73.7513 100.243 74.1239 100.077 74.4662C99.9209 74.7615 99.6782 75.0097 99.3767 75.1821C99.0445 75.339 98.6771 75.4207 98.3045 75.4207C97.9318 75.4207 97.5644 75.339 97.2322 75.1821C96.9307 75.0097 96.688 74.7615 96.5322 74.4662C96.3641 74.1244 96.2822 73.7514 96.2929 73.3758V70.9688C96.2841 70.5933 96.3658 70.2207 96.5322 69.8784C96.6872 69.5858 96.9304 69.3414 97.2322 69.1748C97.5618 69.0102 97.9302 68.9241 98.3045 68.9241C98.6787 68.9241 99.0471 69.0102 99.3767 69.1748C99.6785 69.3414 99.9217 69.5858 100.077 69.8784C100.241 70.2214 100.323 70.5935 100.316 70.9688V73.3758Z" fill="black"/>
<path d="M118.194 68.3675C117.773 68.1553 117.299 68.0503 116.821 68.063H113.436V76.2634H114.49V73.0787H116.821C117.3 73.0888 117.774 72.9809 118.194 72.766C118.591 72.5665 118.912 72.2593 119.116 71.8855C119.343 71.4809 119.454 71.029 119.439 70.5729C119.452 70.1145 119.341 69.6604 119.116 69.2522C118.91 68.8788 118.589 68.5708 118.194 68.3675ZM118.194 71.4C118.076 71.6322 117.888 71.8279 117.654 71.9637C117.411 72.092 117.135 72.1573 116.856 72.153H114.481V68.9847H116.856C117.137 68.9749 117.415 69.0437 117.654 69.1822C117.889 69.3138 118.077 69.507 118.194 69.7377C118.319 69.9962 118.381 70.2772 118.376 70.5606C118.389 70.8491 118.33 71.1365 118.203 71.4H118.194Z" fill="black"/>
<path d="M131.776 68.064H131.182V76.2644H131.776H132.223H136.787V75.3386H132.223V72.6559H136.127V71.7342H132.223V68.9856H136.787V68.064H132.223H131.776Z" fill="black"/>
<path d="M154.145 74.5527L149.723 68.064H148.735V76.2644H149.777V69.8538L154.19 76.2644H155.182V68.064H154.145V74.5527Z" fill="black"/>
<path d="M199.889 72.4135C199.625 72.2216 199.309 72.1007 198.976 72.0637C199.299 72.0125 199.603 71.8881 199.862 71.7017C200.09 71.533 200.272 71.3174 200.394 71.0721C200.508 70.8224 200.565 70.5534 200.562 70.2821C200.578 69.8689 200.482 69.4586 200.283 69.0889C200.087 68.7635 199.791 68.4999 199.432 68.3318C198.988 68.1376 198.5 68.0459 198.01 68.0643H194.572V76.2647H198.116C198.586 76.2757 199.051 76.1811 199.472 75.9891C199.843 75.8117 200.15 75.5388 200.358 75.2032C200.566 74.8415 200.672 74.4364 200.664 74.0264C200.666 73.7151 200.598 73.4068 200.465 73.1212C200.338 72.8447 200.141 72.6016 199.889 72.4135ZM197.811 68.9696C198.266 68.9356 198.719 69.0522 199.091 69.2987C199.358 69.5676 199.509 69.9183 199.516 70.2841C199.523 70.6498 199.384 71.005 199.127 71.282C198.802 71.5218 198.392 71.6393 197.979 71.6111H195.617V68.9696H197.811ZM199.636 73.977C199.648 74.169 199.611 74.3609 199.529 74.5373C199.446 74.7138 199.321 74.8699 199.162 74.9933C198.728 75.2715 198.203 75.3996 197.678 75.3554H195.617V72.504H197.979C198.304 72.4922 198.627 72.5515 198.923 72.6768C199.156 72.787 199.344 72.9646 199.459 73.1829C199.579 73.4254 199.639 73.6896 199.636 73.9564V73.977Z" fill="black"/>
<path d="M213.31 68.064H212.721V76.2644H213.31H213.762H218.331V75.3386H213.762V72.6559H217.661V71.7342H213.762V68.9856H218.331V68.064H213.762H213.31Z" fill="black"/>
<path d="M235.684 74.5527L231.262 68.064H230.279V76.2644H231.307V69.8538L235.715 76.2644H236.726V68.064H235.684V74.5527Z" fill="black"/>
<path d="M249.681 68.064H249.087V76.2644H249.681H250.141H254.696V75.3386H250.141V72.6559H254.041V71.7342H250.141V68.9856H254.696V68.064H250.141H249.681Z" fill="black"/>
<path d="M267.241 68.064H266.647V76.2644H267.688V72.7258H271.481V71.8H267.688V68.9856H272.141V68.064H267.688H267.241Z" fill="black"/>
<path d="M284.985 68.064H283.93V76.2644H284.985V68.064Z" fill="black"/>
<path d="M302.891 68.064H296.732V68.9856H299.276V76.2644H300.33V68.9856H302.891V68.064Z" fill="black"/>
<path d="M186.906 75.9756H162.851V76.2883H186.906V75.9756Z" fill="black"/>
<defs>
<linearGradient id="paint0_linear_5_2884" x1="37.798" y1="1.36539" x2="78.4076" y2="58.5682" gradientUnits="userSpaceOnUse">
<stop stop-color="#B3B3B5"/>
<stop offset="0.442708" stop-color="#7C7D7E"/>
<stop offset="0.567708" stop-color="#898A8B"/>
<stop offset="0.854167" stop-color="#BABABB"/>
<stop offset="1" stop-color="#DCDCDC"/>
<stop offset="1" stop-color="#C4C5C5"/>
</linearGradient>
<linearGradient id="paint1_linear_5_2884" x1="19.0296" y1="59.6091" x2="63.4759" y2="59.8987" gradientUnits="userSpaceOnUse">
<stop stop-color="#A1A1A2"/>
<stop offset="1" stop-color="#CDCDCE"/>
</linearGradient>
<linearGradient id="paint2_linear_5_2884" x1="58.3293" y1="20.7012" x2="19.4839" y2="53.5461" gradientUnits="userSpaceOnUse">
<stop stop-color="#555555"/>
<stop offset="1" stop-color="#5D5C5C"/>
</linearGradient>
</defs>
</svg>
