<svg width="21" height="20" viewBox="0 0 21 20" fill="none" xmlns="http://www.w3.org/2000/svg">
<path d="M11.1248 6.24993V9.63908L14.0599 11.3337C14.131 11.3747 14.1933 11.4293 14.2433 11.4945C14.2932 11.5596 14.3299 11.6339 14.3511 11.7132C14.3724 11.7924 14.3778 11.8751 14.3671 11.9565C14.3564 12.0379 14.3297 12.1163 14.2887 12.1874C14.2477 12.2585 14.193 12.3208 14.1279 12.3708C14.0628 12.4207 13.9885 12.4574 13.9092 12.4786C13.8299 12.4999 13.7472 12.5053 13.6659 12.4946C13.5845 12.4839 13.506 12.4572 13.4349 12.4162L10.1873 10.5412C10.1823 10.5383 10.1779 10.5349 10.173 10.5319C10.1624 10.5254 10.1518 10.5188 10.1417 10.5117C10.1336 10.506 10.1259 10.5 10.1181 10.4941C10.1102 10.4879 10.1022 10.4817 10.0946 10.4752C10.0859 10.4678 10.0776 10.4601 10.0694 10.4523C10.0632 10.4464 10.0571 10.4405 10.0511 10.4344C10.0427 10.4258 10.0348 10.4169 10.027 10.4079C10.0216 10.4016 10.0163 10.3954 10.0111 10.3889C10.0039 10.3798 9.99709 10.3706 9.99045 10.3613C9.98518 10.3539 9.98003 10.3464 9.97511 10.3388C9.96947 10.33 9.96413 10.3211 9.95894 10.3122C9.95379 10.3032 9.94879 10.2942 9.94406 10.285C9.93991 10.2768 9.93598 10.2686 9.9322 10.2603C9.92743 10.2499 9.92289 10.2395 9.91866 10.2288C9.91561 10.221 9.91278 10.2131 9.91004 10.2052C9.90615 10.1941 9.90248 10.1829 9.89924 10.1715C9.89688 10.1631 9.89482 10.1547 9.89276 10.1463C9.89016 10.1354 9.88764 10.1245 9.88562 10.1134C9.88375 10.1034 9.88238 10.0933 9.88101 10.0831C9.87971 10.0736 9.87841 10.0641 9.87757 10.0544C9.87647 10.0419 9.87605 10.0293 9.87567 10.0167C9.87551 10.0111 9.87482 10.0056 9.87482 9.99993V6.24993C9.87482 6.08417 9.94067 5.9252 10.0579 5.80799C10.1751 5.69078 10.3341 5.62493 10.4998 5.62493C10.6656 5.62493 10.8246 5.69078 10.9418 5.80799C11.059 5.9252 11.1248 6.08417 11.1248 6.24993ZM15.8031 4.69662C14.3955 3.29217 12.4882 2.50342 10.4998 2.50342C8.51137 2.50342 6.60413 3.29217 5.19652 4.69662L4.54928 5.34384L3.42875 4.22329C3.34134 4.13588 3.22998 4.07636 3.10874 4.05224C2.9875 4.02812 2.86184 4.04049 2.74763 4.0878C2.63343 4.1351 2.53582 4.21521 2.46714 4.31799C2.39847 4.42077 2.36181 4.54161 2.36182 4.66523V7.79023C2.36181 7.8723 2.37798 7.95358 2.40939 8.02941C2.4408 8.10524 2.48683 8.17414 2.54487 8.23217C2.60291 8.29021 2.67181 8.33625 2.74764 8.36766C2.82347 8.39906 2.90474 8.41523 2.98682 8.41523H6.11182C6.23543 8.41523 6.35627 8.37858 6.45905 8.3099C6.56183 8.24123 6.64194 8.14361 6.68925 8.02941C6.73655 7.91521 6.74893 7.78954 6.72481 7.6683C6.70069 7.54706 6.64116 7.4357 6.55375 7.34829L5.43318 6.22772L6.08042 5.58049C6.9545 4.7064 8.06815 4.11114 9.28054 3.86998C10.4929 3.62882 11.7496 3.75259 12.8916 4.22564C14.0337 4.69869 15.0098 5.49977 15.6966 6.52758C16.3833 7.55539 16.7499 8.76377 16.7499 9.99991C16.7499 11.236 16.3833 12.4444 15.6966 13.4722C15.0098 14.5 14.0337 15.3011 12.8916 15.7742C11.7496 16.2472 10.4929 16.371 9.28054 16.1298C8.06815 15.8887 6.9545 15.2934 6.08042 14.4193C5.96321 14.3021 5.80423 14.2363 5.63846 14.2363C5.47269 14.2363 5.31371 14.3021 5.1965 14.4193C5.07929 14.5366 5.01344 14.6955 5.01344 14.8613C5.01344 15.0271 5.0793 15.1861 5.19652 15.3033C6.60305 16.7098 8.51071 17.5 10.4998 17.5C12.489 17.4999 14.3966 16.7098 15.8031 15.3032C17.2097 13.8967 17.9998 11.989 17.9998 9.99992C17.9998 8.0108 17.2096 6.10314 15.8031 4.69662Z" fill="#191B1C"/>
</svg>
