<?xml version="1.0" encoding="utf-8"?>
<!-- Generator: Adobe Illustrator 25.4.8, SVG Export Plug-In . SVG Version: 6.00 Build 0)  -->
<svg version="1.1" id="레이어_1" xmlns="http://www.w3.org/2000/svg" xmlns:xlink="http://www.w3.org/1999/xlink" x="0px"
	 y="0px" viewBox="0 0 20 20" style="enable-background:new 0 0 20 20;" xml:space="preserve">
<style type="text/css">
	.st0{fill:#FFFFFF;}
</style>
<g>
	<path class="st0" d="M16.6,18.2L1.6,3.2c-0.4-0.4-0.4-1,0-1.4l0,0c0.4-0.4,1-0.4,1.4,0L18,16.8c0.4,0.4,0.4,1,0,1.4h0
		C17.6,18.6,17,18.6,16.6,18.2z"/>
	<path class="st0" d="M18.4,3.2L3.4,18.2c-0.4,0.4-1,0.4-1.4,0h0c-0.4-0.4-0.4-1,0-1.4L17,1.8c0.4-0.4,1-0.4,1.4,0v0
		C18.8,2.2,18.8,2.8,18.4,3.2z"/>
</g>
</svg>
