<?xml version="1.0" encoding="utf-8"?>
<!-- Generator: Adobe Illustrator 25.4.8, SVG Export Plug-In . SVG Version: 6.00 Build 0)  -->
<svg version="1.1" id="레이어_1" xmlns="http://www.w3.org/2000/svg" xmlns:xlink="http://www.w3.org/1999/xlink" x="0px"
	 y="0px" viewBox="0 0 13.4 13.4" style="enable-background:new 0 0 13.4 13.4;" xml:space="preserve">
<style type="text/css">
	.st0{fill:#005CE8;}
</style>
<path class="st0" d="M8.3,6.7l4.8-4.8c0.4-0.4,0.4-1.2,0-1.6s-1.2-0.4-1.6,0L6.7,5.1L1.9,0.3c-0.4-0.4-1.2-0.4-1.6,0
	C0.1,0.5,0,0.8,0,1.1s0.1,0.6,0.3,0.8l4.8,4.8l-4.8,4.8C0.1,11.7,0,12,0,12.3s0.1,0.6,0.3,0.8c0.4,0.4,1.2,0.4,1.6,0l4.8-4.8
	l4.8,4.8c0.4,0.4,1.2,0.4,1.6,0c0.4-0.4,0.4-1.2,0-1.6L8.3,6.7z"/>
</svg>
