<svg width="20" height="20" viewBox="0 0 20 20" fill="none" xmlns="http://www.w3.org/2000/svg">
<path fill-rule="evenodd" clip-rule="evenodd" d="M4.87542 12.1069C3.28524 12.0945 2 10.8015 2 9.20843V9.02292C2 7.41137 3.23607 6.08851 4.81186 5.95071C5.04598 4.062 6.65661 2.6001 8.6087 2.6001C10.0794 2.6001 11.3909 3.39122 12.0858 4.87799C12.8206 4.36863 13.8128 4.26451 14.6587 4.75288C15.5408 5.26218 16.0226 6.28495 15.8918 7.2595C17.0821 7.41908 18 8.43863 18 9.67256C18 11.0173 16.9099 12.1073 15.5652 12.1073H4.89855C4.8908 12.1073 4.88309 12.1072 4.87542 12.1069Z" fill="#D1D1D2"/>
<path d="M4.89892 11.5273V11.5273C3.61826 11.5273 2.58008 10.4891 2.58008 9.20841V9.0229C2.58008 7.63979 3.70131 6.51855 5.08443 6.51855H5.36269" stroke="#191B1C" stroke-width="1.15942" stroke-linecap="round" stroke-linejoin="round"/>
<path d="M5.3623 6.42606C5.3623 4.63314 6.81576 3.17969 8.60868 3.17969C10.0793 3.17969 11.3913 4.10722 11.8551 5.9623" stroke="#191B1C" stroke-width="1.15942" stroke-linecap="round"/>
<path d="M15.1018 7.81758C15.6032 6.94911 15.2563 5.76714 14.369 5.25488C13.4817 4.74261 12.3568 5.09364 11.8554 5.9621" stroke="#191B1C" stroke-width="1.15942" stroke-linecap="round"/>
<path d="M15.5653 11.5275V11.5275C16.5899 11.5275 17.4204 10.697 17.4204 9.67246V9.67246C17.4204 8.64793 16.5899 7.81738 15.5653 7.81738H15.1016" stroke="#191B1C" stroke-width="1.15942" stroke-linecap="round" stroke-linejoin="round"/>
<path d="M5.50137 14.1689L7.20137 15.9497L8.90137 14.1689" stroke="#191B1C" stroke-width="1.25" stroke-linecap="round" stroke-linejoin="round"/>
<path d="M7.18066 9.19971L7.18066 15.1997" stroke="#191B1C" stroke-width="1.25" stroke-linecap="round" stroke-linejoin="round"/>
<path d="M13.8307 10.9819L12.1307 9.28238L10.4307 10.9819" stroke="#191B1C" stroke-width="1.25" stroke-linecap="round" stroke-linejoin="round"/>
<path d="M12.1455 15.9502L12.1455 9.9502" stroke="#191B1C" stroke-width="1.25" stroke-linecap="round" stroke-linejoin="round"/>
</svg>
