<svg width="20" height="20" viewBox="0 0 20 20" fill="none" xmlns="http://www.w3.org/2000/svg">
<path fill-rule="evenodd" clip-rule="evenodd" d="M3.5 5C2.94772 5 2.5 5.44772 2.5 6V14V18L5.5 15H15.5C16.0523 15 16.5 14.5523 16.5 14V6C16.5 5.44772 16.0523 5 15.5 5H3.5Z" fill="white"/>
<path d="M2.5 18H1.875C1.875 18.2528 2.02728 18.4807 2.26082 18.5774C2.49437 18.6742 2.76319 18.6207 2.94194 18.4419L2.5 18ZM5.5 15V14.375C5.33424 14.375 5.17527 14.4408 5.05806 14.5581L5.5 15ZM3.125 6C3.125 5.79289 3.29289 5.625 3.5 5.625V4.375C2.60254 4.375 1.875 5.10254 1.875 6H3.125ZM3.125 14V6H1.875V14H3.125ZM3.125 18V14H1.875V18H3.125ZM5.05806 14.5581L2.05806 17.5581L2.94194 18.4419L5.94194 15.4419L5.05806 14.5581ZM15.5 14.375H5.5V15.625H15.5V14.375ZM15.875 14C15.875 14.2071 15.7071 14.375 15.5 14.375V15.625C16.3975 15.625 17.125 14.8975 17.125 14H15.875ZM15.875 6V14H17.125V6H15.875ZM15.5 5.625C15.7071 5.625 15.875 5.79289 15.875 6H17.125C17.125 5.10254 16.3975 4.375 15.5 4.375V5.625ZM3.5 5.625H15.5V4.375H3.5V5.625Z" fill="#191B1C"/>
<path d="M6 8.5C6.78105 8.5 8 8.5 8 8.5" stroke="black" stroke-width="1.25" stroke-linecap="round"/>
<path d="M6 11.5C7.95262 11.5 11 11.5 11 11.5" stroke="black" stroke-width="1.25" stroke-linecap="round"/>
<circle cx="14.5" cy="6.5" r="3.875" fill="white" stroke="#191B1C" stroke-width="1.25"/>
<path d="M14.5353 9.27953C14.8277 9.27953 15.0647 9.0425 15.0647 8.75011C15.0647 8.45773 14.8277 8.2207 14.5353 8.2207C14.2429 8.2207 14.0059 8.45773 14.0059 8.75011C14.0059 9.0425 14.2429 9.27953 14.5353 9.27953Z" fill="#202020"/>
<path fill-rule="evenodd" clip-rule="evenodd" d="M14.5 5.13235C14.1246 5.13235 13.8824 5.40701 13.8824 5.66201C13.8824 5.90567 13.6848 6.10319 13.4412 6.10319C13.1975 6.10319 13 5.90567 13 5.66201C13 4.84921 13.7109 4.25 14.5 4.25C15.2891 4.25 16 4.84921 16 5.66201C16 6.25856 15.5662 6.64228 15.2718 6.86566C15.0215 7.05559 14.9608 7.13475 14.9461 7.16052C14.9455 7.16154 14.9453 7.16175 14.9451 7.16202C14.9449 7.1624 14.9449 7.16289 14.9445 7.16588C14.942 7.18255 14.9412 7.20597 14.9412 7.2797V7.51471C14.9412 7.75836 14.7437 7.95588 14.5 7.95588C14.2563 7.95588 14.0588 7.75836 14.0588 7.51471V7.2797C14.0588 7.27369 14.0588 7.26748 14.0588 7.26108C14.0584 7.13544 14.0579 6.93614 14.1802 6.72237C14.2917 6.52739 14.4836 6.35614 14.7385 6.16276C15.0214 5.94806 15.1176 5.79787 15.1176 5.66201C15.1176 5.40701 14.8754 5.13235 14.5 5.13235Z" fill="#202020"/>
</svg>
