<svg width="21" height="20" viewBox="0 0 21 20" fill="none" xmlns="http://www.w3.org/2000/svg">
<path d="M10.5 1.875V18.125" stroke="#191B1C" stroke-width="1.25" stroke-linecap="round" stroke-linejoin="round"/>
<path d="M14.875 6.875C14.875 6.46462 14.7942 6.05826 14.6371 5.67911C14.4801 5.29997 14.2499 4.95547 13.9597 4.66529C13.6695 4.37511 13.325 4.14492 12.9459 3.98788C12.5667 3.83083 12.1604 3.75 11.75 3.75H8.9375C8.1087 3.75 7.31384 4.07924 6.72779 4.66529C6.14174 5.25134 5.8125 6.0462 5.8125 6.875C5.8125 7.7038 6.14174 8.49866 6.72779 9.08471C7.31384 9.67076 8.1087 10 8.9375 10H12.375C13.2038 10 13.9987 10.3292 14.5847 10.9153C15.1708 11.5013 15.5 12.2962 15.5 13.125C15.5 13.9538 15.1708 14.7487 14.5847 15.3347C13.9987 15.9208 13.2038 16.25 12.375 16.25H8.625C7.7962 16.25 7.00134 15.9208 6.41529 15.3347C5.82924 14.7487 5.5 13.9538 5.5 13.125" stroke="#191B1C" stroke-width="1.25" stroke-linecap="round" stroke-linejoin="round"/>
</svg>
