<?xml version="1.0" encoding="utf-8"?>
<!-- Generator: Adobe Illustrator 25.4.8, SVG Export Plug-In . SVG Version: 6.00 Build 0)  -->
<svg version="1.1" id="레이어_1" xmlns="http://www.w3.org/2000/svg" xmlns:xlink="http://www.w3.org/1999/xlink" x="0px"
	 y="0px" viewBox="0 0 21 20" style="enable-background:new 0 0 21 20;" xml:space="preserve">
<style type="text/css">
	.st0{fill:#191B1C;}
	.st1{fill:none;stroke:#191B1C;stroke-width:1.25;stroke-linecap:round;stroke-linejoin:round;}
	.st2{opacity:0.2;fill:#191B1C;}
</style>
<path class="st0" d="M11.4,15.7c-0.8,0.3-1.9,0.5-3,0.5c-3.3,0-5.5-1.4-5.5-2.6c0-0.5,0.4-1,0.8-1.3c1.3,0.7,3,1.1,4.8,1.1
	c0.7,0,1.4-0.1,2.1-0.2c0.3-0.5,0.8-0.8,1.3-0.8h0.7v-1.3c-1,0.5-2.4,0.9-4.1,0.9c-3.3,0-5.5-1.4-5.5-2.6c0-0.5,0.4-1,0.8-1.3
	c1.3,0.7,3,1.1,4.8,1.1c1.5,0,2.9-0.3,4.1-0.8v-1c0-0.2,0.1-0.4,0.1-0.6c-1,0.6-2.4,1-4.2,1c-3.3,0-5.5-1.4-5.5-2.6s2.3-2.6,5.5-2.6
	c3.3,0,5.5,1.4,5.5,2.6c0,0.3-0.1,0.5-0.3,0.8c0.1,0,0.2,0,0.4,0H15c0.1-0.2,0.1-0.5,0.1-0.8c0-2.2-3-3.9-6.8-3.9
	c-3.8,0-6.8,1.7-6.8,3.9c0,0.8,0.4,1.5,1.1,2.1C2,7.8,1.6,8.6,1.6,9.3c0,0.8,0.4,1.5,1.1,2.1c-0.7,0.6-1.1,1.3-1.1,2.1
	c0,2.2,3,3.9,6.8,3.9c1.5,0,2.8-0.3,3.9-0.7L11.4,15.7z"/>
<polygon class="st1" points="17.8,13.8 17.8,7.3 13.7,7.3 13.7,13.8 11.6,13.8 15.8,18.3 19.9,13.8 "/>
<polygon class="st2" points="17.8,13.8 17.8,7.3 13.7,7.3 13.7,13.8 11.6,13.8 15.8,18.3 19.9,13.8 "/>
</svg>
