<?xml version="1.0" encoding="utf-8"?>
<!-- Generator: Adobe Illustrator 25.4.8, SVG Export Plug-In . SVG Version: 6.00 Build 0)  -->
<svg version="1.1" id="레이어_1" xmlns="http://www.w3.org/2000/svg" xmlns:xlink="http://www.w3.org/1999/xlink" x="0px"
	 y="0px" viewBox="0 0 15 15" style="enable-background:new 0 0 15 15;" xml:space="preserve">
<style type="text/css">
	.st0{fill:#F5F5F5;}
</style>
<path class="st0" d="M15,9.4v4.4c0,0.3-0.1,0.6-0.4,0.9c-0.2,0.2-0.6,0.4-0.9,0.4H1.2c-0.3,0-0.6-0.1-0.9-0.4
	C0.1,14.4,0,14.1,0,13.8V9.4c0-0.2,0.1-0.3,0.2-0.4c0.1-0.1,0.3-0.2,0.4-0.2s0.3,0.1,0.4,0.2c0.1,0.1,0.2,0.3,0.2,0.4v4.4h12.5V9.4
	c0-0.2,0.1-0.3,0.2-0.4c0.1-0.1,0.3-0.2,0.4-0.2s0.3,0.1,0.4,0.2C14.9,9.1,15,9.2,15,9.4z M7.1,9.8C7.1,9.9,7.2,9.9,7.3,10
	c0.1,0,0.2,0,0.2,0c0.1,0,0.2,0,0.2,0c0.1,0,0.1-0.1,0.2-0.1l3.1-3.1c0.1-0.1,0.1-0.1,0.1-0.2c0-0.1,0-0.2,0-0.2s0-0.2,0-0.2
	c0-0.1-0.1-0.1-0.1-0.2c-0.1-0.1-0.1-0.1-0.2-0.1c-0.1,0-0.2,0-0.2,0s-0.2,0-0.2,0c-0.1,0-0.1,0.1-0.2,0.1L8.1,7.9V0.6
	c0-0.2-0.1-0.3-0.2-0.4C7.8,0.1,7.7,0,7.5,0S7.2,0.1,7.1,0.2C6.9,0.3,6.9,0.5,6.9,0.6v7.2L4.8,5.8C4.7,5.7,4.5,5.6,4.4,5.6
	S4.1,5.7,3.9,5.8C3.8,5.9,3.7,6.1,3.7,6.2s0.1,0.3,0.2,0.4L7.1,9.8z"/>
</svg>
