<?xml version="1.0" encoding="utf-8"?>
<!-- Generator: Adobe Illustrator 25.4.8, SVG Export Plug-In . SVG Version: 6.00 Build 0)  -->
<svg version="1.1" id="레이어_1" xmlns="http://www.w3.org/2000/svg" xmlns:xlink="http://www.w3.org/1999/xlink" x="0px"
	 y="0px" viewBox="0 0 18.5 10.6" style="enable-background:new 0 0 18.5 10.6;" xml:space="preserve">
<style type="text/css">
	.st0{fill:#DDE0FF;}
	.st1{fill:none;stroke:#DDE0FF;stroke-miterlimit:10;}
</style>
<polygon class="st0" points="14.7,3.6 14.1,3.1 12.3,4.8 10.5,3.1 10,3.6 11.8,5.4 10,7.2 10.5,7.6 12.3,5.9 14.1,7.6 14.7,7.2 
	12.8,5.4 "/>
<path class="st1" d="M17,0.8H7.7C7.5,0.8,7.3,0.9,7.1,1L1,4.5C0.4,4.9,0.4,5.7,1,6.1l6.1,3.5c0.2,0.2,0.4,0.3,0.6,0.3H17
	c0.5,0,0.9-0.4,0.9-0.9V1.6C17.9,1.2,17.5,0.8,17,0.8z"/>
</svg>
