<?xml version="1.0" encoding="utf-8"?>
<!-- Generator: Adobe Illustrator 25.4.8, SVG Export Plug-In . SVG Version: 6.00 Build 0)  -->
<svg version="1.1" id="레이어_1" xmlns="http://www.w3.org/2000/svg" xmlns:xlink="http://www.w3.org/1999/xlink" x="0px"
	 y="0px" viewBox="0 0 24 24" style="enable-background:new 0 0 24 24;" xml:space="preserve">
<style type="text/css">
	.st0{fill-rule:evenodd;clip-rule:evenodd;fill:#191B1C;}
	
		.st1{fill-rule:evenodd;clip-rule:evenodd;fill:#191B1C;stroke:#191B1C;stroke-width:1.9;stroke-linecap:round;stroke-miterlimit:10;}
</style>
<path class="st0" d="M3.8,8.8c0,0.3,0.2,0.7,0.6,1.4c0.4,0.6,1,1.2,1.8,1.8c1.5,1.2,3.6,2.1,5.9,2.1c2.3,0,4.4-0.9,5.9-2.1
	c0.8-0.6,1.4-1.2,1.8-1.8c0.4-0.6,0.6-1.1,0.6-1.4 M21.8,8.8c0,0.7-0.3,1.5-0.8,2.2c-0.5,0.7-1.2,1.5-2.1,2.1
	c-1.7,1.3-4.1,2.4-6.8,2.4c-2.7,0-5.1-1.1-6.8-2.4c-0.9-0.7-1.6-1.4-2.1-2.1c-0.5-0.7-0.8-1.5-0.8-2.2"/>
<ellipse class="st0" cx="3" cy="8.8" rx="0.8" ry="0.5"/>
<ellipse class="st0" cx="21" cy="8.8" rx="0.8" ry="0.5"/>
<line class="st1" x1="5.5" y1="13.4" x2="4.2" y2="14.9"/>
<line class="st1" x1="18.2" y1="13.4" x2="19.5" y2="14.9"/>
<line class="st1" x1="12.1" y1="15.2" x2="12.1" y2="17.1"/>
</svg>
