<svg width="20" height="20" viewBox="0 0 20 20" fill="none" xmlns="http://www.w3.org/2000/svg">
<path fill-rule="evenodd" clip-rule="evenodd" d="M4 4C3.44772 4 3 4.44772 3 5V13V17L6 14H16C16.5523 14 17 13.5523 17 13V5C17 4.44772 16.5523 4 16 4H4Z" fill="white"/>
<path d="M3 17H2.375C2.375 17.2528 2.52728 17.4807 2.76082 17.5774C2.99437 17.6742 3.26319 17.6207 3.44194 17.4419L3 17ZM6 14V13.375C5.83424 13.375 5.67527 13.4408 5.55806 13.5581L6 14ZM3.625 5C3.625 4.79289 3.79289 4.625 4 4.625V3.375C3.10254 3.375 2.375 4.10254 2.375 5H3.625ZM3.625 13V5H2.375V13H3.625ZM3.625 17V13H2.375V17H3.625ZM5.55806 13.5581L2.55806 16.5581L3.44194 17.4419L6.44194 14.4419L5.55806 13.5581ZM16 13.375H6V14.625H16V13.375ZM16.375 13C16.375 13.2071 16.2071 13.375 16 13.375V14.625C16.8975 14.625 17.625 13.8975 17.625 13H16.375ZM16.375 5V13H17.625V5H16.375ZM16 4.625C16.2071 4.625 16.375 4.79289 16.375 5H17.625C17.625 4.10254 16.8975 3.375 16 3.375V4.625ZM4 4.625H16V3.375H4V4.625Z" fill="#191B1C"/>
<path d="M12.8852 9.61222H13.5828L13.8803 9.99351C14.0669 9.77718 14.175 9.44456 14.1723 9.0119C14.175 8.17361 13.7748 7.72201 13.1718 7.71931C12.5634 7.72201 12.1659 8.17361 12.1659 9.0119C12.1659 9.84749 12.5634 10.3018 13.1718 10.3045C13.2502 10.3045 13.3259 10.2964 13.3962 10.2802L12.8852 9.61222ZM11.3384 9.0119C11.3384 7.73283 12.128 7 13.1718 7C14.2075 7 14.9998 7.73283 14.9998 9.0119C14.9998 9.71228 14.7619 10.2477 14.3779 10.5911L14.9349 11.2942H14.1723L13.8587 10.9048C13.6477 10.9832 13.4152 11.0238 13.1718 11.0238C12.128 11.0238 11.3384 10.2856 11.3384 9.0119Z" fill="#191B1C"/>
<path d="M8.27752 10.9698H7.40137L8.75886 7.0542H9.80267L11.1547 10.9698H10.284L9.98925 10.0666H8.57227L8.27752 10.9698ZM8.77779 9.43386H9.78374L9.29428 7.93576H9.26724L8.77779 9.43386Z" fill="#191B1C"/>
<path d="M5 10.9693V7.05371H7.57977V7.72434H5.81125V8.67621H7.41211V9.34684H5.81125V10.9693H5Z" fill="#191B1C"/>
</svg>
