<svg width="16" height="18" viewBox="0 0 16 18" fill="none" xmlns="http://www.w3.org/2000/svg">
<path d="M2.5 5H13.5L12.6908 15.4162C12.6302 16.1972 11.9787 16.8 11.1953 16.8H4.80466C4.02129 16.8 3.36984 16.1972 3.30917 15.4162L2.5 5Z" stroke="#0043E1" stroke-linejoin="round"/>
<path d="M5.59961 8V13.4" stroke="#0043E1" stroke-linecap="round"/>
<path d="M8 8.97192V10.7719V12.5719" stroke="#0043E1" stroke-linecap="round"/>
<path d="M10.4004 8V13.4" stroke="#0043E1" stroke-linecap="round"/>
<path d="M5.5 2.5L5.88604 1.34189C5.95409 1.13772 6.14516 1 6.36038 1H9.63962C9.85484 1 10.0459 1.13772 10.114 1.34189L10.5 2.5" stroke="#0043E1" stroke-linecap="round" stroke-linejoin="round"/>
<path d="M1 4V3.5C1 3.22386 1.22386 3 1.5 3H14.5C14.7761 3 15 3.22386 15 3.5V4" stroke="#0043E1" stroke-linecap="round" stroke-linejoin="round"/>
</svg>
