<svg width="21" height="20" viewBox="0 0 21 20" fill="none" xmlns="http://www.w3.org/2000/svg">
<path opacity="0.2" d="M14.25 15H16.125C16.2908 15 16.4497 14.9342 16.5669 14.8169C16.6842 14.6997 16.75 14.5408 16.75 14.375V5.625L13.625 2.5H7.375C7.20924 2.5 7.05027 2.56585 6.93306 2.68306C6.81585 2.80027 6.75 2.95924 6.75 3.125V5H11.125L14.25 8.125V15Z" fill="#191B1C"/>
<path d="M13.625 17.5H4.875C4.70924 17.5 4.55027 17.4342 4.43306 17.3169C4.31585 17.1997 4.25 17.0408 4.25 16.875V5.625C4.25 5.45924 4.31585 5.30027 4.43306 5.18306C4.55027 5.06585 4.70924 5 4.875 5H11.125L14.25 8.125V16.875C14.25 17.0408 14.1842 17.1997 14.0669 17.3169C13.9497 17.4342 13.7908 17.5 13.625 17.5Z" stroke="#191B1C" stroke-width="1.25" stroke-linecap="round" stroke-linejoin="round"/>
<path d="M6.75 5V3.125C6.75 2.95924 6.81585 2.80027 6.93306 2.68306C7.05027 2.56585 7.20924 2.5 7.375 2.5H13.625L16.75 5.625V14.375C16.75 14.5408 16.6842 14.6997 16.5669 14.8169C16.4497 14.9342 16.2908 15 16.125 15H14.25" stroke="#191B1C" stroke-width="1.25" stroke-linecap="round" stroke-linejoin="round"/>
<path d="M7.375 11.875H11.125" stroke="#191B1C" stroke-width="1.25" stroke-linecap="round" stroke-linejoin="round"/>
<path d="M7.375 14.375H11.125" stroke="#191B1C" stroke-width="1.25" stroke-linecap="round" stroke-linejoin="round"/>
</svg>
