<?xml version="1.0" encoding="utf-8"?>
<!-- Generator: Adobe Illustrator 25.4.8, SVG Export Plug-In . SVG Version: 6.00 Build 0)  -->
<svg version="1.1" id="레이어_1" xmlns="http://www.w3.org/2000/svg" xmlns:xlink="http://www.w3.org/1999/xlink" x="0px"
	 y="0px" viewBox="0 0 15.9 11.6" style="enable-background:new 0 0 15.9 11.6;" xml:space="preserve">
<style type="text/css">
	.st0{fill:none;stroke:#191B1C;stroke-width:1.25;stroke-linecap:round;stroke-linejoin:round;}
</style>
<g>
	<path class="st0" d="M15.2,10.1c0,0.2-0.1,0.4-0.3,0.5c-0.2,0.1-0.4,0.2-0.6,0.2H1.8c-0.2,0-0.5-0.1-0.6-0.2
		c-0.2-0.1-0.3-0.3-0.3-0.5V6.6"/>
	<path class="st0" d="M15.2,6.6v3.4c0,0.2-0.1,0.4-0.3,0.5c-0.2,0.1-0.4,0.2-0.6,0.2H1.8c-0.2,0-0.5-0.1-0.6-0.2
		c-0.2-0.1-0.3-0.3-0.3-0.5"/>
</g>
<g>
	<polyline class="st0" points="11,5.7 8,8.7 5,5.7 	"/>
	<line class="st0" x1="8" y1="0.7" x2="8" y2="8.5"/>
</g>
</svg>
