<svg width="21" height="20" viewBox="0 0 21 20" fill="none" xmlns="http://www.w3.org/2000/svg">
<path d="M4.45996 14.4468C5.14646 13.0653 5.50263 11.5432 5.50037 10.0005C5.49966 9.25084 5.66785 8.51064 5.99245 7.83489C6.31705 7.15913 6.78971 6.56519 7.37534 6.09717" stroke="#191B1C" stroke-width="1.25" stroke-linecap="round" stroke-linejoin="round"/>
<path d="M10.5005 10.0005C10.5045 12.5418 9.85977 15.0421 8.62744 17.2646" stroke="#191B1C" stroke-width="1.25" stroke-linecap="round" stroke-linejoin="round"/>
<path d="M8.00049 10.0005C8.00049 9.33745 8.26388 8.70156 8.73272 8.23272C9.20156 7.76388 9.83745 7.50049 10.5005 7.50049C11.1635 7.50049 11.7994 7.76388 12.2683 8.23272C12.7371 8.70156 13.0005 9.33745 13.0005 10.0005C13.0041 12.5773 12.4365 15.123 11.3384 17.4541" stroke="#191B1C" stroke-width="1.25" stroke-linecap="round" stroke-linejoin="round"/>
<path d="M17.5754 14.3755C17.8589 12.9344 18.0012 11.4692 18.0005 10.0005C18.0005 8.01136 17.2103 6.10371 15.8038 4.69719C14.3973 3.29066 12.4896 2.50049 10.5005 2.50049C8.51138 2.50049 6.60372 3.29066 5.1972 4.69719C3.79068 6.10371 3.0005 8.01136 3.0005 10.0005C3.00143 10.852 2.85711 11.6975 2.57373 12.5005" stroke="#191B1C" stroke-width="1.25" stroke-linecap="round" stroke-linejoin="round"/>
<path d="M7.75042 12.5005C7.4836 13.8147 7.00567 15.077 6.33521 16.2384" stroke="#191B1C" stroke-width="1.25" stroke-linecap="round" stroke-linejoin="round"/>
<path d="M9.87549 5.03917C10.5792 4.95116 11.2936 5.01374 11.9714 5.22277C12.6491 5.43181 13.2746 5.78252 13.8065 6.25166C14.3384 6.7208 14.7645 7.29764 15.0566 7.94395C15.3486 8.59026 15.4999 9.29126 15.5005 10.0005C15.5007 10.8362 15.449 11.6711 15.3458 12.5004" stroke="#191B1C" stroke-width="1.25" stroke-linecap="round" stroke-linejoin="round"/>
<path d="M14.8704 15.0005C14.7513 15.4629 14.6164 15.9186 14.4656 16.3677" stroke="#191B1C" stroke-width="1.25" stroke-linecap="round" stroke-linejoin="round"/>
</svg>
