<svg width="21" height="20" viewBox="0 0 21 20" fill="none" xmlns="http://www.w3.org/2000/svg">
<path d="M19.0775 4.15869C18.5888 3.63527 17.9976 3.21793 17.3409 2.93259C16.6841 2.64724 15.9756 2.5 15.2595 2.5C14.5434 2.5 13.8349 2.64724 13.1781 2.93259C12.5213 3.21793 11.9302 3.63527 11.4415 4.15869C11.0652 4.55356 10.7481 5.00092 10.5001 5.48682C10.2534 5.00117 9.9376 4.55382 9.56262 4.15869C9.07392 3.63527 8.4828 3.21793 7.82601 2.93259C7.16921 2.64724 6.46075 2.5 5.74465 2.5C5.02855 2.5 4.3201 2.64724 3.6633 2.93259C3.0065 3.21793 2.41539 3.63527 1.92668 4.15869C1.85738 4.2315 1.80666 4.31996 1.77883 4.41655C1.751 4.51314 1.74687 4.61502 1.76681 4.71354C1.78674 4.81207 1.83015 4.90433 1.89334 4.9825C1.95653 5.06068 2.03765 5.12246 2.12981 5.1626L6.51575 7.07432C5.08743 7.4562 3.86907 8.38936 3.12825 9.66885C2.75657 10.3031 2.51535 11.0052 2.41875 11.734C2.32216 12.4627 2.37213 13.2034 2.56575 13.9126C2.59251 14.0114 2.64313 14.1021 2.71317 14.1768C2.78321 14.2515 2.87052 14.3078 2.96742 14.3408C3.06432 14.3738 3.16786 14.3826 3.26891 14.3662C3.36997 14.3498 3.46546 14.3089 3.547 14.247L9.87512 9.42822V17.5001C9.87512 17.6659 9.94097 17.8248 10.0582 17.942C10.1754 18.0592 10.3344 18.1251 10.5001 18.1251C10.6659 18.1251 10.8249 18.0592 10.9421 17.942C11.0593 17.8248 11.1251 17.6659 11.1251 17.5001V9.42822L17.4532 14.247C17.5348 14.3091 17.6303 14.3501 17.7315 14.3666C17.8327 14.3831 17.9363 14.3744 18.0333 14.3414C18.1303 14.3083 18.2177 14.2519 18.2878 14.1772C18.3579 14.1024 18.4086 14.0115 18.4353 13.9126C18.6289 13.2034 18.6789 12.4627 18.5823 11.734C18.4857 11.0052 18.2445 10.3031 17.8728 9.66885C17.1318 8.38919 15.9131 7.45602 14.4845 7.07432L18.8767 5.1626C18.9688 5.12246 19.05 5.06068 19.1132 4.9825C19.1763 4.90433 19.2197 4.81207 19.2397 4.71354C19.2596 4.61502 19.2555 4.51314 19.2277 4.41655C19.1998 4.31996 19.1491 4.2315 19.0798 4.15869H19.0775ZM5.74075 3.7501C6.28729 3.75132 6.82777 3.8647 7.32874 4.0832C7.82971 4.3017 8.28051 4.62068 8.65325 5.02041C9.21018 5.60652 9.59554 6.33426 9.76731 7.12432L3.547 4.4165C4.19616 3.98211 4.95965 3.75018 5.74075 3.7501ZM3.62512 12.6173C3.59528 11.8041 3.79771 10.9993 4.20872 10.297C4.49601 9.80116 4.87865 9.36715 5.33455 9.01999C5.79046 8.67283 6.3106 8.4194 6.86497 8.27432C7.2378 8.17485 7.62206 8.12468 8.00793 8.1251C8.43756 8.12506 8.86483 8.1885 9.2759 8.31338L3.62512 12.6173ZM16.7892 10.297C17.201 10.999 17.4043 11.8039 17.3751 12.6173L11.7267 8.3126C12.6711 8.02741 13.6841 8.06803 14.6027 8.42793C15.5212 8.78783 16.2922 9.44611 16.7915 10.297H16.7892ZM11.2329 7.12432C11.4047 6.33426 11.7901 5.60652 12.347 5.02041C12.7197 4.62068 13.1705 4.3017 13.6715 4.0832C14.1725 3.8647 14.713 3.75132 15.2595 3.7501C16.0406 3.75018 16.8041 3.98211 17.4532 4.4165L11.2329 7.12432Z" fill="black"/>
</svg>
