<svg width="17" height="17" viewBox="0 0 17 17" fill="none" xmlns="http://www.w3.org/2000/svg">
<path fill-rule="evenodd" clip-rule="evenodd" d="M0.861816 2.40625C0.861816 1.30168 1.75725 0.40625 2.86182 0.40625H6.2685V2.40625L2.86182 2.40625V5.80676H0.861816V2.40625ZM14.4885 2.40625H10.9197V0.40625H14.4885C15.5931 0.40625 16.4885 1.30168 16.4885 2.40625V5.80676H14.4885V2.40625ZM2.86182 10.3743V14.0339L2.86182 14.033H6.2685V16.033H2.86182C1.7585 16.033 0.861816 15.1397 0.861816 14.0339V10.3743H2.86182ZM14.4885 14.033V10.3743H16.4885V14.033C16.4885 15.1375 15.5931 16.033 14.4885 16.033H10.9197V14.033L14.4885 14.033Z" fill="white"/>
</svg>
