<?xml version="1.0" encoding="utf-8"?>
<!-- Generator: Adobe Illustrator 25.4.8, SVG Export Plug-In . SVG Version: 6.00 Build 0)  -->
<svg version="1.1" id="레이어_1" xmlns="http://www.w3.org/2000/svg" xmlns:xlink="http://www.w3.org/1999/xlink" x="0px"
	 y="0px" viewBox="0 0 24 24" style="enable-background:new 0 0 24 24;" xml:space="preserve">
<style type="text/css">
	.st0{fill:none;stroke:#FFFFFF;stroke-width:1.5;stroke-linecap:round;stroke-linejoin:round;}
	.st1{fill:none;stroke:#FFFFFF;stroke-width:1.25;stroke-linecap:round;stroke-linejoin:round;}
</style>
<path class="st0" d="M18.9,3.6c-0.4-0.3-0.8-0.5-1.3-0.5H14h-3.6H6.8c-0.5,0-0.9,0.2-1.3,0.5C5.2,4,5,4.4,5,4.9v3.6v10.8
	c0,0.5,0.2,1,0.5,1.3c0.4,0.3,0.8,0.5,1.3,0.5h10.8c0.5,0,0.9-0.2,1.3-0.5c0.3-0.3,0.5-0.8,0.5-1.3V8.5V4.9
	C19.4,4.4,19.2,4,18.9,3.6z"/>
<circle class="st1" cx="12.2" cy="9.4" r="2.6"/>
<g>
	<path class="st1" d="M7.6,17.3c0,0,1.1-4.1,4.4-4.1"/>
	<path class="st1" d="M16.8,17.3c0,0-1.1-4.1-4.4-4.1"/>
</g>
</svg>
