<?xml version="1.0" encoding="utf-8"?>
<!-- Generator: Adobe Illustrator 25.4.8, SVG Export Plug-In . SVG Version: 6.00 Build 0)  -->
<svg version="1.1" id="레이어_1" xmlns="http://www.w3.org/2000/svg" xmlns:xlink="http://www.w3.org/1999/xlink" x="0px"
	 y="0px" viewBox="0 0 24 24" style="enable-background:new 0 0 24 24;" xml:space="preserve">
<style type="text/css">
	.st0{fill:none;stroke:#FFFFFF;stroke-width:1.5;stroke-linecap:round;stroke-linejoin:round;}
	.st1{fill:none;stroke:#FFFFFF;stroke-width:1.25;stroke-linecap:round;stroke-linejoin:round;}
</style>
<path class="st0" d="M14,3H6.8C6.3,3,5.9,3.2,5.5,3.5C5.2,3.9,5,4.3,5,4.8v14.4c0,0.5,0.2,0.9,0.5,1.3C5.9,20.8,6.3,21,6.8,21h10.8
	c0.5,0,0.9-0.2,1.3-0.5c0.3-0.3,0.5-0.8,0.5-1.3V8.4L14,3z"/>
<path class="st0" d="M14,3v5.4h5.4"/>
<path class="st1" d="M16,15H8"/>
<path class="st1" d="M16,18H8"/>
<path class="st1" d="M16,12H8"/>
<path class="st1" d="M10.8,9H8"/>
<path class="st1" d="M10.8,6.1H8"/>
</svg>
