<?xml version="1.0" encoding="utf-8"?>
<!-- Generator: Adobe Illustrator 26.5.1, SVG Export Plug-In . SVG Version: 6.00 Build 0)  -->
<svg version="1.1" id="레이어_1" xmlns="http://www.w3.org/2000/svg" xmlns:xlink="http://www.w3.org/1999/xlink" x="0px"
	 y="0px" viewBox="0 0 208.5 214" style="enable-background:new 0 0 208.5 214;" xml:space="preserve">
<style type="text/css">
	.st0{fill-rule:evenodd;clip-rule:evenodd;fill:#4285F4;}
	.st1{fill-rule:evenodd;clip-rule:evenodd;fill:#34A853;}
	.st2{fill-rule:evenodd;clip-rule:evenodd;fill:#FBBC05;}
	.st3{fill-rule:evenodd;clip-rule:evenodd;fill:#EA4335;}
</style>
<g>
	<path class="st0" d="M208.3,109.4c0-7.5-0.7-14.8-1.9-21.7h-100v41.1h57.1c-2.5,13.3-9.9,24.5-21.2,32v26.6h34.3
		C196.7,169,208.3,141.7,208.3,109.4L208.3,109.4L208.3,109.4z"/>
	<path class="st1" d="M106.4,213.1c28.7,0,52.7-9.5,70.3-25.7l-34.3-26.6c-9.5,6.4-21.7,10.1-35.9,10.1c-27.6,0-51-18.7-59.4-43.8
		H11.5v27.5C29,189.4,64.9,213.1,106.4,213.1L106.4,213.1L106.4,213.1z"/>
	<path class="st2" d="M47,127.2c-2.1-6.4-3.3-13.2-3.3-20.2c0-7,1.2-13.8,3.3-20.2V59.3H11.5C4.3,73.7,0.2,89.9,0.2,107
		s4.1,33.3,11.3,47.7L47,127.2L47,127.2L47,127.2z"/>
	<path class="st3" d="M106.4,43.1c15.6,0,29.6,5.4,40.6,15.9l30.4-30.4C159,11.4,135,0.9,106.4,0.9C64.9,0.9,29,24.6,11.5,59.3
		L47,86.8C55.3,61.7,78.7,43.1,106.4,43.1L106.4,43.1L106.4,43.1z"/>
</g>
</svg>
