<?xml version="1.0" encoding="utf-8"?>
<!-- Generator: Adobe Illustrator 25.4.8, SVG Export Plug-In . SVG Version: 6.00 Build 0)  -->
<svg version="1.1" id="레이어_1" xmlns="http://www.w3.org/2000/svg" xmlns:xlink="http://www.w3.org/1999/xlink" x="0px"
	 y="0px" viewBox="0 0 20 20" style="enable-background:new 0 0 20 20;" xml:space="preserve">
<style type="text/css">
	.st0{fill:none;stroke:#000000;stroke-miterlimit:10;}
	.st1{fill:none;stroke:#000000;stroke-linecap:round;stroke-miterlimit:10;}
</style>
<g>
	<path class="st0" d="M17.4,18.4H2.6c-0.8,0-1.5-0.7-1.5-1.5V3.1c0-0.8,0.7-1.5,1.5-1.5h14.8c0.8,0,1.5,0.7,1.5,1.5v13.9
		C18.9,17.7,18.2,18.4,17.4,18.4z"/>
	<circle class="st1" cx="15.4" cy="15.2" r="1.4"/>
	<path d="M15.1,5.3c-0.3-0.4-0.7-0.6-1.2-0.8c-0.4-0.2-0.9-0.3-1.4-0.3c-0.5,0-1,0.1-1.4,0.3C10.7,4.7,10.3,5,10,5.3
		C9.7,5.6,9.5,5.9,9.3,6.2C9.2,5.9,9,5.6,8.7,5.3C8.4,5,8,4.7,7.5,4.5C7.1,4.3,6.6,4.2,6.1,4.2s-1,0.1-1.4,0.3
		C4.3,4.7,3.9,5,3.6,5.3c0,0-0.1,0.1-0.1,0.2c0,0.1,0,0.1,0,0.2c0,0.1,0,0.1,0.1,0.2C3.6,5.9,3.6,6,3.7,6l3,1.3
		C5.7,7.6,4.9,8.2,4.4,9c-0.3,0.4-0.4,0.9-0.5,1.4c-0.1,0.5,0,1,0.1,1.5C4,12,4,12,4.1,12.1s0.1,0.1,0.2,0.1c0.1,0,0.1,0,0.2,0
		c0.1,0,0.1,0,0.2-0.1l4.3-3.2v5.4c0,0.1,0,0.2,0.1,0.3c0.1,0.1,0.2,0.1,0.3,0.1c0.1,0,0.2,0,0.3-0.1c0.1-0.1,0.1-0.2,0.1-0.3V8.9
		l4.3,3.2c0.1,0,0.1,0.1,0.2,0.1c0.1,0,0.1,0,0.2,0c0.1,0,0.1-0.1,0.2-0.1c0-0.1,0.1-0.1,0.1-0.2c0.1-0.5,0.2-1,0.1-1.5
		c-0.1-0.5-0.2-1-0.5-1.4C13.8,8.2,13,7.6,12,7.3L15,6c0.1,0,0.1-0.1,0.2-0.1c0-0.1,0.1-0.1,0.1-0.2c0-0.1,0-0.1,0-0.2
		C15.2,5.4,15.2,5.4,15.1,5.3L15.1,5.3z M6.1,5.1c0.4,0,0.7,0.1,1.1,0.2c0.3,0.1,0.6,0.4,0.9,0.6c0.4,0.4,0.6,0.9,0.8,1.4L4.6,5.5
		C5.1,5.2,5.6,5.1,6.1,5.1z M4.7,11c0-0.5,0.1-1.1,0.4-1.6c0.2-0.3,0.5-0.6,0.8-0.9c0.3-0.2,0.7-0.4,1-0.5C7.1,8,7.4,8,7.7,8
		c0.3,0,0.6,0,0.9,0.1L4.7,11z M13.6,9.5c0.3,0.5,0.4,1,0.4,1.6l-3.8-2.9c0.6-0.2,1.3-0.2,1.9,0.1C12.7,8.5,13.2,8.9,13.6,9.5
		L13.6,9.5z M9.8,7.3c0.1-0.5,0.4-1,0.8-1.4c0.3-0.3,0.6-0.5,0.9-0.6c0.3-0.1,0.7-0.2,1.1-0.2c0.5,0,1,0.2,1.5,0.4L9.8,7.3z"/>
</g>
</svg>
