<svg width="12" height="12" viewBox="0 0 12 12" fill="none" xmlns="http://www.w3.org/2000/svg">
<g clip-path="url(#clip0_1820_11879)">
<path d="M3.94727 10.3072C3.94727 10.3072 6.28506 10.3072 7.03586 10.2413C7.60045 9.99564 9.57722 8.93336 10.5596 8.4016C10.8628 8.23747 10.9578 7.84899 10.7665 7.56211V7.56211C10.6197 7.3418 10.3435 7.24705 10.0923 7.33078L7.79675 8.09598" stroke="#191B1C" stroke-width="0.75" stroke-linecap="round" stroke-linejoin="round"/>
<path d="M5.98214 8.70034L7.53615 8.25634C7.84971 8.16675 8.03575 7.84465 7.95665 7.52828L7.92843 7.41539C7.85328 7.11478 7.56304 6.91962 7.2563 6.96345L5.82111 7.16847C5.72818 7.18175 5.63344 7.1732 5.54438 7.14352L4.92938 6.93852C4.27753 6.72124 3.55888 6.89089 3.07302 7.37674L2.05176 8.39801" stroke="#191B1C" stroke-width="0.75" stroke-linecap="round" stroke-linejoin="round"/>
<path d="M4.02012 10.3867L2.08008 8.30615L1.16199 9.16234L3.10203 11.2429L4.02012 10.3867Z" stroke="#191B1C" stroke-width="0.75" stroke-linecap="round" stroke-linejoin="round"/>
<path opacity="0.2" d="M3.99503 5.79761L9.24614 4.10029C9.7023 3.95177 9.91446 3.43196 9.68638 3.00763C9.51135 2.67877 9.12945 2.52495 8.77407 2.63634L7.24648 3.12963C7.20404 3.14554 7.16161 3.12963 7.12979 3.10311L4.94448 0.912493C4.89674 0.864756 4.83309 0.848844 4.76944 0.87006L4.13294 1.06631C4.03216 1.09814 3.98443 1.20953 4.02686 1.305L5.17256 3.66004C5.20438 3.72369 5.17256 3.79795 5.1036 3.81917L4.18598 4.13741C4.14886 4.14802 4.11173 4.13741 4.0799 4.1162L3.22063 3.38953C3.14107 3.32588 3.02968 3.30997 2.93421 3.3471L2.32423 3.68656C2.21815 3.729 2.18632 3.8669 2.25528 3.95707L3.68209 5.69683C3.75635 5.787 3.87834 5.82413 3.99503 5.787V5.79761Z" fill="white"/>
<path d="M3.99503 5.79761L9.24614 4.10029C9.7023 3.95177 9.91446 3.43196 9.68638 3.00763C9.51135 2.67877 9.12945 2.52495 8.77407 2.63634L7.24648 3.12963C7.20404 3.14554 7.16161 3.12963 7.12979 3.10311L4.94448 0.912493C4.89674 0.864756 4.83309 0.848844 4.76944 0.87006L4.13294 1.06631C4.03216 1.09814 3.98443 1.20953 4.02686 1.305L5.17256 3.66004C5.20438 3.72369 5.17256 3.79795 5.1036 3.81917L4.18598 4.13741C4.14886 4.14802 4.11173 4.13741 4.0799 4.1162L3.22063 3.38953C3.14107 3.32588 3.02968 3.30997 2.93421 3.3471L2.32423 3.68656C2.21815 3.729 2.18632 3.8669 2.25528 3.95707L3.68209 5.69683C3.75635 5.787 3.87834 5.82413 3.99503 5.787V5.79761Z" fill="white" stroke="#191B1C" stroke-width="0.75" stroke-linecap="round" stroke-linejoin="round"/>
</g>
<defs>
<clipPath id="clip0_1820_11879">
<rect width="12" height="12" fill="white"/>
</clipPath>
</defs>
</svg>
