<svg width="12" height="12" viewBox="0 0 12 12" fill="none" xmlns="http://www.w3.org/2000/svg">
<g clip-path="url(#clip0_1820_11905)">
<path d="M3.94727 10.3067C3.94727 10.3067 6.28506 10.3067 7.03586 10.2408C7.60045 9.99516 9.57722 8.93287 10.5596 8.40111C10.8628 8.23698 10.9578 7.8485 10.7665 7.56162V7.56162C10.6197 7.34131 10.3435 7.24656 10.0923 7.33029L7.79675 8.09549" stroke="#191B1C" stroke-width="0.75" stroke-linecap="round" stroke-linejoin="round"/>
<path d="M5.98214 8.70034L7.53615 8.25634C7.84971 8.16675 8.03575 7.84465 7.95665 7.52828L7.92843 7.41539C7.85328 7.11478 7.56304 6.91962 7.2563 6.96345L5.82111 7.16847C5.72818 7.18175 5.63344 7.1732 5.54438 7.14352L4.92938 6.93852C4.27753 6.72124 3.55888 6.89089 3.07302 7.37674L2.05176 8.39801" stroke="#191B1C" stroke-width="0.75" stroke-linecap="round" stroke-linejoin="round"/>
<path d="M4.02012 10.3862L2.08008 8.30566L1.16199 9.16185L3.10203 11.2424L4.02012 10.3862Z" stroke="#191B1C" stroke-width="0.75" stroke-linecap="round" stroke-linejoin="round"/>
<path d="M9.26744 3.00763C9.0924 2.67877 8.7105 2.52495 8.35512 2.63634L6.82753 3.12963C6.7851 3.14554 6.74266 3.12963 6.71084 3.10311L4.52553 0.912493C4.47779 0.864756 4.41414 0.848844 4.35049 0.87006L3.714 1.06631C3.61322 1.09814 3.56548 1.20953 3.60791 1.305L4.75361 3.66004C4.78543 3.72369 4.75361 3.79795 4.68466 3.81917L3.76704 4.13741C3.72991 4.14802 3.69278 4.13741 3.66096 4.1162L2.80168 3.38953C2.72212 3.32588 2.61073 3.30997 2.51526 3.3471L1.90528 3.68656C1.7992 3.729 1.76738 3.8669 1.83633 3.95707L3.26314 5.69683C3.3374 5.787 3.4594 5.82413 3.57609 5.787V5.79761L6.20164 4.94895L6.85803 4.73678" stroke="#191B1C" stroke-width="0.75" stroke-linecap="round" stroke-linejoin="round"/>
<path d="M9.11957 6.7201C9.98113 6.7201 10.6796 6.02166 10.6796 5.1601C10.6796 4.29853 9.98113 3.6001 9.11957 3.6001C8.25801 3.6001 7.55957 4.29853 7.55957 5.1601C7.55957 6.02166 8.25801 6.7201 9.11957 6.7201Z" fill="#191B1C"/>
<path d="M8.5926 6.02225H8.21973L8.90378 4.08008H9.33299L10.0197 6.02225H9.64685L9.48456 5.54208H8.75356L8.5926 6.02225ZM8.84745 5.26041H9.39067L9.12643 4.4771H9.11034L8.84745 5.26041Z" fill="white"/>
</g>
<defs>
<clipPath id="clip0_1820_11905">
<rect width="12" height="12" fill="white"/>
</clipPath>
</defs>
</svg>
