<?xml version="1.0" encoding="utf-8"?>
<!-- Generator: Adobe Illustrator 25.4.8, SVG Export Plug-In . SVG Version: 6.00 Build 0)  -->
<svg version="1.1" id="레이어_1" xmlns="http://www.w3.org/2000/svg" xmlns:xlink="http://www.w3.org/1999/xlink" x="0px"
	 y="0px" viewBox="0 0 20 20" style="enable-background:new 0 0 20 20;" xml:space="preserve">
<style type="text/css">
	.st0{fill:#CCCCCC;enable-background:new    ;}
	.st1{fill:none;stroke:#000000;stroke-width:1.25;stroke-linecap:round;stroke-linejoin:round;}
</style>
<g>
	<path d="M8.8,8.4C8.6,8.3,8.4,8.1,8.3,7.9L7.1,5c-0.1-0.2,0-0.5,0.1-0.6C7.3,4.1,7.5,4,7.7,4l0.9-0.2c0.4,0,0.7,0.1,0.8,0.4
		l0.7,1.2l0.8,0l-0.4-3.3c0-0.2,0-0.4,0.2-0.6c0.1-0.1,0.3-0.2,0.5-0.2l0.9,0c0.3,0,0.5,0.1,0.6,0.4l1.9,3.7l2.1,0
		c0.7,0,1.4,0.5,1.5,1.3c0.1,0.4,0,0.9-0.3,1.3c-0.3,0.3-0.7,0.5-1.2,0.5l-7.7,0C9,8.4,9,8.4,8.8,8.4C8.9,8.4,8.8,8.4,8.8,8.4z
		 M8.1,4.9l1,2.7l7.6,0c0.2,0,0.4-0.1,0.5-0.2c0.1-0.1,0.2-0.3,0.1-0.5c-0.1-0.3-0.3-0.5-0.6-0.5l-2.2,0c-0.2,0-0.4-0.1-0.5-0.3
		l-1.9-3.8l-0.5,0L12,5.6c0,0.2,0,0.4-0.1,0.5c-0.1,0.1-0.3,0.2-0.5,0.2l-1.3,0c-0.2,0-0.4-0.1-0.5-0.2L8.7,4.7L8.1,4.9z M7.9,4.9
		L7.9,4.9C7.9,4.9,7.9,4.9,7.9,4.9z M11.1,5.7C11.1,5.7,11.1,5.7,11.1,5.7L11.1,5.7z M11.4,5.4C11.4,5.4,11.4,5.4,11.4,5.4L11.4,5.4
		z M14.5,5.4C14.5,5.4,14.5,5.4,14.5,5.4L14.5,5.4z M12.2,2.3L12.2,2.3C12.2,2.3,12.2,2.3,12.2,2.3z M12,2.1C12,2.1,12,2.1,12,2.1
		L12,2.1z"/>
</g>
<g>
	<path class="st0" d="M3.5,16.4l12.6,0.1c1.1,0,1.9-1,1.7-2.1c-0.1-0.8-0.9-1.4-1.7-1.5l-3.7,0c-0.1,0-0.2-0.1-0.2-0.1L9,6.5
		C9,6.3,8.8,6.3,8.7,6.3l-1.5,0c-0.2,0-0.4,0.2-0.4,0.4l0.8,5.9c0,0.2-0.1,0.3-0.3,0.3l-2.2,0c-0.1,0-0.2-0.1-0.2-0.1l-1.3-2.2
		c-0.1-0.2-0.4-0.3-0.6-0.3l-1.6,0.3c-0.3,0-0.4,0.3-0.3,0.5L2.9,16C3,16.2,3.2,16.4,3.5,16.4L3.5,16.4z"/>
	<path class="st1" d="M3.5,16.4l12.6,0.1c1.1,0,1.9-1,1.7-2.1c-0.1-0.8-0.9-1.4-1.7-1.5l-3.7,0c-0.1,0-0.2-0.1-0.2-0.1L9,6.5
		C9,6.3,8.8,6.3,8.7,6.3l-1.5,0c-0.2,0-0.4,0.2-0.4,0.4l0.8,5.9c0,0.2-0.1,0.3-0.3,0.3l-2.2,0c-0.1,0-0.2-0.1-0.2-0.1l-1.3-2.2
		c-0.1-0.2-0.4-0.3-0.6-0.3l-1.6,0.3c-0.3,0-0.4,0.3-0.3,0.5L2.9,16C3,16.2,3.2,16.4,3.5,16.4L3.5,16.4z"/>
</g>
</svg>
