<svg width="12" height="12" viewBox="0 0 12 12" fill="none" xmlns="http://www.w3.org/2000/svg">
<g clip-path="url(#clip0_1820_11889)">
<path d="M3.94727 10.3072C3.94727 10.3072 6.28506 10.3072 7.03586 10.2413C7.60045 9.99564 9.57722 8.93336 10.5596 8.4016C10.8628 8.23747 10.9578 7.84899 10.7665 7.56211V7.56211C10.6197 7.3418 10.3435 7.24705 10.0923 7.33078L7.79675 8.09598" stroke="#191B1C" stroke-width="0.75" stroke-linecap="round" stroke-linejoin="round"/>
<path d="M5.98214 8.70034L7.53615 8.25634C7.84971 8.16675 8.03575 7.84465 7.95665 7.52828L7.92843 7.41539C7.85328 7.11478 7.56304 6.91962 7.2563 6.96345L5.82111 7.16847C5.72818 7.18175 5.63344 7.1732 5.54438 7.14352L4.92938 6.93852C4.27753 6.72124 3.55888 6.89089 3.07302 7.37674L2.05176 8.39801" stroke="#191B1C" stroke-width="0.75" stroke-linecap="round" stroke-linejoin="round"/>
<path d="M4.02012 10.3867L2.08008 8.30615L1.16199 9.16234L3.10203 11.2429L4.02012 10.3867Z" stroke="#191B1C" stroke-width="0.75" stroke-linecap="round" stroke-linejoin="round"/>
<path d="M9.26744 3.00763C9.0924 2.67877 8.7105 2.52495 8.35512 2.63634L6.82753 3.12963C6.7851 3.14554 6.74266 3.12963 6.71084 3.10311L4.52553 0.912493C4.47779 0.864756 4.41414 0.848844 4.35049 0.87006L3.714 1.06631C3.61322 1.09814 3.56548 1.20953 3.60791 1.305L4.75361 3.66004C4.78543 3.72369 4.75361 3.79795 4.68466 3.81917L3.76704 4.13741C3.72991 4.14802 3.69278 4.13741 3.66096 4.1162L2.80168 3.38953C2.72212 3.32588 2.61073 3.30997 2.51526 3.3471L1.90528 3.68656C1.7992 3.729 1.76738 3.8669 1.83633 3.95707L3.26314 5.69683C3.3374 5.787 3.4594 5.82413 3.57609 5.787V5.79761L6.20164 4.94895L6.85803 4.73678" stroke="#191B1C" stroke-width="0.75" stroke-linecap="round" stroke-linejoin="round"/>
<path d="M8.93652 5.84229C9.35074 5.84229 9.68652 5.5065 9.68652 5.09229C9.68652 4.67807 9.35074 4.34229 8.93652 4.34229C8.52231 4.34229 8.18652 4.67807 8.18652 5.09229C8.18652 5.5065 8.52231 5.84229 8.93652 5.84229Z" stroke="#191B1C" stroke-width="0.6" stroke-linecap="round" stroke-linejoin="round"/>
<path d="M8.93652 4.34229V3.77979" stroke="#191B1C" stroke-width="0.6" stroke-linecap="round" stroke-linejoin="round"/>
<path d="M8.28694 4.71729L7.7998 4.43604" stroke="#191B1C" stroke-width="0.6" stroke-linecap="round" stroke-linejoin="round"/>
<path d="M8.28694 5.46729L7.7998 5.74854" stroke="#191B1C" stroke-width="0.6" stroke-linecap="round" stroke-linejoin="round"/>
<path d="M8.93652 5.84229V6.40479" stroke="#191B1C" stroke-width="0.6" stroke-linecap="round" stroke-linejoin="round"/>
<path d="M9.58691 5.46729L10.0741 5.74854" stroke="#191B1C" stroke-width="0.6" stroke-linecap="round" stroke-linejoin="round"/>
<path d="M9.58691 4.71729L10.0741 4.43604" stroke="#191B1C" stroke-width="0.6" stroke-linecap="round" stroke-linejoin="round"/>
</g>
<defs>
<clipPath id="clip0_1820_11889">
<rect width="12" height="12" fill="white"/>
</clipPath>
</defs>
</svg>
