<svg width="12" height="12" viewBox="0 0 12 12" fill="none" xmlns="http://www.w3.org/2000/svg">
<rect x="2.39941" y="1.94971" width="7.2" height="8.4" rx="0.3" stroke="#191B1C" stroke-width="0.75" stroke-linejoin="round"/>
<rect x="3.59961" y="1.19971" width="4.8" height="1.5" rx="0.6" fill="#191B1C"/>
<path d="M4.02051 4.34961H7.98051" stroke="#191B1C" stroke-width="0.75" stroke-linecap="round"/>
<path d="M4.02051 6.14941H7.98051" stroke="#191B1C" stroke-width="0.75" stroke-linecap="round"/>
<path d="M4.02051 7.94971H5.22051" stroke="#191B1C" stroke-width="0.75" stroke-linecap="round"/>
<path d="M6.35053 11.2996L10.9348 9.81783C11.3331 9.68818 11.5183 9.23438 11.3192 8.86393C11.1664 8.57683 10.833 8.44254 10.5227 8.53979L9.18909 8.97043C9.15205 8.98432 9.115 8.97043 9.08722 8.94728L7.17941 7.03484C7.13773 6.99317 7.08217 6.97927 7.0266 6.9978L6.47093 7.16913C6.38294 7.19691 6.34127 7.29415 6.37831 7.37751L7.37852 9.43349C7.40631 9.48906 7.37852 9.55389 7.31833 9.57241L6.51723 9.85025C6.48482 9.85951 6.4524 9.85025 6.42462 9.83173L5.67446 9.19733C5.605 9.14177 5.50776 9.12787 5.42441 9.16029L4.89189 9.45665C4.79928 9.49369 4.77149 9.61409 4.83169 9.69281L6.07732 11.2116C6.14215 11.2904 6.24866 11.3228 6.35053 11.2904V11.2996Z" fill="white"/>
<path d="M6.35053 11.2996L10.9348 9.81783C11.3331 9.68818 11.5183 9.23438 11.3192 8.86393C11.1664 8.57683 10.833 8.44254 10.5227 8.53979L9.18909 8.97043C9.15205 8.98432 9.115 8.97043 9.08722 8.94728L7.17941 7.03484C7.13773 6.99317 7.08217 6.97927 7.0266 6.9978L6.47093 7.16913C6.38294 7.19691 6.34127 7.29415 6.37831 7.37751L7.37852 9.43349C7.40631 9.48906 7.37852 9.55389 7.31833 9.57241L6.51723 9.85025C6.48482 9.85951 6.4524 9.85025 6.42462 9.83173L5.67446 9.19733C5.605 9.14177 5.50776 9.12787 5.42441 9.16029L4.89189 9.45665C4.79928 9.49369 4.77149 9.61409 4.83169 9.69281L6.07732 11.2116C6.14215 11.2904 6.24866 11.3228 6.35053 11.2904V11.2996Z" fill="white" stroke="#191B1C" stroke-width="0.75" stroke-linecap="round" stroke-linejoin="round"/>
</svg>
