<svg width="21" height="20" viewBox="0 0 21 20" fill="none" xmlns="http://www.w3.org/2000/svg">
<path d="M17.375 16.8752V9.02667C17.375 8.93959 17.3568 8.85347 17.3216 8.77383C17.2863 8.69419 17.2349 8.62279 17.1704 8.56421L10.92 2.88178C10.8049 2.77719 10.655 2.71923 10.4995 2.71924C10.3441 2.71924 10.1942 2.77721 10.0791 2.88181L3.82954 8.56422C3.76511 8.6228 3.71364 8.69419 3.67842 8.77382C3.64319 8.85345 3.625 8.93957 3.625 9.02664V16.8752" stroke="#191B1C" stroke-width="1.25" stroke-linecap="round" stroke-linejoin="round"/>
<path d="M1.75 16.875H19.25" stroke="#191B1C" stroke-width="1.25" stroke-linecap="round" stroke-linejoin="round"/>
<path d="M12.3745 16.8745V12.4995C12.3745 12.3338 12.3087 12.1748 12.1915 12.0576C12.0742 11.9404 11.9153 11.8745 11.7495 11.8745H9.24951C9.08375 11.8745 8.92478 11.9404 8.80757 12.0576C8.69036 12.1748 8.62451 12.3338 8.62451 12.4995V16.8745" stroke="#191B1C" stroke-width="1.25" stroke-linecap="round" stroke-linejoin="round"/>
</svg>
