<?xml version="1.0" encoding="utf-8"?>
<!-- Generator: Adobe Illustrator 25.4.8, SVG Export Plug-In . SVG Version: 6.00 Build 0)  -->
<svg version="1.1" id="레이어_1" xmlns="http://www.w3.org/2000/svg" xmlns:xlink="http://www.w3.org/1999/xlink" x="0px"
	 y="0px" viewBox="0 0 64 60.2" style="enable-background:new 0 0 64 60.2;" xml:space="preserve">
<style type="text/css">
	.st0{fill:#FFFFFF;stroke:#202020;stroke-width:2;stroke-linecap:round;stroke-linejoin:round;}
	.st1{fill:none;stroke:#202020;stroke-width:2;stroke-linecap:round;stroke-linejoin:round;}
	.st2{fill:#371C1D;}
	.st3{clip-path:url(#SVGID_00000173857444354162590160000003101179149861746065_);fill:#F9E000;}
	.st4{clip-path:url(#SVGID_00000144335342594184874270000012553531030111467443_);fill:#F9E000;}
	.st5{clip-path:url(#SVGID_00000010286103168654228650000011342237423160922781_);fill:#F9E000;}
	.st6{clip-path:url(#SVGID_00000116935254638010881940000011955474611911927725_);fill:#F9E000;}
</style>
<g>
	<path class="st0" d="M40.1,30.5c1.2-0.5,2.5,0,3,1.2l2.9,5.8c0.2-0.6,0.6-1.1,1.2-1.3c1.1-0.5,2.3-0.1,2.9,0.9
		c0.1-0.7,0.6-1.3,1.3-1.6c1.1-0.5,2.3-0.1,2.9,0.9c0.1-0.7,0.6-1.3,1.3-1.6c1.2-0.5,2.6,0,3,1.2l3.3,8.7c1.6,4.3-1.2,7.6-4.8,9.5
		c-2.3,1.2-4.6,2.3-7.2,0.7l-11.3-7.1c-1.1-0.7-1.4-2.1-0.7-3.2c1.1-0.5,3.5-0.5,4.5,0.2l2.1,1.4L39,33.5C38.4,32.3,39,31,40.1,30.5
		L40.1,30.5z"/>
	<path class="st1" d="M17.8,47.1v7.2c0,2.1,1.7,3.8,3.8,3.8h7.8"/>
	<path class="st1" d="M47.4,29.6V6.2c0-2.1-1.7-3.8-3.8-3.8h-22c-2.1,0-3.8,1.7-3.8,3.8V12"/>
	<path class="st1" d="M30.8,53.9h3.7"/>
	<path class="st1" d="M29.6,6.2h6"/>
	<path class="st1" d="M45.8,57.4c-0.6,0.5-1.4,0.7-2.2,0.7H29.4"/>
	<g>
		<path class="st2" d="M18,16.3c-9.5,0-17.1,6.1-17.1,13.6c0,4.9,3.3,9.1,8.1,11.5c-0.4,1.3-1.3,4.8-1.5,5.6
			c-0.2,0.9,0.3,0.9,0.7,0.7c0.3-0.2,4.7-3.2,6.6-4.5c1,0.2,2.1,0.2,3.2,0.2c9.5,0,17.1-6.1,17.1-13.5C35.2,22.3,27.5,16.3,18,16.3"
			/>
		<g>
			<g>
				<g>
					<defs>
						<path id="SVGID_1_" d="M6.1,27.3h1.8c0,0,0,4.8,0,6c0,0.8,1.8,0.8,1.8,0l0-5.9c0,0,0.6,0,1.8,0c1.1,0,1.1-1.7,0-1.7
							c-1.2,0-5.4,0-5.4,0C5.1,25.6,5.1,27.3,6.1,27.3"/>
					</defs>
					<clipPath id="SVGID_00000090982632321655573860000018410668637959432067_">
						<use xlink:href="#SVGID_1_"  style="overflow:visible;"/>
					</clipPath>
				</g>
				<g>
					<defs>
						<path id="SVGID_00000009573344880460479010000017850438602906485408_" d="M6.1,27.3h1.8c0,0,0,4.8,0,6c0,0.8,1.8,0.8,1.8,0
							l0-5.9c0,0,0.6,0,1.8,0c1.1,0,1.1-1.7,0-1.7c-1.2,0-5.4,0-5.4,0C5.1,25.6,5.1,27.3,6.1,27.3"/>
					</defs>
					<use xlink:href="#SVGID_00000009573344880460479010000017850438602906485408_"  style="overflow:visible;fill:#F9E000;"/>
					<clipPath id="SVGID_00000060026409518878727820000000810797433733659308_">
						<use xlink:href="#SVGID_00000009573344880460479010000017850438602906485408_"  style="overflow:visible;"/>
					</clipPath>
					
						<rect x="5.1" y="25.6" style="clip-path:url(#SVGID_00000060026409518878727820000000810797433733659308_);fill:#F9E000;" width="7.5" height="8.5"/>
				</g>
				<g>
					<defs>
						<path id="SVGID_00000038386562688559325960000010856776981796944282_" d="M6.1,27.3h1.8c0,0,0,4.8,0,6c0,0.8,1.8,0.8,1.8,0
							l0-5.9c0,0,0.6,0,1.8,0c1.1,0,1.1-1.7,0-1.7c-1.2,0-5.4,0-5.4,0C5.1,25.6,5.1,27.3,6.1,27.3"/>
					</defs>
					<clipPath id="SVGID_00000115504609562116401530000002492665507130555010_">
						<use xlink:href="#SVGID_00000038386562688559325960000010856776981796944282_"  style="overflow:visible;"/>
					</clipPath>
				</g>
			</g>
			<g>
				<g>
					<defs>
						<path id="SVGID_00000059290660883361387340000008076347801103090615_" d="M14.5,27.6l1,3.1h-2L14.5,27.6z M13.4,26.2
							c-0.4,1-2,5.5-2.5,6.7c-0.4,0.9,1.2,1.6,1.6,0.7l0.4-1.2h3.2c0,0-0.1,0.1,0.3,1.2c0.3,0.9,2,0.3,1.7-0.6
							c-0.5-1.3-2.2-6-2.5-6.7c-0.1-0.3-0.7-0.5-1.2-0.5C14,25.7,13.6,25.8,13.4,26.2"/>
					</defs>
					<clipPath id="SVGID_00000183238318324903337630000008456523755996051379_">
						<use xlink:href="#SVGID_00000059290660883361387340000008076347801103090615_"  style="overflow:visible;"/>
					</clipPath>
				</g>
				<g>
					<defs>
						<path id="SVGID_00000023998703899865212130000013624775463569399722_" d="M14.5,27.6l1,3.1h-2L14.5,27.6z M13.4,26.2
							c-0.4,1-2,5.5-2.5,6.7c-0.4,0.9,1.2,1.6,1.6,0.7l0.4-1.2h3.2c0,0-0.1,0.1,0.3,1.2c0.3,0.9,2,0.3,1.7-0.6
							c-0.5-1.3-2.2-6-2.5-6.7c-0.1-0.3-0.7-0.5-1.2-0.5C14,25.7,13.6,25.8,13.4,26.2"/>
					</defs>
					<use xlink:href="#SVGID_00000023998703899865212130000013624775463569399722_"  style="overflow:visible;fill:#F9E000;"/>
					<clipPath id="SVGID_00000061434319559740656490000015912333100164002692_">
						<use xlink:href="#SVGID_00000023998703899865212130000013624775463569399722_"  style="overflow:visible;"/>
					</clipPath>
					
						<rect x="10.5" y="25.7" style="clip-path:url(#SVGID_00000061434319559740656490000015912333100164002692_);fill:#F9E000;" width="7.9" height="8.8"/>
				</g>
				<g>
					<defs>
						<path id="SVGID_00000166650077131641257780000007748830265115133061_" d="M14.5,27.6l1,3.1h-2L14.5,27.6z M13.4,26.2
							c-0.4,1-2,5.5-2.5,6.7c-0.4,0.9,1.2,1.6,1.6,0.7l0.4-1.2h3.2c0,0-0.1,0.1,0.3,1.2c0.3,0.9,2,0.3,1.7-0.6
							c-0.5-1.3-2.2-6-2.5-6.7c-0.1-0.3-0.7-0.5-1.2-0.5C14,25.7,13.6,25.8,13.4,26.2"/>
					</defs>
					<clipPath id="SVGID_00000061460442558673448370000011223838991363217078_">
						<use xlink:href="#SVGID_00000166650077131641257780000007748830265115133061_"  style="overflow:visible;"/>
					</clipPath>
				</g>
			</g>
			<g>
				<g>
					<defs>
						<path id="SVGID_00000026843008774888219980000002917946008690272915_" d="M18.7,26.5c0,1.5,0,6.5,0,6.5s-0.1,1,0.7,1
							c0.8,0,2.7,0,3.5,0c0.8,0,0.8-1.8,0-1.8c-0.8,0-2.3,0-2.3,0s0-4.6,0-5.7c0-0.5-0.5-0.8-1-0.8C19.2,25.7,18.7,25.9,18.7,26.5"
							/>
					</defs>
					<clipPath id="SVGID_00000145763851593840204450000007112775824500346280_">
						<use xlink:href="#SVGID_00000026843008774888219980000002917946008690272915_"  style="overflow:visible;"/>
					</clipPath>
				</g>
				<g>
					<defs>
						<path id="SVGID_00000137109569917252644610000017992336415770151583_" d="M18.7,26.5c0,1.5,0,6.5,0,6.5s-0.1,1,0.7,1
							c0.8,0,2.7,0,3.5,0c0.8,0,0.8-1.8,0-1.8c-0.8,0-2.3,0-2.3,0s0-4.6,0-5.7c0-0.5-0.5-0.8-1-0.8C19.2,25.7,18.7,25.9,18.7,26.5"
							/>
					</defs>
					<use xlink:href="#SVGID_00000137109569917252644610000017992336415770151583_"  style="overflow:visible;fill:#F9E000;"/>
					<clipPath id="SVGID_00000141437244134703388070000008160670518181416881_">
						<use xlink:href="#SVGID_00000137109569917252644610000017992336415770151583_"  style="overflow:visible;"/>
					</clipPath>
					
						<rect x="18.6" y="25.7" style="clip-path:url(#SVGID_00000141437244134703388070000008160670518181416881_);fill:#F9E000;" width="5.2" height="8.3"/>
				</g>
				<g>
					<defs>
						<path id="SVGID_00000163045559461368404630000006627400527770413723_" d="M18.7,26.5c0,1.5,0,6.5,0,6.5s-0.1,1,0.7,1
							c0.8,0,2.7,0,3.5,0c0.8,0,0.8-1.8,0-1.8c-0.8,0-2.3,0-2.3,0s0-4.6,0-5.7c0-0.5-0.5-0.8-1-0.8C19.2,25.7,18.7,25.9,18.7,26.5"
							/>
					</defs>
					<clipPath id="SVGID_00000176045340093801984550000009464659846514912408_">
						<use xlink:href="#SVGID_00000163045559461368404630000006627400527770413723_"  style="overflow:visible;"/>
					</clipPath>
				</g>
			</g>
			<g>
				<g>
					<defs>
						<path id="SVGID_00000009569442577948846460000005366113029513576601_" d="M24,26.2c0,0.7,0,6.8,0,7.2c0,0.7,1.8,0.7,1.8,0
							c0-0.8,0-2.4,0-2.4l0.5-0.4l2.3,3.2c0.5,0.6,1.9-0.5,1.5-1.1l-2.5-3.3c0,0,1.7-1.8,2.3-2.5c0.4-0.4-0.8-1.6-1.2-1.2
							c-0.4,0.4-3,3-3,3s0-1.7,0-2.6c0-0.3-0.4-0.5-0.9-0.5C24.5,25.7,24,25.9,24,26.2"/>
					</defs>
					<clipPath id="SVGID_00000098920759134235459330000011760456177055283588_">
						<use xlink:href="#SVGID_00000009569442577948846460000005366113029513576601_"  style="overflow:visible;"/>
					</clipPath>
				</g>
				<g>
					<defs>
						<path id="SVGID_00000053535716359182968980000002590050552543655051_" d="M24,26.2c0,0.7,0,6.8,0,7.2c0,0.7,1.8,0.7,1.8,0
							c0-0.8,0-2.4,0-2.4l0.5-0.4l2.3,3.2c0.5,0.6,1.9-0.5,1.5-1.1l-2.5-3.3c0,0,1.7-1.8,2.3-2.5c0.4-0.4-0.8-1.6-1.2-1.2
							c-0.4,0.4-3,3-3,3s0-1.7,0-2.6c0-0.3-0.4-0.5-0.9-0.5C24.5,25.7,24,25.9,24,26.2"/>
					</defs>
					<use xlink:href="#SVGID_00000053535716359182968980000002590050552543655051_"  style="overflow:visible;fill:#F9E000;"/>
					<clipPath id="SVGID_00000049943946110240606270000011279175769936340126_">
						<use xlink:href="#SVGID_00000053535716359182968980000002590050552543655051_"  style="overflow:visible;"/>
					</clipPath>
					
						<rect x="24" y="25.4" style="clip-path:url(#SVGID_00000049943946110240606270000011279175769936340126_);fill:#F9E000;" width="6.6" height="9"/>
				</g>
				<g>
					<defs>
						<path id="SVGID_00000080885093979652169610000002253075436833811853_" d="M24,26.2c0,0.7,0,6.8,0,7.2c0,0.7,1.8,0.7,1.8,0
							c0-0.8,0-2.4,0-2.4l0.5-0.4l2.3,3.2c0.5,0.6,1.9-0.5,1.5-1.1l-2.5-3.3c0,0,1.7-1.8,2.3-2.5c0.4-0.4-0.8-1.6-1.2-1.2
							c-0.4,0.4-3,3-3,3s0-1.7,0-2.6c0-0.3-0.4-0.5-0.9-0.5C24.5,25.7,24,25.9,24,26.2"/>
					</defs>
					<clipPath id="SVGID_00000049934094327463304410000006060136752177859472_">
						<use xlink:href="#SVGID_00000080885093979652169610000002253075436833811853_"  style="overflow:visible;"/>
					</clipPath>
				</g>
			</g>
		</g>
	</g>
</g>
</svg>
