<svg width="80" height="80" viewBox="0 0 80 80" fill="none" xmlns="http://www.w3.org/2000/svg">
<path d="M5.7959 25.7437H45.7914V42.756H5.7959V25.7437Z" fill="#E5EBFC" stroke="#0043E1" stroke-width="2" stroke-linecap="round" stroke-linejoin="round"/>
<path d="M13.9322 30.735L13.1998 38.6163M16.5115 36.642L10.6284 32.7013M10.2622 36.642L16.8857 32.7013M21.893 38.6163L23.5011 30.735M25.778 38.6163L27.3861 30.735M20.1417 33.0357H29.6071M20.0063 36.3156H29.4718M41.3335 29.5488L40.8081 35.1294M40.4658 38.3774C40.4499 38.5367 40.4499 38.4491 40.4499 38.6242M36.2863 38.3774C36.2624 38.5367 36.2704 38.4491 36.2545 38.6242M32.4094 38.3774C32.3855 38.5367 32.3934 38.4491 32.3775 38.6242" stroke="#0043E1" stroke-width="2" stroke-linecap="round" stroke-linejoin="round"/>
<path d="M51.8261 39.8343C52.9804 39.3168 54.3099 39.8661 54.8672 40.9965L57.7172 46.8C57.9242 46.2268 58.354 45.7412 58.9431 45.4785C60.0019 45.0088 61.2279 45.3989 61.825 46.3542C61.9683 45.6537 62.438 45.0327 63.1385 44.7143C64.1894 44.2446 65.4233 44.6347 66.0204 45.59C66.1637 44.8894 66.6334 44.2685 67.3339 43.95C68.4882 43.4326 69.9212 43.9341 70.375 45.1123L73.7185 53.8136C75.3664 58.1124 72.4687 61.456 68.8783 63.279C66.5537 64.4573 64.2292 65.6036 61.6578 63.9398L50.4011 56.7989C49.3344 56.1063 49.0318 54.6733 49.7244 53.6145C50.8708 53.105 53.1954 53.113 54.2621 53.8136L56.4116 55.2067L50.6559 42.8753C50.1225 41.7289 50.6638 40.3517 51.8182 39.8343H51.8261Z" fill="white" stroke="#202020" stroke-width="2" stroke-linecap="round" stroke-linejoin="round"/>
<path d="M29.4956 47.6758V63.701C29.4956 65.8027 31.2152 67.5223 33.3168 67.5223H41.1503" stroke="#202020" stroke-width="2" stroke-linecap="round" stroke-linejoin="round"/>
<path d="M59.134 39.0223V15.6174C59.134 13.5237 57.4064 11.7961 55.3127 11.7961H33.3168C31.2152 11.7961 29.4956 13.5157 29.4956 15.6174V21.4049" stroke="#202020" stroke-width="2" stroke-linecap="round" stroke-linejoin="round"/>
<path d="M42.48 63.2393H46.142" stroke="#202020" stroke-width="2" stroke-linecap="round" stroke-linejoin="round"/>
<path d="M41.3257 15.6252H47.2963" stroke="#202020" stroke-width="2" stroke-linecap="round" stroke-linejoin="round"/>
<path d="M57.4703 66.8057C56.8413 67.2594 56.0771 67.5221 55.2571 67.5221H41.0947" stroke="#202020" stroke-width="2" stroke-linecap="round" stroke-linejoin="round"/>
</svg>
