<svg width="21" height="20" viewBox="0 0 21 20" fill="none" xmlns="http://www.w3.org/2000/svg">
<path d="M7.77886 9.59616C7.29706 8.39441 7.24497 7.06317 7.63139 5.82746C8.01781 4.59175 8.81905 3.52735 9.89965 2.81419C10.9803 2.10103 12.274 1.78285 13.5621 1.91343C14.8502 2.04401 16.0537 2.61534 16.9693 3.53085C17.8848 4.44636 18.4561 5.64989 18.5867 6.93802C18.7172 8.22614 18.3991 9.51984 17.6859 10.6005C16.9727 11.6811 15.9083 12.4823 14.6726 12.8687C13.4369 13.2551 12.1057 13.203 10.9039 12.7212L10.904 12.7211L9.87524 13.7498H8.00024V15.6248H6.12524V17.4998H3.00024V14.3748L7.77899 9.59609L7.77886 9.59616Z" stroke="#191B1C" stroke-width="1.25" stroke-linecap="round" stroke-linejoin="round"/>
<path opacity="0.5" d="M14.5625 6.25C14.7351 6.25 14.875 6.11009 14.875 5.9375C14.875 5.76491 14.7351 5.625 14.5625 5.625C14.3899 5.625 14.25 5.76491 14.25 5.9375C14.25 6.11009 14.3899 6.25 14.5625 6.25Z" stroke="#191B1C" stroke-width="1.25" stroke-linecap="round" stroke-linejoin="round"/>
<path d="M14.5625 6.875C15.0803 6.875 15.5 6.45527 15.5 5.9375C15.5 5.41973 15.0803 5 14.5625 5C14.0447 5 13.625 5.41973 13.625 5.9375C13.625 6.45527 14.0447 6.875 14.5625 6.875Z" fill="#191B1C"/>
</svg>
