<svg width="21" height="20" viewBox="0 0 21 20" fill="none" xmlns="http://www.w3.org/2000/svg">
<path d="M3.625 13.75V5.625C3.625 5.29348 3.7567 4.97554 3.99112 4.74112C4.22554 4.5067 4.54348 4.375 4.875 4.375H16.125C16.4565 4.375 16.7745 4.5067 17.0089 4.74112C17.2433 4.97554 17.375 5.29348 17.375 5.625V13.75" stroke="#191B1C" stroke-width="1.25" stroke-linecap="round" stroke-linejoin="round"/>
<path d="M2.375 13.75H18.625V15C18.625 15.3315 18.4933 15.6495 18.2589 15.8839C18.0245 16.1183 17.7065 16.25 17.375 16.25H3.625C3.29348 16.25 2.97554 16.1183 2.74112 15.8839C2.5067 15.6495 2.375 15.3315 2.375 15V13.75Z" stroke="#191B1C" stroke-width="1.25" stroke-linecap="round" stroke-linejoin="round"/>
<path d="M11.75 6.875H9.25" stroke="#191B1C" stroke-width="1.25" stroke-linecap="round" stroke-linejoin="round"/>
</svg>
