<svg width="20" height="20" viewBox="0 0 20 20" fill="none" xmlns="http://www.w3.org/2000/svg">
<rect x="4" y="3" width="12" height="14" rx="0.5" stroke="#191B1C" stroke-width="1.25" stroke-linejoin="round"/>
<path d="M6.60059 9.59961H13.8006" stroke="#191B1C" stroke-width="1.25" stroke-linecap="round"/>
<path d="M6.60059 11.9995H13.8006" stroke="#191B1C" stroke-width="1.25" stroke-linecap="round"/>
<path d="M6.60059 14.3994H10.8359" stroke="#191B1C" stroke-width="1.25" stroke-linecap="round"/>
<path d="M13.1959 5.99244C13.1438 5.78435 12.9698 5.66429 12.7156 5.66429C12.3115 5.66429 12.0754 5.96643 12.0754 6.48466C12.0754 7.00489 12.2955 7.31103 12.7116 7.31303C13.0718 7.31103 13.2599 7.14095 13.2639 6.87283H12.7277V6.32859H14.0002V6.72477C14.0002 7.51312 13.46 7.97732 12.7036 7.97732C11.8633 7.97732 11.293 7.41107 11.291 6.49266C11.293 5.54024 11.9193 5 12.6996 5C13.3799 5 13.9042 5.41218 13.9682 5.99244H13.1959Z" fill="#191B1C"/>
<path d="M10.939 6.48866C10.939 7.45309 10.3208 7.97732 9.53841 7.97732C8.74806 7.97732 8.13579 7.44709 8.13379 6.48866C8.13579 5.52423 8.74806 5 9.53841 5C10.3208 5 10.939 5.52423 10.939 6.48866ZM8.91814 6.48866C8.91814 7.0209 9.13824 7.31103 9.53841 7.31303C9.93459 7.31103 10.1567 7.0209 10.1547 6.48866C10.1567 5.95442 9.93459 5.66429 9.53841 5.66429C9.13824 5.66429 8.91814 5.95442 8.91814 6.48866Z" fill="#191B1C"/>
<path d="M6 7.93733V5.04004H6.76034V7.32105H7.94086V7.93733H6Z" fill="#191B1C"/>
</svg>
