<?xml version="1.0" encoding="utf-8"?>
<!-- Generator: Adobe Illustrator 25.4.8, SVG Export Plug-In . SVG Version: 6.00 Build 0)  -->
<svg version="1.1" id="레이어_1" xmlns="http://www.w3.org/2000/svg" xmlns:xlink="http://www.w3.org/1999/xlink" x="0px"
	 y="0px" viewBox="0 0 16 17" style="enable-background:new 0 0 16 17;" xml:space="preserve">
<style type="text/css">
	.st0{fill:#626C70;}
</style>
<g>
	<g>
		<path class="st0" d="M11.6,12.4c-0.2,0-0.3-0.1-0.4-0.2c-0.2-0.2-0.2-0.6,0-0.9L14,8.5l-2.8-2.8c-0.2-0.2-0.2-0.6,0-0.9
			s0.6-0.2,0.9,0l3.3,3.3c0.2,0.2,0.2,0.6,0,0.9L12,12.2C11.9,12.3,11.8,12.4,11.6,12.4z"/>
	</g>
	<g>
		<path class="st0" d="M14.9,9.1H6.1c-0.3,0-0.6-0.3-0.6-0.6s0.3-0.6,0.6-0.6h8.7c0.3,0,0.6,0.3,0.6,0.6S15.2,9.1,14.9,9.1z"/>
	</g>
	<g>
		<path class="st0" d="M6.1,16H1.8c-0.3,0-0.6-0.1-0.9-0.4c-0.2-0.2-0.4-0.5-0.4-0.9V2.2c0-0.3,0.1-0.7,0.4-0.9C1.1,1.1,1.4,1,1.8,1
			h4.4c0.3,0,0.6,0.3,0.6,0.6S6.5,2.2,6.1,2.2H1.8v12.5h4.4c0.3,0,0.6,0.3,0.6,0.6S6.5,16,6.1,16z"/>
	</g>
</g>
</svg>
