<svg width="24" height="24" viewBox="0 0 24 24" fill="none" xmlns="http://www.w3.org/2000/svg">
<path d="M13 8C13 5.24 10.54 3 7.5 3C4.46 3 2 5.24 2 8H4L5 7L6 8H10" stroke="white" stroke-width="2" stroke-linecap="round" stroke-linejoin="round"/>
<path d="M13 7.14014C14.0126 6.39149 15.2407 5.99147 16.5 6.00014C19.54 6.00014 22 8.24014 22 11.0001H19L18 10.0001L17 11.0001H14" stroke="white" stroke-width="2" stroke-linecap="round" stroke-linejoin="round"/>
<path d="M5.89 9.70997C3.74 11.86 3.59 15.18 5.54 17.14L9.78 12.89L10.48 12.19L11.19 11.48L13.31 9.35997C11.36 7.39997 8.04 7.55997 5.89 9.70997V9.70997Z" stroke="white" stroke-width="2" stroke-linecap="round" stroke-linejoin="round"/>
<path d="M11 15.5C11.5 18 10.83 20 10 22H14C16 16.5 13.5 10 13 8" stroke="white" stroke-width="2" stroke-linecap="round" stroke-linejoin="round"/>
</svg>
