<?xml version="1.0" encoding="utf-8"?>
<!-- Generator: Adobe Illustrator 25.4.8, SVG Export Plug-In . SVG Version: 6.00 Build 0)  -->
<svg version="1.1" id="레이어_1" xmlns="http://www.w3.org/2000/svg" xmlns:xlink="http://www.w3.org/1999/xlink" x="0px"
	 y="0px" viewBox="0 0 20 20" style="enable-background:new 0 0 20 20;" xml:space="preserve">
<style type="text/css">
	.st0{fill:#0043E1;}
</style>
<g>
	<g>
		<path class="st0" d="M10,11.7c-2.6,0-4.8-2.1-4.8-4.8S7.4,2.2,10,2.2s4.8,2.1,4.8,4.8S12.6,11.7,10,11.7z M10,3.7
			c-1.8,0-3.2,1.5-3.2,3.2s1.5,3.2,3.2,3.2s3.2-1.5,3.2-3.2S11.8,3.7,10,3.7z"/>
	</g>
	<g>
		<path class="st0" d="M19,3.6h-4c-0.3,0-0.6-0.3-0.6-0.6s0.3-0.6,0.6-0.6h4c0.3,0,0.6,0.3,0.6,0.6S19.3,3.6,19,3.6z"/>
	</g>
	<g>
		<path class="st0" d="M17,5.6c-0.3,0-0.6-0.3-0.6-0.6v-4c0-0.3,0.3-0.6,0.6-0.6s0.6,0.3,0.6,0.6v4C17.6,5.3,17.3,5.6,17,5.6z"/>
	</g>
	<g>
		<path class="st0" d="M19,19.7H1c-0.4,0-0.8-0.3-0.8-0.8v-0.1c0-1.9,0.9-3.6,2.4-4.7c1.5-1.1,3.4-1.5,5.2-1c1.4,0.4,2.9,0.4,4.3,0
			c1.8-0.5,3.7-0.2,5.2,0.9c1.5,1.1,2.4,2.9,2.4,4.7C19.8,19.3,19.4,19.7,19,19.7z M1.8,18.2h16.4C18,17,17.4,16,16.5,15.3
			c-1.1-0.8-2.6-1.1-3.9-0.7c-1.7,0.5-3.5,0.5-5.1,0c-1.4-0.4-2.8-0.1-3.9,0.7C2.6,16,2,17,1.8,18.2z"/>
	</g>
</g>
</svg>
