<svg width="21" height="17" viewBox="0 0 21 17" fill="none" xmlns="http://www.w3.org/2000/svg">
<path fill-rule="evenodd" clip-rule="evenodd" d="M10.6856 0.948316C11.0321 1.11484 11.2524 1.46521 11.2524 1.84962V15.5078C11.2524 15.8922 11.0321 16.2426 10.6856 16.4091C10.3392 16.5756 9.92791 16.5288 9.62774 16.2887L5.02373 12.6055H1.47217C0.919883 12.6055 0.472168 12.1578 0.472168 11.6055V5.75196C0.472168 5.19967 0.919883 4.75196 1.47217 4.75196H5.02373L9.62774 1.06875C9.92791 0.828614 10.3392 0.781796 10.6856 0.948316ZM9.25243 3.93024L5.9992 6.53283C5.82189 6.67468 5.60158 6.75196 5.37451 6.75196H2.47217V10.6055H5.37451C5.60158 10.6055 5.82189 10.6827 5.9992 10.8246L9.25243 13.4272V3.93024Z" fill="white"/>
<path fill-rule="evenodd" clip-rule="evenodd" d="M20.3869 6.26578L14.1497 12.503L12.7354 11.0888L18.9727 4.85156L20.3869 6.26578Z" fill="white"/>
<path fill-rule="evenodd" clip-rule="evenodd" d="M14.1504 4.85156L20.3876 11.0888L18.9734 12.503L12.7362 6.26578L14.1504 4.85156Z" fill="white"/>
</svg>
