<?xml version="1.0" encoding="utf-8"?>
<!-- Generator: Adobe Illustrator 25.4.8, SVG Export Plug-In . SVG Version: 6.00 Build 0)  -->
<svg version="1.1" id="레이어_1" xmlns="http://www.w3.org/2000/svg" xmlns:xlink="http://www.w3.org/1999/xlink" x="0px"
	 y="0px" viewBox="0 0 21 22" style="enable-background:new 0 0 21 22;" xml:space="preserve">
<style type="text/css">
	.st0{fill-rule:evenodd;clip-rule:evenodd;fill:#23262F;}
</style>
<path class="st0" d="M10.3,11c1.1,0,2-0.9,2-2c0-1.1-0.9-2-2-2s-2,0.9-2,2C8.3,10.1,9.2,11,10.3,11z M10.3,13c2.2,0,4-1.8,4-4
	c0-2.2-1.8-4-4-4c-2.2,0-4,1.8-4,4C6.3,11.2,8.1,13,10.3,13z"/>
<path class="st0" d="M16.9,18.5c2.1-1.8,3.4-4.5,3.4-7.5c0-5.5-4.5-10-10-10c-5.5,0-10,4.5-10,10c0,3,1.3,5.7,3.4,7.5
	c1.8,1.5,4,2.5,6.6,2.5c2.4,0,4.6-0.9,6.4-2.3C16.8,18.7,16.8,18.6,16.9,18.5z M10.6,19c-0.1,0-0.2,0-0.3,0c0,0,0,0,0,0
	c-0.1,0-0.2,0-0.2,0c-1.3,0-2.6-0.4-3.7-1c0.9-1.2,2.4-2,4-2s3,0.8,4,2C13.2,18.6,11.9,19,10.6,19z M15.9,16.7
	c-1.3-1.7-3.3-2.7-5.6-2.7c-2.3,0-4.3,1.1-5.6,2.7c-1.5-1.5-2.4-3.5-2.4-5.7c0-4.4,3.6-8,8-8c4.4,0,8,3.6,8,8
	C18.3,13.3,17.4,15.3,15.9,16.7z"/>
</svg>
