<?xml version="1.0" encoding="utf-8"?>
<!-- Generator: Adobe Illustrator 25.4.8, SVG Export Plug-In . SVG Version: 6.00 Build 0)  -->
<svg version="1.1" id="레이어_1" xmlns="http://www.w3.org/2000/svg" xmlns:xlink="http://www.w3.org/1999/xlink" x="0px"
	 y="0px" viewBox="0 0 17 15" style="enable-background:new 0 0 17 15;" xml:space="preserve">
<style type="text/css">
	.st0{fill:#626C70;}
</style>
<g>
	<g>
		<path class="st0" d="M12.6,6.2H4.4C4.1,6.2,3.8,6,3.8,5.6S4.1,5,4.4,5h8.1c0.3,0,0.6,0.3,0.6,0.6S12.9,6.2,12.6,6.2z"/>
	</g>
	<g>
		<path class="st0" d="M12.6,8.7H4.4c-0.3,0-0.6-0.3-0.6-0.6s0.3-0.6,0.6-0.6h8.1c0.3,0,0.6,0.3,0.6,0.6S12.9,8.7,12.6,8.7z"/>
	</g>
	<g>
		<path class="st0" d="M16,14.4c-0.1,0-0.2,0-0.3-0.1l-2.2-1.1l-2.2,1.1c-0.2,0.1-0.4,0.1-0.6,0l-2.2-1.1l-2.2,1.1
			c-0.2,0.1-0.4,0.1-0.6,0l-2.2-1.1l-2.2,1.1c-0.2,0.1-0.4,0.1-0.6,0c-0.2-0.1-0.3-0.3-0.3-0.5V1.9c0-0.3,0.1-0.7,0.4-0.9
			C1,0.8,1.3,0.6,1.6,0.6h13.8c0.3,0,0.7,0.1,0.9,0.4c0.2,0.2,0.4,0.6,0.4,0.9v11.9c0,0.2-0.1,0.4-0.3,0.5
			C16.2,14.3,16.1,14.4,16,14.4z M8.5,11.9c0.1,0,0.2,0,0.3,0.1l2.2,1.1l2.2-1.1c0.2-0.1,0.4-0.1,0.6,0l1.6,0.8V1.9H1.6v10.9
			l1.6-0.8c0.2-0.1,0.4-0.1,0.6,0L6,13.1l2.2-1.1C8.3,11.9,8.4,11.9,8.5,11.9z"/>
	</g>
</g>
</svg>
