<?xml version="1.0" encoding="utf-8"?>
<!-- Generator: Adobe Illustrator 25.4.8, SVG Export Plug-In . SVG Version: 6.00 Build 0)  -->
<svg version="1.1" id="레이어_1" xmlns="http://www.w3.org/2000/svg" xmlns:xlink="http://www.w3.org/1999/xlink" x="0px"
	 y="0px" viewBox="0 0 17 17" style="enable-background:new 0 0 17 17;" xml:space="preserve">
<style type="text/css">
	.st0{fill:#626C70;}
</style>
<g>
	<g>
		<path class="st0" d="M8.5,11.9c-3.1,0-5.6-2.5-5.6-5.6s2.5-5.6,5.6-5.6s5.6,2.5,5.6,5.6S11.6,11.9,8.5,11.9z M8.5,1.9
			c-2.4,0-4.4,2-4.4,4.4s2,4.4,4.4,4.4s4.4-2,4.4-4.4S10.9,1.9,8.5,1.9z"/>
	</g>
	<g>
		<path class="st0" d="M0.9,16.3c-0.1,0-0.2,0-0.3-0.1c-0.3-0.2-0.4-0.6-0.2-0.9c0.8-1.4,2-2.6,3.4-3.4c2.8-1.6,6.5-1.6,9.4,0
			c1.4,0.8,2.6,2,3.4,3.4c0.2,0.3,0.1,0.7-0.2,0.9c-0.3,0.2-0.7,0.1-0.9-0.2c-0.7-1.2-1.7-2.3-3-3c-2.5-1.4-5.7-1.4-8.1,0
			c-1.2,0.7-2.3,1.7-3,3C1.3,16.2,1.1,16.3,0.9,16.3z"/>
	</g>
</g>
</svg>
