<svg width="24" height="24" viewBox="0 0 24 24" fill="none" xmlns="http://www.w3.org/2000/svg">
<path d="M3.80921 14.9753L7.08478 16.8452L9.25859 20.2269C9.35703 20.416 9.56381 20.6874 9.95114 20.7415C10.3222 20.7934 10.5959 20.5969 10.6929 20.5222C10.7397 20.486 10.7822 20.4445 10.8193 20.3984L11.3229 19.7727C11.3404 19.7509 11.3567 19.7282 11.3717 19.7045C11.5178 19.4745 11.6292 19.1337 11.5294 18.7642L10.9457 15.6455L13.1886 13.477L17.5213 19.6232C17.6077 19.7536 17.8511 20.0742 18.294 20.0838C18.7363 20.0934 18.9967 19.784 19.0932 19.653L19.8716 18.6531C20.021 18.4612 20.0681 18.2089 19.998 17.9761L17.4088 9.37697L19.6166 7.2008L19.6166 7.20081L19.6207 7.19663C20.087 6.72974 20.4411 6.28434 20.6197 5.80463C20.8151 5.28023 20.7722 4.7977 20.6138 4.33551C20.5693 4.20561 20.495 4.08638 20.443 4.01007C20.3811 3.91904 20.3023 3.81889 20.2114 3.72406C20.1235 3.63239 20.0035 3.52398 19.8562 3.43802C19.7444 3.37273 19.5667 3.29138 19.3476 3.28254C18.3323 3.10343 17.2576 3.66961 16.3509 4.48521C16.3434 4.49196 16.336 4.49887 16.3288 4.50592L14.3565 6.42954L5.65192 4.13593C5.41518 4.07355 5.1629 4.13064 4.97608 4.28888L4.00897 5.10802C3.87988 5.21094 3.57139 5.49195 3.61073 5.94529C3.64839 6.37917 3.9745 6.60166 4.11323 6.68245L10.4039 10.7762L8.32309 13.1119L5.16517 12.6408C4.82501 12.5699 4.49166 12.6619 4.24454 12.8352C4.22143 12.8514 4.19926 12.8689 4.17813 12.8876L3.5738 13.4225C3.53791 13.4542 3.50515 13.4894 3.47597 13.5274C3.40351 13.6218 3.19943 13.9038 3.26133 14.2848C3.32642 14.6854 3.62168 14.8857 3.80921 14.9753Z" stroke="#202020" stroke-width="1.5" stroke-linecap="round" stroke-linejoin="round"/>
</svg>
