<svg width="238" height="44" viewBox="0 0 238 44" fill="none" xmlns="http://www.w3.org/2000/svg">
<g clip-path="url(#clip0_1973_10980)">
<path d="M168.789 7.44043C167.3 7.44043 166.092 8.64898 166.092 10.138V25.7306L152.613 8.4784C152.613 8.4784 152.598 8.46394 152.592 8.45527C152.561 8.41479 152.523 8.37431 152.488 8.33383C152.462 8.30492 152.439 8.27601 152.413 8.24999C152.381 8.21818 152.347 8.18638 152.312 8.15457C152.28 8.12566 152.248 8.09386 152.217 8.06784C152.185 8.04181 152.153 8.01868 152.121 7.99266C152.084 7.96375 152.046 7.93484 152.008 7.90882C151.974 7.88569 151.936 7.86256 151.899 7.84232C151.861 7.81919 151.826 7.79606 151.786 7.77582C151.74 7.7498 151.69 7.72956 151.644 7.70643C151.615 7.69197 151.586 7.67751 151.555 7.66306C151.5 7.63993 151.442 7.61969 151.384 7.59945C151.361 7.59078 151.338 7.5821 151.315 7.57343C151.257 7.55608 151.199 7.54162 151.138 7.52428C151.112 7.51849 151.086 7.50982 151.06 7.50404C151.008 7.49247 150.953 7.4838 150.901 7.47802C150.866 7.47223 150.832 7.46645 150.797 7.46067C150.751 7.45489 150.704 7.45199 150.661 7.4491C150.618 7.4491 150.571 7.44332 150.528 7.44332C150.517 7.44332 150.505 7.44332 150.491 7.44332C150.462 7.44332 150.43 7.44621 150.401 7.4491C150.355 7.4491 150.305 7.452 150.259 7.45489C150.216 7.45778 150.172 7.46356 150.129 7.46934C150.086 7.47513 150.042 7.48091 149.999 7.48958C149.953 7.49826 149.909 7.50693 149.863 7.51849C149.823 7.52717 149.782 7.53873 149.742 7.5503C149.695 7.56475 149.649 7.57921 149.603 7.59367C149.565 7.60523 149.528 7.61969 149.493 7.63414C149.447 7.65149 149.401 7.67462 149.354 7.69486C149.32 7.70932 149.288 7.72667 149.253 7.74401C149.207 7.76714 149.161 7.79606 149.114 7.82208C149.085 7.83943 149.054 7.85677 149.025 7.87701C148.975 7.90882 148.932 7.94062 148.886 7.97531C148.866 7.98977 148.848 8.00134 148.828 8.01579C148.819 8.02158 148.814 8.02736 148.805 8.03603C148.762 8.07073 148.721 8.10831 148.681 8.1459C148.655 8.16903 148.626 8.19216 148.603 8.21818C148.568 8.25288 148.536 8.28757 148.504 8.32227C148.475 8.35407 148.446 8.38298 148.42 8.41479C148.394 8.44659 148.368 8.48129 148.345 8.51309C148.316 8.55068 148.287 8.58537 148.261 8.62296C148.238 8.65765 148.218 8.69524 148.195 8.72994C148.172 8.76752 148.149 8.80511 148.125 8.8427C148.102 8.88607 148.079 8.93233 148.059 8.97859C148.045 9.01039 148.027 9.04219 148.013 9.074C147.99 9.12604 147.969 9.18098 147.952 9.23591C147.943 9.26193 147.932 9.28795 147.923 9.31397C147.906 9.36891 147.891 9.42384 147.877 9.47878C147.868 9.50769 147.859 9.5366 147.854 9.56841C147.842 9.61756 147.836 9.66671 147.828 9.71875C147.822 9.75634 147.813 9.79682 147.81 9.8344C147.805 9.87777 147.805 9.91825 147.802 9.96162C147.799 10.0108 147.796 10.057 147.793 10.1062C147.793 10.1177 147.793 10.1293 147.793 10.1409V33.566C147.793 35.055 149.002 36.2635 150.491 36.2635C151.98 36.2635 153.188 35.055 153.188 33.566V17.9675L166.638 35.1822C167.13 35.8385 167.91 36.2635 168.795 36.2635C170.157 36.2635 171.282 35.2516 171.464 33.9389C171.464 33.9187 171.47 33.8985 171.472 33.8811C171.478 33.832 171.481 33.7799 171.484 33.7308C171.484 33.6874 171.49 33.6469 171.49 33.6035C171.49 33.592 171.49 33.5833 171.49 33.5717V10.138C171.49 8.64898 170.281 7.44043 168.792 7.44043H168.789Z" fill="#323333"/>
<path d="M185.388 7.44039H178.802C177.313 7.44039 176.104 8.64894 176.104 10.1379V33.5659C176.104 34.043 176.229 34.4882 176.446 34.8757C176.905 35.7026 177.787 36.2635 178.802 36.2635H185.388C193.348 36.2635 199.798 29.8102 199.798 21.8505C199.798 13.8908 193.345 7.4375 185.388 7.4375V7.44039ZM185.388 30.8713H181.5V12.8326H185.388C190.37 12.8326 194.406 16.8717 194.406 21.8505C194.406 26.8293 190.367 30.8684 185.388 30.8684V30.8713Z" fill="#323333"/>
<path d="M140.472 24.548C141.961 24.548 143.17 23.3395 143.17 21.8504C143.17 20.3614 141.961 19.1529 140.472 19.1529H124.868V12.8297H140.472C141.961 12.8297 143.17 11.6211 143.17 10.1321C143.17 8.64312 141.961 7.43457 140.472 7.43457H122.17C120.681 7.43457 119.473 8.64312 119.473 10.1321V33.5659C119.473 35.0549 120.681 36.2634 122.17 36.2634H140.472C141.961 36.2634 143.17 35.0549 143.17 33.5659C143.17 32.0769 141.961 30.8683 140.472 30.8683H124.868V24.5451H140.472V24.548Z" fill="#323333"/>
<path d="M86.5418 21.8534C86.5418 21.8534 86.5418 21.836 86.5418 21.8274C86.5418 21.2115 86.3249 20.6448 85.9664 20.1938C85.949 20.1735 85.9346 20.1504 85.9172 20.1302C85.9057 20.1157 85.8912 20.1013 85.8768 20.0868C85.3824 19.5172 84.6538 19.1558 83.8413 19.1558H73.8259C72.3369 19.1558 71.1284 20.3644 71.1284 21.8534C71.1284 23.3424 72.3369 24.5509 73.8259 24.5509H80.7332C79.5825 28.2142 76.1563 30.877 72.123 30.877C69.5208 30.877 67.176 29.7668 65.528 28.0031C64.0245 26.3898 63.1022 24.2271 63.1022 21.8534C63.1022 20.9137 63.2468 20.0087 63.5128 19.1587C64.6635 15.4955 68.0897 12.8326 72.1259 12.8326C73.985 12.8326 75.7168 13.3993 77.1538 14.3679C78.1802 15.0618 79.5564 14.9259 80.4643 14.0787C81.7249 12.902 81.5861 10.8463 80.1578 9.88352C77.8622 8.33958 75.101 7.4375 72.1288 7.4375C65.0885 7.4375 59.2308 12.4886 57.9673 19.1587C57.8054 20.0319 57.7129 20.934 57.7129 21.8534C57.7129 25.6525 59.1845 29.1076 61.5872 31.6837C64.2211 34.5027 67.9653 36.2693 72.1288 36.2693C80.0884 36.2693 86.5446 29.813 86.5446 21.8534H86.5418Z" fill="#323333"/>
<path d="M108.342 24.3023C112.077 23.3858 114.85 20.0146 114.85 15.9957C114.85 11.2714 111.019 7.44043 106.295 7.44043H93.8509C92.3619 7.44043 91.1533 8.64898 91.1533 10.138C91.1533 11.627 92.3619 12.8355 93.8509 12.8355H106.295C108.041 12.8355 109.458 14.2523 109.458 15.9986C109.458 17.7449 108.041 19.1616 106.295 19.1616H96.5484H93.8509C92.3619 19.1616 91.1562 20.3702 91.1562 21.8592V33.5746C91.1562 35.0636 92.3648 36.2722 93.8538 36.2722C95.3428 36.2722 96.5513 35.0636 96.5513 33.5746V25.4588C96.5513 24.9615 96.9561 24.5568 97.4534 24.5568H101.695L110.033 35.2284C110.95 36.4023 112.644 36.6105 113.818 35.6939C114.992 34.7774 115.2 33.0831 114.283 31.9093L108.345 24.311L108.342 24.3023Z" fill="#323333"/>
<path d="M48.2378 29.4023C47.5178 28.7055 46.6533 28.1793 45.705 27.8613C45.2626 27.7109 44.7914 27.6531 44.3259 27.6907C43.8604 27.7312 43.4064 27.8642 42.993 28.0868C42.8079 27.9422 42.6142 27.8063 42.4147 27.682C41.5474 27.1702 40.6395 26.7308 39.6998 26.3694L39.0319 26.0976C38.9799 27.017 38.9221 27.9827 38.8209 28.8934C38.7804 29.2086 38.7486 29.5237 38.6994 29.836C38.0865 29.1912 37.3984 28.6275 36.6466 28.1562C36.2563 27.9162 35.8342 27.7369 35.3889 27.6242L34.7442 27.4738C34.5823 28.7604 34.4175 30.0731 34.1428 31.3481C33.1338 29.8244 31.7951 27.815 30.7803 26.2971C31.6014 26.3665 32.4254 26.4272 33.261 26.4272L33.7322 26.4156C33.9867 25.1695 34.3134 23.6024 34.5881 22.2406C35.2328 22.7668 35.8834 23.2815 36.5455 23.7817C36.8259 23.9899 37.1121 24.198 37.4186 24.3831C37.5545 24.4553 37.9824 24.6751 38.1357 24.7474C38.2022 24.4843 38.7023 22.417 38.977 21.2923L41.9435 23.7875L42.2788 24.0679L42.487 23.6949C42.487 23.6949 44.3056 20.7777 44.6526 20.156C45.1759 20.8528 46.2804 23.1022 46.4481 23.3075L46.6071 22.2985C47.142 19.3927 47.6508 15.3131 48.2233 12.4132L48.2522 12.2686L48.1279 12.1877C46.7227 11.2683 45.1267 10.2014 43.4758 9.10848L31.6997 0.000976562L15.3582 10.2216L15.2744 10.2679L14.4619 9.60289L14.1439 9.33978L13.768 9.52482L3.94926 14.359L3.3045 14.6771L3.62833 15.3334C4.2673 16.6374 5.1289 18.3895 6.06856 20.2832C5.7563 20.8355 1.73454 27.9654 1.80972 27.9856C1.88489 28.0058 7.75417 28.905 10.5616 29.33L10.6917 29.6018C8.09823 29.7724 5.60307 31.0764 3.81626 32.947C2.51808 34.2278 1.27194 36.4599 0.277344 38.0067C1.06088 37.5326 3.0732 36.191 3.90878 35.7805C6.13506 34.6384 8.6736 33.8086 11.1745 33.9185C12.4004 33.9676 13.5974 34.3146 14.6643 34.9275L14.78 34.9911L14.8869 35.0663L15.1038 35.2138C15.5375 35.5145 15.9365 35.8614 16.295 36.2488C16.4193 36.3761 16.535 36.5119 16.6448 36.6507C16.6709 36.6796 16.7055 36.723 16.7374 36.7664C16.7692 36.7895 16.7981 36.8184 16.8241 36.8473C17.5093 37.5702 17.8678 38.8047 17.9893 39.357L18.0037 39.3454L17.9922 39.3627C17.9922 39.3627 23.0288 35.74 28.0682 43.691C28.0682 43.691 29.4503 34.994 38.7081 36.8184L38.7486 36.6623C38.7891 36.6247 38.7862 36.5611 38.7978 36.5177C39.3355 34.0023 40.9546 31.539 43.3833 30.6166C45.173 29.8909 47.1506 29.9603 49.0415 30.1801L48.2435 29.4052L48.2378 29.4023Z" fill="#323333"/>
<path d="M12.0019 17.4642C12.0886 17.415 13.2423 17.071 13.7396 16.7645C16.4342 15.0962 19.5366 13.9513 22.6042 13.1735C22.6823 13.1475 22.7661 13.1417 22.8471 13.1562C22.9309 13.188 23.0032 13.2429 23.0581 13.3152C24.7148 15.1801 24.9808 18.1552 23.6826 20.2889C23.3444 20.8585 22.8991 21.3558 22.3758 21.7577C20.6584 23.053 18.1921 23.001 16.2607 22.0613C14.3294 21.1187 12.8693 19.4158 11.7041 17.5943" fill="white"/>
<path d="M23.7347 18.1782C23.6017 17.7532 23.4369 17.2183 23.142 16.8742C22.8471 16.5302 22.3845 16.4724 21.9681 16.4116C21.6963 16.3683 21.4246 16.3509 21.1499 16.3509C20.7596 16.0242 20.3114 15.7842 19.7997 15.7206C19.4151 15.6859 19.0277 15.7553 18.6779 15.9201C18.328 16.0849 18.0273 16.3394 17.8047 16.6574C17.5821 16.9899 17.4491 17.3715 17.4202 17.7705C17.4173 17.8197 17.4288 17.8688 17.4288 17.918C17.4173 18.0076 17.3912 18.0944 17.3884 18.1869C17.371 18.6003 17.4404 19.0109 17.5879 19.3954C17.5416 19.5863 17.53 19.7858 17.5532 19.9824C17.5936 20.1616 17.6948 20.3177 17.8423 20.4276C17.9811 20.5288 18.1488 20.578 18.3193 20.5693C18.3425 20.5924 18.3656 20.6156 18.3916 20.6387C18.5796 20.9712 18.8484 21.2516 19.1838 21.4367C19.5915 21.6275 20.0281 21.7489 20.4733 21.7981C20.907 21.879 21.3523 21.8472 21.7686 21.7027C22.0606 21.587 22.3006 21.3991 22.4857 21.1649C22.8008 21.0695 23.0899 20.9018 23.3241 20.6647C23.6248 20.3582 23.8214 19.9621 23.8793 19.5371C23.9342 19.0803 23.8879 18.6148 23.7405 18.1782H23.7347ZM20.0425 19.5226C19.9211 19.5891 19.791 19.6441 19.6609 19.6903C19.6754 19.6672 19.6898 19.6441 19.6956 19.6296C19.7476 19.5198 19.8055 19.407 19.872 19.3087C20.0021 19.0716 20.1813 18.8663 20.4011 18.7073C20.4762 18.6495 20.5688 18.6235 20.6613 18.6003C20.6613 18.6148 20.6613 18.6292 20.6613 18.6582C20.6555 18.7247 20.641 18.7883 20.6179 18.8519C20.508 19.1352 20.3056 19.3723 20.0425 19.5198V19.5226ZM21.2164 20.179C21.2164 20.179 21.2309 20.1732 21.2366 20.1703C21.2366 20.1703 21.2337 20.1761 21.2309 20.1761C21.2251 20.1761 21.2222 20.1761 21.2164 20.1761V20.179ZM22.1127 20.0431C22.1618 19.8985 22.1994 19.7511 22.2226 19.6007C22.2341 19.7337 22.2341 19.8696 22.2168 20.0055C22.1821 20.0199 22.1474 20.0315 22.1127 20.0431ZM20.9706 17.1258C20.8666 17.0882 20.7625 17.0593 20.6526 17.0419C20.7249 17.0333 20.7943 17.0188 20.8666 17.0159C20.9041 17.0506 20.9359 17.0882 20.9706 17.1258ZM22.636 17.3484C22.8124 17.6289 22.9396 17.9353 23.0263 18.2534C22.8066 17.9932 22.5493 17.8168 22.263 17.7098C22.1561 17.5306 22.0433 17.3571 21.9248 17.1952C21.893 17.1518 21.8583 17.1113 21.8265 17.068C22.0867 17.1055 22.4625 17.1258 22.636 17.3484ZM20.0425 16.4753C20.0425 16.4753 20.057 16.4839 20.0657 16.4868C19.8083 16.5562 19.5597 16.6487 19.3284 16.7817C18.9612 16.9928 18.6432 17.2761 18.3887 17.6144C18.2471 17.8168 18.1516 18.0423 18.0794 18.2765C18.0736 18.2563 18.0649 18.2389 18.062 18.2158C18.0447 18.1175 18.0505 18.0192 18.0505 17.9238C18.088 17.7156 18.143 17.5103 18.2384 17.3166C18.2673 17.2588 18.276 17.2039 18.2731 17.1489C18.6229 16.5649 19.3255 16.2093 20.0425 16.4753Z" fill="#323333"/>
<path d="M234.655 36.0697C233.744 36.0697 232.886 35.6707 232.299 34.971L228.598 30.5618C227.508 29.2636 227.678 27.3207 228.977 26.2307C229.529 25.7681 230.231 25.5107 230.951 25.5107C231.862 25.5107 232.721 25.9097 233.308 26.6094L237.009 31.0186C237.538 31.646 237.786 32.444 237.717 33.2622C237.645 34.0805 237.26 34.8206 236.63 35.3497C236.078 35.8123 235.375 36.0697 234.655 36.0697Z" fill="#323333"/>
<path d="M236.63 8.35372C236.078 7.89111 235.376 7.63379 234.656 7.63379C233.745 7.63379 232.886 8.03278 232.299 8.73247L225.302 17.0709L218.306 8.73247C217.719 8.03568 216.86 7.63379 215.949 7.63379C215.229 7.63379 214.527 7.88822 213.974 8.35372C212.676 9.44372 212.506 11.3867 213.596 12.6848L221.289 21.8531L213.596 31.0213C213.069 31.6487 212.818 32.4467 212.887 33.2649C212.96 34.0831 213.344 34.8233 213.974 35.3524C214.527 35.815 215.229 36.0723 215.949 36.0723C216.86 36.0723 217.719 35.6733 218.306 34.9736L237.006 12.6848C238.096 11.3867 237.926 9.44372 236.628 8.35372H236.63Z" fill="#323333"/>
</g>
<defs>
<clipPath id="clip0_1973_10980">
<rect width="237.451" height="43.69" fill="white" transform="translate(0.274414 0.000976562)"/>
</clipPath>
</defs>
</svg>
