<?xml version="1.0" encoding="utf-8"?>
<!-- Generator: Adobe Illustrator 25.4.8, SVG Export Plug-In . SVG Version: 6.00 Build 0)  -->
<svg version="1.1" id="레이어_1" xmlns="http://www.w3.org/2000/svg" xmlns:xlink="http://www.w3.org/1999/xlink" x="0px"
	 y="0px" viewBox="0 0 128 40" style="enable-background:new 0 0 128 40;" xml:space="preserve">
<style type="text/css">
	.st0{fill:#FFFFFF;}
</style>
<path class="st0" d="M6.9,20.8l3.1,6.1c0,0-6.1-1.6-6-1.7C4,25.1,6.9,20.8,6.9,20.8z"/>
<path class="st0" d="M37.5,26.5c0,0-0.4-0.6-2.9-1.6c0,0-0.1,2.8-0.4,3.6c0,0-1.7-2.1-3.2-2.4c0,0-0.3,3-0.8,4l-4.2-6.3
	c0,0,2.7,0.3,3.2,0.2l0.9-4c0,0,2.6,2.2,3.1,2.4l0.8-3l3,2.6l2-3.5l1.6,2.5l1.4-8.5l-14-9.2l-14.2,8l-1-0.8l-8.4,4.2L10.8,28
	c0,0-4.7-0.7-8.1,4.6c0,0,9.4-5.9,13.5,2.2c0,0,3.9-2.2,7.8,2.3c0,0,2.5-5.6,9.7-3.7c0,0,0.7-6.5,8-6C41.8,27.4,39.4,25.1,37.5,26.5
	z M21.9,18.5c-0.2,0.4-0.3,0.9-0.5,1.3c-0.2,0.5-0.4,0.9-0.8,1.3c-0.7,0.7-1.8,0.9-2.8,0.9c-1.6,0.1-3.3-0.2-4.8-0.9
	c-0.3-0.1-0.6-0.3-0.9-0.6c-0.3-0.3-1.3-0.9-1.5-1.3c-0.7-0.9-1.4-1.4-1.8-2.5c1.2-1,3.2-1.7,4.7-2.2c1.5-0.5,3-0.8,4.5-1.4
	c0.8-0.3,1.6-0.7,2.5-0.7l0,0c1.1,1,1.4,2.6,1.6,4.1c0,0.3,0.1,0.6,0,0.9C22.1,17.9,22,18.2,21.9,18.5z"/>
<path class="st0" d="M15.7,16.4c-0.2,0.3-0.3,0.7-0.3,1s0,0.7,0.2,1.1c0.3,0.7,0.8,1.3,1.5,1.5c0.4,0.1,0.8,0.1,1.2,0.1
	c0.4,0,0.9,0,1.3,0c0.4-0.1,0.7-0.2,1-0.5c0.3-0.3,0.4-0.6,0.5-1c0-0.4,0-0.8-0.1-1.2c-0.1-0.4-0.3-0.8-0.5-1.1
	c-0.3-0.3-0.7-0.3-1-0.4c-0.4-0.1-0.8-0.1-1.2,0c-0.4,0-0.7,0.2-1,0.3c-0.3,0.2-0.6,0.4-0.8,0.7c-0.2,0.3-0.3,0.6-0.4,1
	c0,0.3,0,0.7,0.2,1c0.1,0.3,0.4,0.6,0.6,0.8c0.3,0.2,0.6,0.3,0.9,0.4c0.7,0.1,1.5-0.2,1.8-0.9c0.1-0.4,0.2-0.8,0.1-1.1
	c-0.1-0.4-0.2-0.7-0.5-1c-0.2-0.3-0.6-0.5-0.9-0.5c-0.4-0.1-0.7,0-1,0.2c-0.3,0.2-0.6,0.5-0.8,0.8c-0.2,0.3-0.3,0.7-0.4,1
	c0,0.3,0,0.7,0.2,1c0.2,0.3,0.4,0.6,0.7,0.7c0.4,0.2,0.7,0.3,1.1,0.3c0.4,0.1,0.8,0,1.1-0.1c0.7-0.3,1-1,1-1.7
	c0-0.8-0.4-1.6-0.9-2.2c-0.5-0.6-1.1-1.2-1.8-1.3c-0.3,0-0.7,0-1,0.2c-0.3,0.1-0.6,0.4-0.8,0.6c-0.2,0.3-0.3,0.6-0.3,1
	c0,0.3,0,0.7,0.2,1c0.1,0.3,0.4,0.6,0.6,0.8c0.3,0.2,0.6,0.4,0.9,0.4c0.7,0.1,1.5,0,2-0.5c0.4-0.5,0.3-1.2,0-1.7
	c-0.4-0.5-1.2-0.7-1.8-0.5c-0.7,0.2-1.2,0.8-1.5,1.5c-0.2,0.3-0.2,0.6-0.2,0.9c0,0.2,0.1,0.3,0.2,0.4c0.1,0.1,0.3,0.1,0.4,0.1
	c0.7,0,1.6-0.2,2.2-0.7c0.2-0.3,0.4-0.6,0.4-0.9c0-0.4-0.2-0.7-0.6-0.6c-0.7,0.1-1.1,0.8-1.4,1.3c-0.2,0.4-0.1,0.7,0.3,0.8
	c0.3,0.1,0.7,0.1,1,0c0.3-0.1,0.6-0.4,0.8-0.7c0.2-0.3,0.2-0.7,0.1-1c0-0.2-0.1-0.3-0.2-0.5c-0.1-0.1-0.2-0.2-0.4-0.3
	c-0.2-0.1-0.3-0.1-0.5-0.1c-0.2,0-0.3,0-0.5,0.1c-0.6,0.2-1.2,0.9-1,1.7s0.9,1,1.5,1.2c0.7,0.2,1.6,0.3,2.2-0.2
	c0.3-0.2,0.4-0.5,0.5-0.8c0.1-0.3,0-0.7-0.2-0.9c-0.8-1.5-2.8-0.9-3.8,0.1c-0.4,0.4-0.9,1.2-0.4,1.7c0.3,0.3,0.7,0.2,1.1,0.2
	c0.5,0,0.9,0,1.4-0.1c0.5-0.1,1.6-0.2,1.5-0.9c0-0.4-0.6-0.4-0.6,0c0,0.2-0.2,0.2-0.4,0.3c-0.3,0.1-0.7,0.1-1,0.1
	c-0.3,0-0.6,0-0.9,0c-0.2,0-0.6,0.1-0.7-0.1c-0.1-0.2,0-0.4,0.1-0.5c0.1-0.2,0.3-0.4,0.6-0.6c0.4-0.3,1-0.5,1.5-0.6
	c0.2,0,0.5,0,0.7,0.2c0.2,0.1,0.4,0.3,0.5,0.5c0,0.1,0.1,0.2,0.1,0.3c0,0.1,0,0.2,0,0.3c0,0.1-0.1,0.2-0.2,0.3
	c-0.1,0.1-0.2,0.1-0.2,0.2c-0.5,0.3-1.1,0.2-1.7,0c-0.4-0.1-0.9-0.3-1-0.7c-0.1-0.5,0.4-1,0.9-1c0.5-0.1,0.8,0.5,0.6,0.9
	c0,0.1-0.1,0.2-0.1,0.3c-0.1,0.1-0.2,0.2-0.3,0.2c-0.1,0-0.2,0.1-0.3,0.1c-0.1,0-0.3,0-0.4-0.1c-0.1,0-0.1-0.1,0,0
	c0,0,0.1-0.1,0.1-0.2c0-0.1,0.1-0.2,0.2-0.3c0.1-0.2,0.3-0.4,0.5-0.5c0.1-0.1,0.2-0.1,0.3-0.1c-0.1,0,0,0-0.1,0.1c0,0.1,0,0.1,0,0.2
	c-0.1,0.2-0.3,0.4-0.5,0.6c-0.2,0.1-0.5,0.2-0.7,0.2c-0.1,0-0.3,0-0.4,0.1c-0.1,0-0.3,0.1-0.4,0c-0.1-0.1,0-0.4,0-0.4
	c0.1-0.3,0.2-0.5,0.4-0.7c0.1-0.2,0.3-0.4,0.5-0.5c0.2-0.1,0.4-0.2,0.7-0.2c0.2,0,0.4,0,0.6,0.2c0.2,0.1,0.3,0.3,0.4,0.5
	c0.1,0.5-0.2,0.8-0.6,0.9c-1,0.3-2-0.3-2.2-1.3c-0.2-1,0.8-1.8,1.7-1.5c0.5,0.2,0.9,0.6,1.2,1.1c0.3,0.5,0.6,1,0.7,1.5
	c0.1,0.5-0.1,1-0.5,1.3c-0.4,0.3-1.1,0.1-1.6,0c-0.2-0.1-0.5-0.2-0.6-0.4s-0.3-0.4-0.3-0.7c0-0.3,0-0.5,0.1-0.7
	c0.1-0.2,0.2-0.4,0.4-0.6c0.4-0.4,0.8-0.7,1.3-0.3c0.4,0.3,0.6,0.9,0.5,1.4c-0.1,1.1-1.7,1.1-2.3,0.3c-0.6-0.9-0.1-1.9,0.8-2.3
	c0.5-0.2,1.1-0.3,1.7-0.2c0.2,0,0.6,0,0.7,0.2c0.2,0.3,0.3,0.6,0.4,0.9c0.1,0.5,0.2,1.1-0.1,1.5c-0.4,0.5-1.1,0.5-1.6,0.4
	c-0.3,0-0.6,0-0.9,0c-0.3,0-0.5,0-0.8-0.2c-0.4-0.2-0.7-0.8-0.9-1.2c-0.1-0.5-0.1-1,0.1-1.4C16.4,16.4,15.9,16.1,15.7,16.4
	L15.7,16.4z"/>
<path class="st0" d="M42,27.1c-0.6-0.6-1.4-1.1-2.2-1.3c-0.4-0.1-0.8-0.2-1.2-0.1c-0.4,0-0.8,0.2-1.1,0.3c-0.2-0.1-0.3-0.2-0.5-0.3
	c-0.7-0.4-1.5-0.8-2.3-1.1l-0.6-0.2c0,0.8-0.1,1.6-0.2,2.4c0,0.3-0.1,0.5-0.1,0.8c-0.5-0.6-1.1-1-1.8-1.4c-0.3-0.2-0.7-0.4-1.1-0.5
	l-0.6-0.1c-0.1,1.1-0.3,2.2-0.5,3.3c-0.9-1.3-2-3-2.9-4.4c0.7,0.1,1.4,0.1,2.1,0.1l0.4,0c0.2-1.1,0.5-2.4,0.7-3.6
	c0.6,0.5,1.1,0.9,1.7,1.3c0.2,0.2,0.5,0.4,0.8,0.5c0.1,0.1,0.5,0.3,0.6,0.3c0.1-0.2,0.5-2,0.7-3l2.6,2.1l0.3,0.2l0.2-0.3
	c0,0,1.6-2.5,1.9-3c0.4,0.6,1.4,2.5,1.5,2.7l0.1-0.9c0.5-2.5,0.9-6,1.4-8.5l0-0.1l-0.1-0.1c-1.2-0.8-2.6-1.7-4-2.7L27.8,1.8
	l-14.1,8.8l-0.1,0l-0.7-0.6l-0.3-0.2L12.3,10l-8.5,4.2l-0.6,0.3L3.6,15c0.5,1.1,1.3,2.6,2.1,4.3C5.4,19.8,2,25.9,2,25.9
	c0.1,0,5.1,0.8,7.5,1.2l0.1,0.2c-2.2,0.1-4.4,1.3-5.9,2.9c-1.1,1.1-2.2,3-3,4.4c0.7-0.4,2.4-1.6,3.1-1.9c1.9-1,4.1-1.7,6.3-1.6
	c1.1,0,2.1,0.3,3,0.9l0.1,0.1l0.1,0.1l0.2,0.1c0.4,0.3,0.7,0.6,1,0.9c0.1,0.1,0.2,0.2,0.3,0.3c0,0,0.1,0.1,0.1,0.1
	c0,0,0.1,0,0.1,0.1c0.6,0.6,0.9,1.7,1,2.2l0,0l0,0c0,0,4.3-3.1,8.7,3.7c0,0,1.2-7.5,9.2-5.9l0-0.1c0,0,0-0.1,0-0.1
	c0.5-2.2,1.9-4.3,4-5.1c1.5-0.6,3.2-0.6,4.9-0.4L42,27.1z M4.2,25.1l2.5-3.8c0.9,1.8,1.8,3.6,2.5,5.1L4.2,25.1z M36.4,28.4
	c-1.5,1.1-2.4,2.9-2.7,4.7v0c-2.7-0.9-5.8-0.7-8.1,1.1c-0.6,0.5-1.2,1.1-1.6,1.8c-1.5-1.6-3.5-2.8-5.7-2.5c-0.6,0.1-1.2,0.2-1.8,0.5
	c-0.1-0.2-0.2-0.3-0.3-0.5c-0.1-0.1-0.3-0.5-0.4-0.5c-0.2-0.2-0.4-0.5-0.6-0.7c-0.3-0.3-0.6-0.6-0.9-0.9c-0.2-0.1-0.4-0.3-0.5-0.4
	L13.7,31l-0.4-0.3l-0.5-0.2c0,0-0.1,0-0.1-0.1c-2.5-1-5.2-0.6-7.6,0.3c1.5-1.4,3.6-2.3,5.7-2.2l1.2,0.1l-0.5-1.1
	C9.8,24.6,6.8,18.4,5,15l7.5-3.8l0.7,0.6l0.3,0.2l0.3-0.2c1.8-1,5.3-3.1,7.1-4.1l6.9-4l3.4,2.1c3.1,2,7.3,4.7,10.5,6.7
	c-0.2,1-0.6,2.9-0.8,3.9c-0.2,0.8-0.5,2.4-0.7,3.5c-0.4-0.6-1.2-1.7-1.3-1.8l-0.2,0.3l-1.9,3.2c-0.8-0.7-2.9-2.7-3.1-2.8l-0.2,0.6
	l-0.7,2.4c-0.4-0.3-0.7-0.6-1-0.8c-0.7-0.6-1.4-1.2-2.1-1.8c-0.3,1.3-0.7,2.9-1,4.3c-1.3-0.1-2.6-0.2-3.9-0.3c1.3,2,3.5,5.2,4.9,7.3
	l0.6,0.9c0.1-0.4,0.4-1.1,0.5-1.5c0.1-0.5,0.2-1,0.3-1.5c0.1-0.5,0.1-0.9,0.2-1.4c0.4,0.2,0.7,0.4,1,0.7c0.7,0.6,1.4,1.3,2,2
	c0.1-0.3,0.4-0.9,0.4-1.3c0.1-0.9,0.2-1.7,0.3-2.6c0.8,0.3,1.6,0.6,2.2,1.2l0,0c0,0,0,0,0,0l0.6,0.1c0.9-0.7,2.1-0.4,3.1,0.2
	C39.2,27.1,37.7,27.5,36.4,28.4L36.4,28.4z"/>
<path class="st0" d="M53,14.1h5.5v1.7c0,3.6-2.3,5.7-5.6,5.7c-3.7,0-6.1-2.6-6.1-6.9c0-4.4,2.7-6.9,6.1-6.9c3,0,5.2,1.9,5.5,4.5
	h-3.1c-0.3-1.1-1.2-1.8-2.4-1.8c-1.9,0-3.1,1.5-3.1,4.1s1.1,4.1,3.1,4.1c1.7,0,2.7-0.9,2.7-2.4H53L53,14.1z"/>
<path class="st0" d="M60.3,21.4V8h8.9v2.6h-5.9v2.8h5.4V16h-5.4v2.8h5.9v2.6L60.3,21.4z"/>
<path class="st0" d="M78,12c-0.1-1-0.8-1.6-2-1.6c-1.2,0-1.8,0.5-1.9,1.3c0,0.8,0.8,1.2,1.9,1.5l1.1,0.3c2.5,0.6,3.9,1.9,3.9,4
	c0,2.5-1.9,4.1-5.1,4.1c-3.2,0-5.3-1.5-5.3-4.6h2.9c0.1,1.3,1,2,2.4,2c1.3,0,2-0.6,2-1.4c0-0.8-0.7-1.2-2.1-1.5l-1.3-0.3
	C72.4,15.1,71,14,71,12c0-2.5,2.1-4.1,5-4.1c2.9,0,4.8,1.7,4.9,4.2H78z"/>
<path class="st0" d="M82.2,10.6V8h10.8v2.6H89v10.8h-3V10.6H82.2z"/>
<path class="st0" d="M102.2,8h3v8.6c0,3-2.2,4.9-5.4,4.9s-5.4-1.9-5.4-4.9V8h3v8.4c0,0.7,0.3,1.3,0.7,1.8c0.4,0.5,1,0.7,1.7,0.7
	c0.6,0,1.2-0.3,1.7-0.7c0.4-0.5,0.7-1.1,0.7-1.8V8z"/>
<path class="st0" d="M114.1,21.4l-2.3-4.6h-1.7v4.6h-3V8h5.2c2.9,0,4.6,1.7,4.6,4.4c0,0.8-0.1,1.6-0.5,2.3c-0.4,0.7-1,1.2-1.7,1.5
	l2.7,5.1L114.1,21.4z M110.1,10.6v3.7h1.6c1.4,0,2.2-0.6,2.2-1.8c0-1.3-0.7-1.9-2.2-1.9H110.1z"/>
<path class="st0" d="M118.7,21.4V8h8.9v2.6h-5.9v2.8h5.4V16h-5.4v2.8h5.8v2.6L118.7,21.4z"/>
<path class="st0" d="M69.6,38.2h-1.8l-2.4-5.6H62v5.6h-1.7v-13h5c0.9,0,1.7,0.1,2.3,0.4c0.6,0.3,1.1,0.7,1.4,1.2
	c0.3,0.5,0.5,1.2,0.5,1.9c0,0.7-0.1,1.3-0.4,1.8c-0.2,0.5-0.6,0.8-0.9,1.1c-0.4,0.3-0.8,0.5-1.2,0.7L69.6,38.2z M64.8,31.2
	c1,0,1.7-0.2,2.3-0.6c0.5-0.4,0.8-1,0.8-1.8c0-0.8-0.2-1.3-0.7-1.7c-0.5-0.4-1.1-0.6-2-0.6H62v4.7H64.8z"/>
<path class="st0" d="M56.2,32.2h-7v6h-1.7v-13h1.7v5.5h7v-5.5h1.7v13h-1.7V32.2z"/>
</svg>
