<svg width="96" height="21" viewBox="0 0 96 21" fill="none" xmlns="http://www.w3.org/2000/svg">
<path d="M73.571 4.86516C73.571 4.15004 72.9902 3.57031 72.2738 3.57031C71.5573 3.57031 70.9766 4.15004 70.9766 4.86516V16.1108C70.9766 16.8259 71.5573 17.4056 72.2738 17.4056C72.9902 17.4056 73.571 16.8259 73.571 16.1108V4.86516Z" fill="#323333"/>
<path d="M87.195 4.86516C87.195 4.15004 86.6142 3.57031 85.8978 3.57031C85.1814 3.57031 84.6006 4.15004 84.6006 4.86516V16.1108C84.6006 16.8259 85.1814 17.4056 85.8978 17.4056C86.6142 17.4056 87.195 16.8259 87.195 16.1108V4.86516Z" fill="#323333"/>
<path d="M58.6495 17.4056C57.9331 17.4056 57.3516 16.8255 57.3516 16.1108V4.86516C57.3516 4.15043 57.9331 3.57031 58.6495 3.57031C59.3659 3.57031 59.9474 4.15043 59.9474 4.86516V16.1122C59.9474 16.8269 59.3659 17.407 58.6495 17.407V17.4056Z" fill="#323333"/>
<path d="M34.0938 10.4882C34.0938 9.77347 34.6752 9.19336 35.3917 9.19336H40.2105C40.9269 9.19336 41.5084 9.77347 41.5084 10.4882C41.5084 11.2029 40.9269 11.7831 40.2105 11.7831H35.3917C34.6752 11.7831 34.0938 11.2029 34.0938 10.4882Z" fill="#323333"/>
<path d="M54.6309 17.1278C54.0661 17.5678 53.2509 17.4678 52.81 16.9044L48.4126 11.2892C47.9716 10.7257 48.0718 9.91247 48.6366 9.47253C49.2014 9.03258 50.0166 9.13251 50.4576 9.69597L54.8549 15.3111C55.2959 15.8746 55.1957 16.6879 54.6309 17.1278Z" fill="#323333"/>
<path d="M82.3796 4.86507C82.3796 4.15033 81.7981 3.57022 81.0817 3.57022C80.3653 3.57022 79.7838 4.15033 79.7838 4.86507V12.3496L73.2984 4.06706C72.8574 3.5036 72.0422 3.40368 71.4774 3.84362C70.9126 4.28356 70.8125 5.09683 71.2535 5.66029L80.0439 16.8851C80.2804 17.2001 80.656 17.4041 81.0817 17.4041C81.7369 17.4041 82.2781 16.9184 82.3657 16.2883C82.3657 16.2786 82.3685 16.2689 82.3699 16.2606C82.3727 16.237 82.3741 16.212 82.3755 16.1884C82.3755 16.1676 82.3782 16.1481 82.3782 16.1273C82.3782 16.1218 82.3782 16.1176 82.3782 16.1121V4.86507H82.3796Z" fill="#323333"/>
<path d="M85.9004 3.57031C85.184 3.57031 84.6025 4.15043 84.6025 4.86516C84.6025 5.57989 85.184 6.16001 85.9004 6.16001H89.0694C91.4663 6.16001 93.4083 8.09881 93.4083 10.4887C93.4083 12.8799 91.4649 14.8173 89.0694 14.8173H85.9004C85.184 14.8173 84.6025 15.3974 84.6025 16.1122C84.6025 16.8269 85.184 17.407 85.9004 17.407H89.0694C92.8992 17.407 96.0028 14.3094 96.0028 10.4887C96.0028 6.66795 92.8978 3.5717 89.0694 3.5717H85.9004V3.57031Z" fill="#323333"/>
<path d="M57.3564 4.86516C57.3564 4.15043 57.9379 3.57031 58.6544 3.57031H67.4601C68.1766 3.57031 68.7581 4.15043 68.7581 4.86516C68.7581 5.57989 68.1766 6.16001 67.4601 6.16001H58.6544C57.9379 6.16001 57.3564 5.57989 57.3564 4.86516Z" fill="#323333"/>
<path d="M57.3564 10.4882C57.3564 9.77347 57.9379 9.19336 58.6544 9.19336H67.4601C68.1766 9.19336 68.7581 9.77347 68.7581 10.4882C68.7581 11.2029 68.1766 11.7831 67.4601 11.7831H58.6544C57.9379 11.7831 57.3564 11.2029 57.3564 10.4882Z" fill="#323333"/>
<path d="M67.457 17.4047C68.1738 17.4047 68.7549 16.8253 68.7549 16.1106C68.7549 15.3958 68.1738 14.8164 67.457 14.8164H58.6526C57.9358 14.8164 57.3547 15.3958 57.3547 16.1106C57.3547 16.8253 57.9358 17.4047 58.6526 17.4047H67.457Z" fill="#323333"/>
<path d="M41.5099 10.4881C41.5099 14.3088 38.405 17.4078 34.5738 17.4078C32.5706 17.4078 30.7691 16.5599 29.5018 15.2067C28.3458 13.9702 27.6377 12.3117 27.6377 10.4881C27.6377 10.0454 27.6822 9.61237 27.7601 9.19463C28.368 5.99151 31.1878 3.56836 34.5738 3.56836C36.0039 3.56836 37.3338 4.00136 38.437 4.74247C39.1256 5.20461 39.1909 6.19136 38.5844 6.75621C38.149 7.16146 37.4854 7.22669 36.9916 6.89499C36.3002 6.43007 35.4683 6.15805 34.5724 6.15805C32.6304 6.15805 30.9819 7.43625 30.4283 9.19463C30.3003 9.60265 30.2307 10.037 30.2307 10.4881C30.2307 11.6289 30.6759 12.6656 31.3979 13.44C32.1922 14.2866 33.3204 14.8195 34.571 14.8195C36.9638 14.8195 38.9127 12.8766 38.9127 10.4881V10.4742C38.9127 9.76781 39.4859 9.19324 40.1939 9.19324H40.2023C40.9145 9.19324 41.5058 9.76364 41.5072 10.4742C41.5072 10.4784 41.5072 10.4825 41.5072 10.4881H41.5099Z" fill="#323333"/>
<path d="M45.0274 3.57031C44.311 3.57031 43.7295 4.15043 43.7295 4.86516C43.7295 5.57989 44.311 6.16001 45.0274 6.16001H51.0148C51.855 6.16001 52.5367 6.84005 52.5367 7.6783C52.5367 8.51655 51.855 9.19658 51.0148 9.19658H46.3253H45.0274C44.311 9.19658 43.7309 9.7767 43.7309 10.4914V16.1149C43.7309 16.8297 44.3124 17.4098 45.0288 17.4098C45.7452 17.4098 46.3267 16.8297 46.3267 16.1149V12.2193C46.3267 11.9806 46.5215 11.7863 46.7607 11.7863H51.0162C53.2893 11.7863 55.1325 9.9474 55.1325 7.67968C55.1325 5.41197 53.2893 3.57309 51.0162 3.57309H45.0288L45.0274 3.57031Z" fill="#323333"/>
<path d="M23.0778 14.1129C22.7315 13.7784 22.3155 13.5258 21.8592 13.3732C21.6464 13.301 21.4196 13.2732 21.1957 13.2913C20.9717 13.3107 20.7533 13.3745 20.5544 13.4814C20.4653 13.412 20.3721 13.3468 20.2761 13.2871C19.8588 13.0415 19.422 12.8305 18.9699 12.657L18.6485 12.5266C18.6235 12.9679 18.5957 13.4314 18.547 13.8686C18.5275 14.0199 18.5122 14.1712 18.4885 14.321C18.1936 14.0116 17.8625 13.7409 17.5008 13.5147C17.313 13.3995 17.1099 13.3135 16.8957 13.2593L16.5855 13.1872C16.5076 13.8048 16.4283 14.4348 16.2961 15.0469C15.8106 14.3155 15.1665 13.3509 14.6783 12.6223C15.0733 12.6556 15.4698 12.6848 15.8718 12.6848L16.0986 12.6792C16.221 12.0811 16.3782 11.3289 16.5104 10.6752C16.8206 10.9278 17.1336 11.1748 17.4522 11.4149C17.5871 11.5148 17.7248 11.6148 17.8723 11.7036C17.9377 11.7383 18.1435 11.8438 18.2173 11.8785C18.2493 11.7522 18.4899 10.7599 18.6221 10.22L20.0494 11.4177L20.2107 11.5523L20.3109 11.3733C20.3109 11.3733 21.1859 9.97296 21.3529 9.67458C21.6046 10.009 22.1361 11.0888 22.2167 11.1873L22.2933 10.703C22.5506 9.30819 22.7954 7.34996 23.0709 5.95796L23.0848 5.88857L23.025 5.84971C22.3489 5.40838 21.581 4.89627 20.7867 4.37167L15.1206 0L7.25803 4.90599L7.21769 4.92819L6.82679 4.60899L6.67376 4.4827L6.49292 4.57152L1.76867 6.89198L1.45845 7.04464L1.61426 7.35967C1.9217 7.98559 2.33625 8.82661 2.78837 9.73564C2.63812 10.0007 0.703077 13.4231 0.739246 13.4328C0.775415 13.4425 3.59939 13.8742 4.95017 14.0782L5.01276 14.2086C3.76493 14.2919 2.56439 14.9164 1.70468 15.8143C1.08007 16.4292 0.480498 17.5006 0.00195312 18.2431C0.378946 18.0155 1.34717 17.3715 1.7492 17.1744C2.82036 16.6262 4.04176 16.2279 5.24508 16.2807C5.83492 16.3043 6.41084 16.4708 6.92416 16.765L6.97981 16.7955L7.03128 16.8316L7.13561 16.9024C7.34428 17.0467 7.53626 17.2133 7.70875 17.3993C7.76857 17.4603 7.82422 17.5255 7.87708 17.5922C7.8896 17.606 7.90629 17.6269 7.9216 17.6477C7.9369 17.6588 7.95081 17.6727 7.96333 17.6865C8.29303 18.0335 8.46552 18.6261 8.52395 18.8912L8.53091 18.8856L8.52534 18.8939C8.52534 18.8939 10.9487 17.155 13.3734 20.9715C13.3734 20.9715 14.0383 16.7969 18.4927 17.6727L18.5122 17.5977C18.5317 17.5797 18.5303 17.5491 18.5358 17.5283C18.7946 16.3209 19.5736 15.1385 20.7422 14.6958C21.6033 14.3474 22.5548 14.3807 23.4646 14.4862L23.0806 14.1143L23.0778 14.1129Z" fill="#323333"/>
<path d="M5.64329 8.38311C5.68502 8.35952 6.24008 8.19437 6.47935 8.04726C7.77587 7.24648 9.26854 6.69689 10.7445 6.32357C10.7821 6.31108 10.8224 6.3083 10.8614 6.31524C10.9017 6.33051 10.9365 6.35688 10.9629 6.39157C11.76 7.28672 11.888 8.7148 11.2634 9.73902C11.1006 10.0124 10.8864 10.2511 10.6346 10.444C9.8083 11.0658 8.62167 11.0408 7.6924 10.5898C6.76314 10.1373 6.06062 9.3199 5.5 8.44556" fill="white"/>
<path d="M11.2882 8.72583C11.2242 8.52182 11.1449 8.26507 11.003 8.09992C10.8611 7.93477 10.6385 7.90701 10.4382 7.87787C10.3074 7.85705 10.1767 7.84872 10.0445 7.84872C9.8567 7.6919 9.64108 7.57671 9.39485 7.54618C9.20983 7.52952 9.02342 7.56283 8.85509 7.64194C8.68677 7.72104 8.54209 7.84317 8.43498 7.99583C8.32786 8.15543 8.26387 8.33863 8.24996 8.53015C8.24857 8.55374 8.25413 8.57733 8.25413 8.60093C8.24857 8.64395 8.23605 8.68559 8.23465 8.73C8.22631 8.92846 8.2597 9.12553 8.33064 9.31011C8.30838 9.40171 8.30282 9.49747 8.31395 9.59184C8.33342 9.67789 8.38211 9.75283 8.45306 9.80557C8.51983 9.85414 8.60052 9.87773 8.6826 9.87357C8.69372 9.88467 8.70485 9.89578 8.71737 9.90688C8.8078 10.0665 8.93717 10.2011 9.09854 10.2899C9.29469 10.3815 9.50475 10.4398 9.71898 10.4634C9.92765 10.5023 10.1419 10.487 10.3422 10.4176C10.4827 10.3621 10.5982 10.2719 10.6872 10.1595C10.8388 10.1137 10.9779 10.0332 11.0906 9.91937C11.2353 9.77226 11.3299 9.58213 11.3577 9.37811C11.3841 9.15884 11.3619 8.9354 11.2909 8.72583H11.2882ZM9.5117 9.37117C9.45328 9.40309 9.39068 9.42946 9.32808 9.45167C9.33503 9.44057 9.34199 9.42946 9.34477 9.42252C9.36981 9.36979 9.39763 9.31566 9.42963 9.26847C9.49223 9.15467 9.57848 9.05614 9.6842 8.97981C9.72037 8.95205 9.76489 8.93956 9.8094 8.92846C9.8094 8.9354 9.8094 8.94233 9.8094 8.95621C9.80662 8.98813 9.79966 9.01866 9.78854 9.0492C9.73567 9.1852 9.63829 9.29901 9.5117 9.36979V9.37117ZM10.0765 9.68621C10.0765 9.68621 10.0835 9.68344 10.0862 9.68205C10.0862 9.68205 10.0848 9.68482 10.0835 9.68482C10.0807 9.68482 10.0793 9.68482 10.0765 9.68482V9.68621ZM10.5077 9.62098C10.5314 9.55159 10.5495 9.48081 10.5606 9.40865C10.5662 9.47249 10.5662 9.53771 10.5578 9.60294C10.5411 9.60988 10.5244 9.61543 10.5077 9.62098ZM9.95825 8.22066C9.90817 8.20262 9.85809 8.18874 9.80523 8.18041C9.84001 8.17625 9.87339 8.16931 9.90817 8.16792C9.92626 8.18458 9.94156 8.20262 9.95825 8.22066ZM10.7595 8.32752C10.8444 8.46214 10.9056 8.60925 10.9473 8.76192C10.8416 8.63701 10.7178 8.55235 10.5801 8.501C10.5286 8.41496 10.4744 8.33169 10.4173 8.25397C10.402 8.23315 10.3853 8.21372 10.37 8.19291C10.4952 8.21095 10.6761 8.22066 10.7595 8.32752ZM9.5117 7.9084C9.5117 7.9084 9.51866 7.91256 9.52283 7.91395C9.39902 7.94726 9.27939 7.99167 9.1681 8.05551C8.99142 8.15682 8.8384 8.29283 8.71598 8.45521C8.64782 8.55235 8.60191 8.6606 8.56713 8.77302C8.56435 8.7633 8.56018 8.75498 8.55879 8.74387C8.55044 8.69669 8.55322 8.6495 8.55322 8.6037C8.57131 8.50378 8.59774 8.40524 8.64364 8.31226C8.65756 8.2845 8.66173 8.25813 8.66034 8.23176C8.82866 7.95142 9.16671 7.78072 9.5117 7.9084Z" fill="#323333"/>
</svg>
