<svg width="53" height="52" viewBox="0 0 53 52" fill="none" xmlns="http://www.w3.org/2000/svg">
<path d="M33.8706 7.41343C23.2367 3.52692 11.3179 8.70099 7.24925 18.97C3.18056 29.2391 8.50269 40.7144 19.1366 44.6009C29.7704 48.4874 41.6892 43.3133 45.7579 33.0443C49.8266 22.7753 44.5045 11.2999 33.8706 7.41343Z" fill="#FFEBEB"/>
<path d="M29.082 19.4993C25.2638 18.1038 20.9106 19.7698 19.4593 23.4326C18.0081 27.0954 20.1069 31.1195 23.9251 32.515C27.7434 33.9105 32.0966 32.2445 33.5478 28.5817C34.9991 24.9189 32.9003 20.8948 29.082 19.4993Z" fill="#F1AEAE" stroke="white" stroke-width="2"/>
<rect x="25.4675" y="22.3233" width="1.64306" height="7.38116" rx="0.821532" fill="white"/>
<rect x="25.4675" y="31.3447" width="1.64306" height="1.64026" rx="0.820129" fill="white"/>
</svg>
