<?xml version="1.0" encoding="utf-8"?>
<!-- Generator: Adobe Illustrator 25.4.8, SVG Export Plug-In . SVG Version: 6.00 Build 0)  -->
<svg version="1.1" id="레이어_1" xmlns="http://www.w3.org/2000/svg" xmlns:xlink="http://www.w3.org/1999/xlink" x="0px"
	 y="0px" viewBox="0 0 11.9 12" style="enable-background:new 0 0 11.9 12;" xml:space="preserve">
<style type="text/css">
	.st0{fill:#FF0000;}
	.st1{fill:#FFFFFF;}
</style>
<g>
	<path class="st0" d="M5.9,11.8c3.2,0,5.7-2.6,5.7-5.8S9.1,0.2,5.9,0.2S0.2,2.8,0.2,6S2.8,11.8,5.9,11.8z"/>
	<g>
		<path class="st1" d="M5.9,2.3L5.9,2.3c0.5,0,0.9,0.4,0.9,0.8v3.2c0,0.4-0.4,0.8-0.9,0.8l0,0C5.4,7.1,5,6.8,5,6.3V3.1
			C5,2.7,5.4,2.3,5.9,2.3z"/>
		<path class="st1" d="M5.9,7.8L5.9,7.8c0.5,0,0.9,0.4,0.9,0.9l0,0c0,0.5-0.4,0.9-0.9,0.9l0,0C5.4,9.7,5,9.3,5,8.8l0,0
			C5,8.2,5.4,7.8,5.9,7.8z"/>
	</g>
</g>
</svg>
