<?xml version="1.0" encoding="utf-8"?>
<!-- Generator: Adobe Illustrator 25.4.8, SVG Export Plug-In . SVG Version: 6.00 Build 0)  -->
<svg version="1.1" id="레이어_1" xmlns="http://www.w3.org/2000/svg" xmlns:xlink="http://www.w3.org/1999/xlink" x="0px"
	 y="0px" viewBox="0 0 18.9 17.8" style="enable-background:new 0 0 18.9 17.8;" xml:space="preserve">
<style type="text/css">
	.st0{fill:none;stroke:#23262F;stroke-width:1.75;stroke-miterlimit:10;}
	.st1{fill:none;stroke:#23262F;stroke-width:1.5;stroke-miterlimit:10;}
	.st2{fill:#FF0000;}
</style>
<path class="st0" d="M3.1,14.3H2.7c-0.9,0-1.6-0.7-1.6-1.6V9.3c0-0.9,0.7-1.6,1.6-1.6h0.5c0.9,0,1.6,0.7,1.6,1.6v3.3
	C4.7,13.5,4,14.3,3.1,14.3z"/>
<path class="st0" d="M16.2,14.4h-0.5c-0.9,0-1.6-0.7-1.6-1.6V9.5c0-0.9,0.7-1.6,1.6-1.6h0.5c0.9,0,1.6,0.7,1.6,1.6v3.3
	C17.8,13.7,17.1,14.4,16.2,14.4z"/>
<path class="st0" d="M2.9,7.9C2.9,4.1,5.8,1,9.4,1C13.1,1,16,4.1,16,7.9"/>
<path class="st0" d="M9.4,15.6c0,0.6-0.5,1.1-1.1,1.1H3.8c-0.6,0-1.1-0.5-1.1-1.1v-1.3"/>
<path class="st1" d="M8.3,13.1"/>
<circle class="st1" cx="9.4" cy="14.1" r="1.6"/>
<circle class="st2" cx="15.6" cy="3.3" r="3.3"/>
</svg>
