<?xml version="1.0" encoding="utf-8"?>
<!-- Generator: Adobe Illustrator 25.4.8, SVG Export Plug-In . SVG Version: 6.00 Build 0)  -->
<svg version="1.1" id="레이어_1" xmlns="http://www.w3.org/2000/svg" xmlns:xlink="http://www.w3.org/1999/xlink" x="0px"
	 y="0px" viewBox="0 0 70 70" style="enable-background:new 0 0 70 70;" xml:space="preserve">
<style type="text/css">
	.st0{fill:#FFFFFF;}
	.st1{fill:#0043E1;}
</style>
<g>
	<circle class="st0" cx="35" cy="35" r="32"/>
	<path class="st1" d="M35,6c16,0,29,13,29,29S51,64,35,64S6,51,6,35S19,6,35,6 M35,0C15.7,0,0,15.7,0,35s15.7,35,35,35
		s35-15.7,35-35S54.3,0,35,0L35,0z"/>
</g>
<path class="st1" d="M34.7,56.2L34.7,56.2c-2.1,0-3.9-1.7-3.9-3.9V17.7c0-2.1,1.7-3.9,3.9-3.9h0c2.1,0,3.9,1.7,3.9,3.9v34.7
	C38.6,54.5,36.8,56.2,34.7,56.2z"/>
<path class="st1" d="M13.8,34.1L13.8,34.1c0-2.1,1.7-3.9,3.9-3.9h34.7c2.1,0,3.9,1.7,3.9,3.9v0c0,2.1-1.7,3.9-3.9,3.9H17.7
	C15.5,38,13.8,36.2,13.8,34.1z"/>
</svg>
