<svg width="24" height="24" viewBox="0 0 24 24" fill="none" xmlns="http://www.w3.org/2000/svg">
<path d="M20.1405 13.7063C20.4942 13.6388 20.75 13.3296 20.75 12.9696V11.0304C20.75 10.6704 20.4942 10.3612 20.1405 10.2937L18.2325 9.9297C18.1336 9.62903 18.0132 9.33838 17.8723 9.05893L18.9646 7.44983C19.1667 7.15208 19.1289 6.75274 18.8744 6.49827L17.5017 5.12559C17.2473 4.87112 16.8479 4.83327 16.5502 5.03539L14.9411 6.1277C14.6616 5.98681 14.371 5.86643 14.0703 5.7675L13.7063 3.85946C13.6388 3.50582 13.3296 3.25 12.9696 3.25H11.0304C10.6704 3.25 10.3612 3.50582 10.2937 3.85946L9.9297 5.7675C9.62903 5.86643 9.33838 5.98681 9.05893 6.1277L7.44983 5.03539C7.15208 4.83327 6.75274 4.87112 6.49827 5.12559L5.12559 6.49827C4.87112 6.75274 4.83327 7.15208 5.03539 7.44983L6.1277 9.05893C5.98681 9.33838 5.86643 9.62903 5.7675 9.9297L3.85946 10.2937C3.50582 10.3612 3.25 10.6704 3.25 11.0304V12.9696C3.25 13.3296 3.50582 13.6388 3.85946 13.7063L5.7675 14.0703C5.86643 14.371 5.98681 14.6616 6.1277 14.9411L5.03539 16.5502C4.83327 16.8479 4.87112 17.2473 5.12559 17.5017L6.49827 18.8744C6.75274 19.1289 7.15208 19.1667 7.44983 18.9646L9.05893 17.8723C9.33838 18.0132 9.62903 18.1336 9.9297 18.2325L10.2937 20.1405C10.3612 20.4942 10.6704 20.75 11.0304 20.75H12.9696C13.3296 20.75 13.6388 20.4942 13.7063 20.1405L14.0703 18.2325C14.371 18.1336 14.6616 18.0132 14.9411 17.8723L16.5502 18.9646C16.8479 19.1667 17.2473 19.1289 17.5017 18.8744L18.8744 17.5017C19.1289 17.2473 19.1667 16.8479 18.9646 16.5502L17.8723 14.9411C18.0132 14.6616 18.1336 14.371 18.2325 14.0703L20.1405 13.7063Z" stroke="white" stroke-width="1.5" stroke-linecap="round" stroke-linejoin="round"/>
<circle cx="12" cy="12" r="3.25" stroke="white" stroke-width="1.5"/>
</svg>
