<svg width="24" height="24" viewBox="0 0 24 24" fill="none" xmlns="http://www.w3.org/2000/svg">
<path d="M12.0046 15.6983C9.96386 15.6983 8.31091 14.0454 8.31091 12.0046C8.31091 9.96383 9.96386 8.31088 12.0046 8.31088C14.0454 8.31088 15.6984 9.96383 15.6984 12.0046C15.6984 14.0454 14.0454 15.6983 12.0046 15.6983ZM12.0046 10.1577C10.9889 10.1577 10.1578 10.9888 10.1578 12.0046C10.1578 13.0204 10.9889 13.8515 12.0046 13.8515C13.0204 13.8515 13.8515 13.0204 13.8515 12.0046C13.8515 10.9888 13.0204 10.1577 12.0046 10.1577Z" fill="white"/>
<path d="M12.928 1.84686L13.4082 4.75568C14.4055 4.9496 15.329 5.33744 16.1324 5.88226L18.5333 4.17391L19.8353 5.47595L18.127 7.87688C18.6718 8.6895 19.0596 9.61293 19.2536 10.601L22.1624 11.0812V12.928L19.2536 13.4082C19.0596 14.4055 18.6718 15.329 18.127 16.1324L19.8353 18.5333L18.5333 19.8353L16.1324 18.127C15.3197 18.6718 14.3963 19.0596 13.4082 19.2536L12.928 22.1624H11.0812L10.601 19.2536C9.60369 19.0596 8.68026 18.6718 7.87688 18.127L5.47595 19.8353L4.17391 18.5333L5.88226 16.1324C5.33744 15.3197 4.9496 14.3963 4.75568 13.4082L1.84686 12.928V11.0812L4.75568 10.601C4.9496 9.60369 5.33744 8.68026 5.88226 7.87688L4.17391 5.47595L5.47595 4.17391L7.87688 5.88226C8.6895 5.33744 9.61293 4.9496 10.601 4.75568L11.0812 1.84686H12.928ZM14.7472 1.54213C14.598 0.652029 13.8275 0 12.925 0H11.075C10.1725 0 9.40203 0.652029 9.25279 1.54213L8.96653 3.27818C8.62486 3.39823 8.30165 3.52751 7.97845 3.68449L6.54713 2.65948C5.81129 2.13693 4.80286 2.22446 4.16468 2.86264L2.86264 4.16468C2.22446 4.80286 2.13693 5.81129 2.65948 6.54713L3.68449 7.97845C3.52751 8.30165 3.39823 8.62486 3.27818 8.96653L1.54213 9.25279C0.652029 9.40203 0 10.1725 0 11.075V12.925C0 13.8275 0.652029 14.598 1.54213 14.7472L3.27818 15.0335C3.39823 15.3751 3.52751 15.6983 3.68449 16.0215L2.65948 17.4529C2.13693 18.1887 2.22446 19.1971 2.86264 19.8353L4.16468 21.1374L5.2728 22.2455L6.54713 21.3405L7.97845 20.3155C8.30165 20.4725 8.62486 20.6018 8.96653 20.7218L9.25279 22.4579C9.40203 23.348 10.1725 24 11.075 24H12.925C13.8275 24 14.598 23.348 14.7472 22.4579L15.0335 20.7218C15.3751 20.6018 15.6983 20.4725 16.0215 20.3155L17.4529 21.3405C18.1887 21.8631 19.1971 21.7755 19.8353 21.1374L21.1374 19.8353C21.7755 19.1971 21.8631 18.1887 21.3405 17.4529L20.3155 16.0215C20.4725 15.6983 20.6018 15.3751 20.7218 15.0335L22.4579 14.7472C23.348 14.598 24 13.8275 24 12.925V11.075C24 10.1725 23.348 9.40203 22.4579 9.25279L20.7218 8.96653C20.6018 8.62486 20.4725 8.30165 20.3155 7.97845L21.3405 6.54713C21.8631 5.81129 21.7755 4.80285 21.1374 4.16468L19.8353 2.86264C19.1971 2.22446 18.1887 2.13693 17.4529 2.65948L16.0215 3.68449C15.6983 3.52751 15.3751 3.39823 15.0335 3.27818L14.7472 1.54213Z" fill="white"/>
</svg>
