<svg width="20" height="20" viewBox="0 0 20 20" fill="none" xmlns="http://www.w3.org/2000/svg">
<path d="M13.2999 2H7.29999C7.13431 2 7 2.13431 7 2.3V8.3C7 8.46569 7.13431 8.6 7.29999 8.6H13.2999C13.4656 8.6 13.5999 8.46569 13.5999 8.3V2.3C13.5999 2.13431 13.4656 2 13.2999 2Z" stroke="#191B1C" stroke-width="1.25" stroke-linecap="round" stroke-linejoin="round"/>
<path d="M6.80051 13H2.80058C2.69013 13 2.60059 13.0895 2.60059 13.2V17.2C2.60059 17.3105 2.69013 17.4 2.80058 17.4H6.80051C6.91096 17.4 7.0005 17.3105 7.0005 17.2V13.2C7.0005 13.0895 6.91096 13 6.80051 13Z" stroke="#191B1C" stroke-width="1.25" stroke-linecap="round" stroke-linejoin="round"/>
<path d="M17.8005 13H13.8006C13.6901 13 13.6006 13.0895 13.6006 13.2V17.2C13.6006 17.3105 13.6901 17.4 13.8006 17.4H17.8005C17.911 17.4 18.0005 17.3105 18.0005 17.2V13.2C18.0005 13.0895 17.911 13 17.8005 13Z" stroke="#191B1C" stroke-width="1.25" stroke-linecap="round" stroke-linejoin="round"/>
<path d="M10.2998 8.6001V10.8001" stroke="#191B1C" stroke-width="1.25" stroke-linecap="round" stroke-linejoin="round"/>
<path d="M4.80078 12.9998V10.7998H15.8006V12.9998" stroke="#191B1C" stroke-width="1.25" stroke-linecap="round" stroke-linejoin="round"/>
<path d="M9 4.2002H11.8" stroke="#191B1C" stroke-width="1.25" stroke-linecap="round" stroke-linejoin="round"/>
<path d="M9 6.2002H11.8" stroke="#191B1C" stroke-width="1.25" stroke-linecap="round" stroke-linejoin="round"/>
</svg>
