<svg width="20" height="20" viewBox="0 0 20 20" fill="none" xmlns="http://www.w3.org/2000/svg">
<g clip-path="url(#clip0_740_4753)">
<path d="M15.3001 4.7C13.9001 3.29 11.9901 2.5 10.0001 2.5C8.01011 2.5 6.10011 3.29 4.70011 4.7L4.05011 5.34L2.93011 4.22C2.84011 4.14 2.73011 4.08 2.61011 4.05C2.49011 4.03 2.36011 4.04 2.25011 4.09C2.13011 4.14 2.04011 4.22 1.97011 4.32C1.90011 4.42 1.86011 4.54 1.86011 4.67V7.79C1.86011 7.87 1.88011 7.95 1.91011 8.03C1.94011 8.11 1.99011 8.17 2.04011 8.23C2.10011 8.29 2.17011 8.34 2.25011 8.37C2.32011 8.4 2.40011 8.42 2.49011 8.42H5.61011C5.74011 8.42 5.86011 8.38 5.96011 8.31C6.06011 8.24 6.14011 8.14 6.19011 8.03C6.24011 7.92 6.25011 7.79 6.22011 7.67C6.20011 7.55 6.14011 7.44 6.05011 7.35L4.93011 6.23L5.58011 5.58C6.45011 4.71 7.57011 4.11 8.78011 3.87C9.99011 3.63 11.2501 3.75 12.3901 4.23C13.5301 4.7 14.5101 5.5 15.2001 6.53C15.8801 7.56 16.2501 8.76 16.2501 10C16.2501 10.66 16.1501 11.3 15.9501 11.91C15.9801 11.91 16.0201 11.91 16.0601 11.91C16.4601 11.91 16.8501 11.98 17.2001 12.11C17.4001 11.44 17.5001 10.73 17.5001 10.01C17.5001 8.02 16.7101 6.11 15.3001 4.71V4.7ZM12.3901 15.77C11.2501 16.25 9.99011 16.37 8.78011 16.13C7.57011 15.89 6.45011 15.29 5.58011 14.42C5.46011 14.3 5.30011 14.24 5.14011 14.24C4.97011 14.24 4.81011 14.3 4.70011 14.42C4.58011 14.54 4.51011 14.7 4.51011 14.86C4.51011 15.03 4.58011 15.19 4.70011 15.3C6.10011 16.71 8.01011 17.5 10.0001 17.5C11.0701 17.5 12.1201 17.27 13.0801 16.83C12.8801 16.47 12.7501 16.06 12.7101 15.62C12.6101 15.68 12.5001 15.73 12.3901 15.77ZM13.8501 11.71C13.8301 11.63 13.7901 11.56 13.7401 11.49C13.6901 11.43 13.6301 11.37 13.5601 11.33L10.6201 9.64V6.25C10.6201 6.08 10.5601 5.93 10.4401 5.81C10.3201 5.69 10.1701 5.62 10.0001 5.62C9.83011 5.62 9.68011 5.69 9.56011 5.81C9.44011 5.93 9.37011 6.08 9.37011 6.25V10C9.37011 10 9.38011 10.01 9.38011 10.02V10.08C9.38011 10.08 9.38011 10.1 9.39011 10.11V10.15C9.39011 10.15 9.40011 10.15 9.40011 10.17C9.40011 10.19 9.40011 10.19 9.40011 10.21C9.40011 10.21 9.41011 10.21 9.41011 10.23C9.41011 10.25 9.42011 10.25 9.42011 10.26C9.43011 10.27 9.43011 10.28 9.43011 10.28C9.44011 10.28 9.44011 10.3 9.45011 10.31C9.45011 10.32 9.45011 10.33 9.47011 10.34C9.47011 10.34 9.48011 10.34 9.48011 10.36C9.49011 10.37 9.49011 10.38 9.50011 10.39C9.51011 10.4 9.51011 10.4 9.52011 10.41C9.52011 10.42 9.52011 10.43 9.54011 10.43C9.55011 10.44 9.55011 10.45 9.56011 10.45C9.57011 10.46 9.58011 10.47 9.58011 10.48C9.58011 10.48 9.60011 10.49 9.61011 10.49C9.62011 10.5 9.62011 10.51 9.63011 10.51C9.64011 10.52 9.65011 10.53 9.66011 10.53C9.67011 10.53 9.67011 10.53 9.68011 10.53L12.9201 12.41C13.0001 12.45 13.0701 12.47 13.1601 12.48C13.2401 12.5 13.3201 12.49 13.4001 12.47C13.4801 12.45 13.5501 12.41 13.6201 12.36C13.6801 12.31 13.7401 12.25 13.7801 12.18C13.8201 12.11 13.8501 12.03 13.8601 11.95C13.8701 11.87 13.8601 11.78 13.8401 11.7L13.8501 11.71Z" fill="#191B1C"/>
<path d="M16.0598 16.52C16.7498 16.52 17.3098 15.96 17.3098 15.27C17.3098 14.58 16.7498 14.02 16.0598 14.02C15.3698 14.02 14.8098 14.58 14.8098 15.27C14.8098 15.96 15.3698 16.52 16.0598 16.52Z" stroke="#191B1C" stroke-width="1.25" stroke-linecap="round" stroke-linejoin="round"/>
<path d="M16.0598 14.0201V13.0801" stroke="#191B1C" stroke-width="1.25" stroke-linecap="round" stroke-linejoin="round"/>
<path d="M14.9799 14.6502L14.1699 14.1802" stroke="#191B1C" stroke-width="1.25" stroke-linecap="round" stroke-linejoin="round"/>
<path d="M14.9799 15.8999L14.1699 16.3699" stroke="#191B1C" stroke-width="1.25" stroke-linecap="round" stroke-linejoin="round"/>
<path d="M16.0598 16.52V17.46" stroke="#191B1C" stroke-width="1.25" stroke-linecap="round" stroke-linejoin="round"/>
<path d="M17.1499 15.8999L17.9599 16.3699" stroke="#191B1C" stroke-width="1.25" stroke-linecap="round" stroke-linejoin="round"/>
<path d="M17.1499 14.6502L17.9599 14.1802" stroke="#191B1C" stroke-width="1.25" stroke-linecap="round" stroke-linejoin="round"/>
</g>
<defs>
<clipPath id="clip0_740_4753">
<rect width="20" height="20" fill="white"/>
</clipPath>
</defs>
</svg>
