<svg width="21" height="20" viewBox="0 0 21 20" fill="none" xmlns="http://www.w3.org/2000/svg">
<path opacity="0.2" d="M9.87549 4.37549L5.21324 6.12384C5.11055 6.16234 5.01979 6.2272 4.9501 6.31188C4.8804 6.39656 4.83422 6.4981 4.81619 6.60628L3.00049 17.5005L13.8947 15.6848C14.0029 15.6667 14.1044 15.6206 14.1891 15.5509C14.2738 15.4812 14.3386 15.3904 14.3771 15.2877L16.1255 10.6255L9.87549 4.37549ZM9.56253 12.5002C9.2535 12.5002 8.95141 12.4086 8.69445 12.2369C8.4375 12.0652 8.23723 11.8212 8.11897 11.5357C8.00071 11.2502 7.96977 10.936 8.03006 10.6329C8.09035 10.3298 8.23916 10.0514 8.45768 9.83287C8.6762 9.61435 8.95461 9.46553 9.2577 9.40524C9.5608 9.34495 9.87497 9.3759 10.1605 9.49416C10.446 9.61242 10.69 9.81269 10.8617 10.0696C11.0334 10.3266 11.125 10.6287 11.125 10.9377C11.125 11.1429 11.0846 11.3461 11.0061 11.5357C10.9276 11.7252 10.8125 11.8975 10.6674 12.0426C10.5223 12.1877 10.35 12.3028 10.1605 12.3813C9.97091 12.4598 9.76772 12.5002 9.56253 12.5002Z" fill="#191B1C"/>
<path d="M9.5625 12.5C10.4254 12.5 11.125 11.8004 11.125 10.9375C11.125 10.0746 10.4254 9.375 9.5625 9.375C8.69956 9.375 8 10.0746 8 10.9375C8 11.8004 8.69956 12.5 9.5625 12.5Z" stroke="#191B1C" stroke-width="1.25" stroke-linecap="round" stroke-linejoin="round"/>
<path d="M3.00049 17.5004L8.45768 12.0425" stroke="#191B1C" stroke-width="1.25" stroke-linecap="round" stroke-linejoin="round"/>
<path d="M3.00049 17.5005L13.8947 15.6848C14.0029 15.6668 14.1044 15.6206 14.1891 15.5509C14.2738 15.4812 14.3386 15.3904 14.3771 15.2877L16.1255 10.6255L9.87549 4.37549L5.21323 6.12384C5.11054 6.16235 5.01979 6.2272 4.9501 6.31189C4.8804 6.39658 4.83422 6.49811 4.81619 6.60629L3.00049 17.5005Z" stroke="#191B1C" stroke-width="1.25" stroke-linecap="round" stroke-linejoin="round"/>
<path d="M16.1255 10.6254L18.1835 8.56734C18.2416 8.5093 18.2876 8.4404 18.319 8.36457C18.3504 8.28874 18.3666 8.20747 18.3666 8.12539C18.3666 8.04332 18.3504 7.96205 18.319 7.88622C18.2876 7.81039 18.2416 7.74149 18.1835 7.68345L12.8174 2.31734C12.7002 2.20013 12.5412 2.13428 12.3755 2.13428C12.2097 2.13428 12.0508 2.20013 11.9335 2.31734L9.87549 4.37539" stroke="#191B1C" stroke-width="1.25" stroke-linecap="round" stroke-linejoin="round"/>
</svg>
