<svg width="20" height="20" viewBox="0 0 20 20" fill="none" xmlns="http://www.w3.org/2000/svg">
<path d="M4.5 6H15.5L14.6908 16.4162C14.6302 17.1972 13.9787 17.8 13.1953 17.8H6.80466C6.02129 17.8 5.36984 17.1972 5.30917 16.4162L4.5 6Z" stroke="#191B1C" stroke-width="1.25" stroke-linejoin="round"/>
<path d="M7.59961 9V14.4" stroke="#191B1C" stroke-width="1.25" stroke-linecap="round"/>
<path d="M10 9.97205V11.772V13.572" stroke="#191B1C" stroke-width="1.25" stroke-linecap="round"/>
<path d="M12.4004 9V14.4" stroke="#191B1C" stroke-width="1.25" stroke-linecap="round"/>
<path d="M7.5 3.5L7.88604 2.34189C7.95409 2.13772 8.14516 2 8.36038 2H11.6396C11.8548 2 12.0459 2.13772 12.114 2.34189L12.5 3.5" stroke="#191B1C" stroke-width="1.25" stroke-linecap="round" stroke-linejoin="round"/>
<path d="M3 5V4.5C3 4.22386 3.22386 4 3.5 4H16.5C16.7761 4 17 4.22386 17 4.5V5" stroke="#191B1C" stroke-width="1.25" stroke-linecap="round" stroke-linejoin="round"/>
</svg>
