<?xml version="1.0" encoding="utf-8"?>
<!-- Generator: Adobe Illustrator 25.4.8, SVG Export Plug-In . SVG Version: 6.00 Build 0)  -->
<svg version="1.1" id="레이어_1" xmlns="http://www.w3.org/2000/svg" xmlns:xlink="http://www.w3.org/1999/xlink" x="0px"
	 y="0px" viewBox="0 0 146 148" style="enable-background:new 0 0 146 148;" xml:space="preserve">
<style type="text/css">
	.st0{fill:none;stroke:#3C3C3C;stroke-width:6;stroke-linecap:round;stroke-linejoin:round;stroke-miterlimit:10;}
</style>
<path class="st0" d="M63.6,37.2c6.4,0,11.6,5.2,11.6,11.6v34.1c0,6.4-5.2,11.6-11.6,11.6h-2.9c-0.7,0-1.3,0.6-1.3,1.3v9.8
	c0,1.2-1.4,1.8-2.2,0.9L43.4,94.9c-0.2-0.2-0.6-0.4-0.9-0.4H19.7c-6.4,0-11.6-5.2-11.6-11.6V48.8c0-6.4,5.2-11.6,11.6-11.6H63.6z"/>
<line class="st0" x1="24.7" y1="54.6" x2="58.6" y2="54.6"/>
<line class="st0" x1="24.7" y1="65.9" x2="58.6" y2="65.9"/>
<line class="st0" x1="24.7" y1="77.1" x2="46.3" y2="77.1"/>
<path class="st0" d="M79.4,106.9l-3.3,12.4c-0.1,0.4,0.2,0.7,0.6,0.6l12.4-3.3c1.1-0.3,2.1-0.8,2.8-1.6l42.8-42.8c3-3,3-8,0-11l0,0
	c-3-3-8-3-11,0l-42.8,42.8C80.3,104.9,79.7,105.9,79.4,106.9z"/>
<line class="st0" x1="130.6" y1="76.6" x2="119.6" y2="65.6"/>
<line class="st0" x1="134.9" y1="61.3" x2="139.2" y2="57"/>
<line class="st0" x1="141" y1="58.8" x2="137.3" y2="55.1"/>
<path class="st0" d="M107.7,63.2V19.5c0-6.7-5.4-12.1-12.1-12.1H42.8c-6.7,0-12.1,5.4-12.1,12.1v7.6"/>
<path class="st0" d="M30.6,104.5v24.7c0,6.7,5.4,12.1,12.1,12.1h52.8c6.7,0,12.1-5.4,12.1-12.1v-15.4"/>
<line class="st0" x1="72.1" y1="129.5" x2="66.3" y2="129.5"/>
<line class="st0" x1="75.9" y1="19.1" x2="62.3" y2="19.1"/>
</svg>
