<svg width="27" height="34" viewBox="0 0 27 34" fill="none" xmlns="http://www.w3.org/2000/svg">
<g clip-path="url(#clip0_808_4766)">
<rect opacity="0.01" y="2.5" width="24" height="24" fill="white"/>
<g clip-path="url(#clip1_808_4766)">
<g clip-path="url(#clip2_808_4766)">
<path d="M1.97601 23.2999V8.26396L5.1343 4.5H18.9696L22.1279 8.26395V23.2999C22.1279 23.8601 21.5821 24.4999 20.6666 24.4999H3.43733C2.52176 24.4999 1.97601 23.8601 1.97601 23.2999Z" stroke="black" stroke-width="2" stroke-linecap="round" stroke-linejoin="round"/>
<path d="M2.57098 7.89999H21.6366" stroke="black" stroke-width="2" stroke-linecap="round" stroke-linejoin="round"/>
<path d="M16.3665 12.3C16.3665 14.73 14.4347 16.7 12.0517 16.7C9.66877 16.7 7.737 14.73 7.737 12.3" stroke="black" stroke-width="2" stroke-linecap="round" stroke-linejoin="round"/>
</g>
</g>
</g>
<path d="M7.5 32.5H16.5" stroke="black" stroke-width="3" stroke-linecap="round"/>
<path d="M21 11.5C23.7614 11.5 26 9.26142 26 6.5C26 3.73858 23.7614 1.5 21 1.5C18.2386 1.5 16 3.73858 16 6.5C16 9.26142 18.2386 11.5 21 11.5Z" fill="#004CFF" stroke="white" stroke-width="2"/>
<defs>
<clipPath id="clip0_808_4766">
<rect width="24" height="24" fill="white" transform="translate(0 2.5)"/>
</clipPath>
<clipPath id="clip1_808_4766">
<rect width="22.1519" height="21.9999" fill="white" transform="translate(0.976013 3.5)"/>
</clipPath>
<clipPath id="clip2_808_4766">
<rect width="22.1519" height="21.9999" fill="white" transform="translate(0.976013 3.5)"/>
</clipPath>
</defs>
</svg>
