<svg width="27" height="34" viewBox="0 0 27 34" fill="none" xmlns="http://www.w3.org/2000/svg">
<g clip-path="url(#clip0_808_4781)">
<rect opacity="0.01" y="2" width="24" height="24" fill="white"/>
<g clip-path="url(#clip1_808_4781)">
<g clip-path="url(#clip2_808_4781)">
<path d="M1.97601 22.7999V7.76396L5.1343 4H18.9696L22.1279 7.76395V22.7999C22.1279 23.3601 21.5821 23.9999 20.6666 23.9999H3.43733C2.52176 23.9999 1.97601 23.3601 1.97601 22.7999Z" stroke="black" stroke-width="2" stroke-linecap="round" stroke-linejoin="round"/>
<path d="M2.57098 7.39999H21.6366" stroke="black" stroke-width="2" stroke-linecap="round" stroke-linejoin="round"/>
<path d="M16.3665 11.8C16.3665 14.23 14.4347 16.2 12.0517 16.2C9.66877 16.2 7.737 14.23 7.737 11.8" stroke="black" stroke-width="2" stroke-linecap="round" stroke-linejoin="round"/>
</g>
</g>
</g>
<path d="M7.5 32H16.5" stroke="black" stroke-width="3" stroke-linecap="round"/>
<path d="M21 11C23.7614 11 26 8.76142 26 6C26 3.23858 23.7614 1 21 1C18.2386 1 16 3.23858 16 6C16 8.76142 18.2386 11 21 11Z" fill="#E7E8EB" stroke="white" stroke-width="2"/>
<defs>
<clipPath id="clip0_808_4781">
<rect width="24" height="24" fill="white" transform="translate(0 2)"/>
</clipPath>
<clipPath id="clip1_808_4781">
<rect width="22.1519" height="21.9999" fill="white" transform="translate(0.976013 3)"/>
</clipPath>
<clipPath id="clip2_808_4781">
<rect width="22.1519" height="21.9999" fill="white" transform="translate(0.976013 3)"/>
</clipPath>
</defs>
</svg>
