<svg width="20" height="20" viewBox="0 0 20 20" fill="none" xmlns="http://www.w3.org/2000/svg">
<path d="M7.57031 4.42968C7.57031 3.0878 8.65812 2 9.99999 2V2C11.3419 2 12.4297 3.0878 12.4297 4.42968V5.41673C12.4297 6.54894 11.5118 7.46677 10.3796 7.46677H9.62035C8.48815 7.46677 7.57031 6.54894 7.57031 5.41673V4.42968Z" stroke="#191B1C" stroke-width="1.25"/>
<path d="M13.1889 6.26489H6.81103C6.22396 6.26489 5.74805 6.70545 5.74805 7.24891V11.841C5.74805 12.3845 6.22396 12.825 6.81103 12.825H13.1889C13.776 12.825 14.2519 12.3845 14.2519 11.841V7.24891C14.2519 6.70545 13.776 6.26489 13.1889 6.26489Z" fill="#D9D9D9" stroke="#191B1C" stroke-width="1.25" stroke-linecap="round" stroke-linejoin="round"/>
<path d="M9.99921 10.1068C10.536 10.1068 10.9711 9.67171 10.9711 9.13496C10.9711 8.59821 10.536 8.16309 9.99921 8.16309C9.46246 8.16309 9.02734 8.59821 9.02734 9.13496C9.02734 9.67171 9.46246 10.1068 9.99921 10.1068Z" fill="#191B1C"/>
<path d="M9.99805 9.37793V10.5928" stroke="#191B1C" stroke-width="1.25" stroke-linecap="round"/>
<path d="M8.5 17.598L11.5 15.866" stroke="black" stroke-linecap="round"/>
<path d="M8.5 15.866L11.5 17.598" stroke="black" stroke-linecap="round"/>
<path d="M10 15L10 18.4641" stroke="black" stroke-linecap="round"/>
<path d="M2.5 17.598L5.5 15.866" stroke="black" stroke-linecap="round"/>
<path d="M2.5 15.866L5.5 17.598" stroke="black" stroke-linecap="round"/>
<path d="M4 15L4 18.4641" stroke="black" stroke-linecap="round"/>
<path d="M14.5 17.598L17.5 15.866" stroke="black" stroke-linecap="round"/>
<path d="M14.5 15.866L17.5 17.598" stroke="black" stroke-linecap="round"/>
<path d="M16 15L16 18.4641" stroke="black" stroke-linecap="round"/>
</svg>
