<svg width="12" height="12" viewBox="0 0 12 12" fill="none" xmlns="http://www.w3.org/2000/svg">
<path opacity="0.2" d="M5.82129 7.5C7.37459 7.5 8.63379 6.2408 8.63379 4.6875C8.63379 3.1342 7.37459 1.875 5.82129 1.875C4.26799 1.875 3.00879 3.1342 3.00879 4.6875C3.00879 6.2408 4.26799 7.5 5.82129 7.5Z" fill="#191B1C"/>
<path d="M5.82129 7.5C7.37459 7.5 8.63379 6.2408 8.63379 4.6875C8.63379 3.1342 7.37459 1.875 5.82129 1.875C4.26799 1.875 3.00879 3.1342 3.00879 4.6875C3.00879 6.2408 4.26799 7.5 5.82129 7.5Z" stroke="#191B1C" stroke-width="0.75" stroke-miterlimit="10"/>
<path d="M1.7998 9.3749C2.29262 8.78776 2.90802 8.31565 3.60277 7.99175C4.29753 7.66784 5.05478 7.5 5.82133 7.5C6.58787 7.5 7.34512 7.66786 8.03987 7.99177C8.73462 8.31568 9.35002 8.78779 9.84283 9.37493" stroke="#191B1C" stroke-width="0.75" stroke-linecap="round" stroke-linejoin="round"/>
<path d="M8.78027 7.50525C8.78027 7.00535 9.18553 6.6001 9.68543 6.6001V6.6001C10.1853 6.6001 10.5906 7.00535 10.5906 7.50525V7.87297C10.5906 8.29477 10.2487 8.6367 9.82686 8.6367H9.544C9.1222 8.6367 8.78027 8.29477 8.78027 7.87297V7.50525Z" stroke="#191B1C" stroke-width="0.6"/>
<path d="M11.2497 8.00684H8.18969C7.90802 8.00684 7.67969 8.21821 7.67969 8.47895V10.6822C7.67969 10.9429 7.90802 11.1543 8.18969 11.1543H11.2497C11.5314 11.1543 11.7597 10.9429 11.7597 10.6822V8.47895C11.7597 8.21821 11.5314 8.00684 11.2497 8.00684Z" fill="#191B1C"/>
<path d="M9.73924 9.75777C9.97707 9.75777 10.1699 9.56496 10.1699 9.32713C10.1699 9.08929 9.97707 8.89648 9.73924 8.89648C9.5014 8.89648 9.30859 9.08929 9.30859 9.32713C9.30859 9.56496 9.5014 9.75777 9.73924 9.75777Z" fill="white"/>
<path d="M9.73926 9.67969V10.218" stroke="white" stroke-width="0.3" stroke-linecap="round"/>
</svg>
