<svg width="20" height="20" viewBox="0 0 20 20" fill="none" xmlns="http://www.w3.org/2000/svg">
<path fill-rule="evenodd" clip-rule="evenodd" d="M4 4C3.44772 4 3 4.44772 3 5V13V17L6 14H16C16.5523 14 17 13.5523 17 13V5C17 4.44772 16.5523 4 16 4H4Z" fill="white"/>
<path d="M3 17H2.375C2.375 17.2528 2.52728 17.4807 2.76082 17.5774C2.99437 17.6742 3.26319 17.6207 3.44194 17.4419L3 17ZM6 14V13.375C5.83424 13.375 5.67527 13.4408 5.55806 13.5581L6 14ZM3.625 5C3.625 4.79289 3.79289 4.625 4 4.625V3.375C3.10254 3.375 2.375 4.10254 2.375 5H3.625ZM3.625 13V5H2.375V13H3.625ZM3.625 17V13H2.375V17H3.625ZM5.55806 13.5581L2.55806 16.5581L3.44194 17.4419L6.44194 14.4419L5.55806 13.5581ZM16 13.375H6V14.625H16V13.375ZM16.375 13C16.375 13.2071 16.2071 13.375 16 13.375V14.625C16.8975 14.625 17.625 13.8975 17.625 13H16.375ZM16.375 5V13H17.625V5H16.375ZM16 4.625C16.2071 4.625 16.375 4.79289 16.375 5H17.625C17.625 4.10254 16.8975 3.375 16 3.375V4.625ZM4 4.625H16V3.375H4V4.625Z" fill="#191B1C"/>
<path d="M9.45312 10.2188C9.45703 9.24609 9.71875 8.94922 10.1875 8.65625C10.5234 8.4375 10.7852 8.19531 10.7812 7.83594C10.7852 7.44531 10.4805 7.19141 10.1016 7.1875C9.73828 7.19141 9.39844 7.43359 9.38281 7.89062H8.27344C8.29297 6.79297 9.10938 6.26562 10.1094 6.26562C11.1992 6.26562 11.9688 6.83203 11.9688 7.79688C11.9688 8.44141 11.6367 8.84766 11.125 9.15625C10.6836 9.41797 10.4883 9.67188 10.4844 10.2188V10.3047H9.45312V10.2188ZM9.33594 11.4141C9.32812 11.0547 9.625 10.7617 9.99219 10.7656C10.3398 10.7617 10.6406 11.0547 10.6406 11.4141C10.6406 11.7773 10.3398 12.0703 9.99219 12.0703C9.625 12.0703 9.32812 11.7773 9.33594 11.4141Z" fill="#191B1C"/>
</svg>
