<svg width="21" height="20" viewBox="0 0 21 20" fill="none" xmlns="http://www.w3.org/2000/svg">
<path d="M8.9375 11.25H3.625C3.45924 11.25 3.30027 11.1842 3.18306 11.0669C3.06585 10.9497 3 10.7908 3 10.625V5.625C3 5.45924 3.06585 5.30027 3.18306 5.18306C3.30027 5.06585 3.45924 5 3.625 5H8.3125C8.47826 5 8.63723 5.06585 8.75444 5.18306C8.87165 5.30027 8.9375 5.45924 8.9375 5.625V12.5C8.9375 13.3288 8.60826 14.1237 8.02221 14.7097C7.43616 15.2958 6.6413 15.625 5.8125 15.625" stroke="#191B1C" stroke-width="1.25" stroke-linecap="round" stroke-linejoin="round"/>
<path d="M18 11.25H12.6875C12.5217 11.25 12.3628 11.1842 12.2456 11.0669C12.1283 10.9497 12.0625 10.7908 12.0625 10.625V5.625C12.0625 5.45924 12.1283 5.30027 12.2456 5.18306C12.3628 5.06585 12.5217 5 12.6875 5H17.375C17.5408 5 17.6997 5.06585 17.8169 5.18306C17.9342 5.30027 18 5.45924 18 5.625V12.5C18 13.3288 17.6708 14.1237 17.0847 14.7097C16.4987 15.2958 15.7038 15.625 14.875 15.625" stroke="#191B1C" stroke-width="1.25" stroke-linecap="round" stroke-linejoin="round"/>
</svg>
