<?xml version="1.0" encoding="utf-8"?>
<!-- Generator: Adobe Illustrator 25.4.8, SVG Export Plug-In . SVG Version: 6.00 Build 0)  -->
<svg version="1.1" id="레이어_1" xmlns="http://www.w3.org/2000/svg" xmlns:xlink="http://www.w3.org/1999/xlink" x="0px"
	 y="0px" viewBox="0 0 21 23" style="enable-background:new 0 0 21 23;" xml:space="preserve">
<style type="text/css">
	.st0{fill:#FFFFFF;}
</style>
<g>
	<g>
		<path class="st0" d="M19.5,8.5h-6c-0.6,0-1-0.4-1-1s0.4-1,1-1h5v-5c0-0.6,0.4-1,1-1s1,0.4,1,1v6C20.5,8.1,20.1,8.5,19.5,8.5z"/>
	</g>
	<g>
		<path class="st0" d="M1.5,12.5C1.5,12.5,1.5,12.5,1.5,12.5c-0.6,0-1-0.4-1-1c0-1.9,0.6-3.8,1.6-5.4c1.1-1.6,2.5-2.9,4.3-3.7
			c1.8-0.8,3.7-1,5.6-0.8c1.9,0.3,3.7,1.1,5.1,2.4l3,2.7c0.4,0.4,0.4,1,0.1,1.4c-0.4,0.4-1,0.4-1.4,0.1l-3-2.7
			c-1.2-1-2.6-1.7-4.1-1.9c-1.5-0.2-3.1,0-4.5,0.6C5.8,4.8,4.6,5.9,3.8,7.2C2.9,8.5,2.5,10,2.5,11.5C2.5,12.1,2.1,12.5,1.5,12.5z"/>
	</g>
	<g>
		<path class="st0" d="M1.5,22.5c-0.6,0-1-0.4-1-1v-6c0-0.6,0.4-1,1-1h6c0.6,0,1,0.4,1,1s-0.4,1-1,1h-5v5
			C2.5,22.1,2.1,22.5,1.5,22.5z"/>
	</g>
	<g>
		<path class="st0" d="M10.5,21.5c-0.5,0-1,0-1.5-0.1c-1.9-0.3-3.7-1.1-5.1-2.4l-3-2.7c-0.4-0.4-0.4-1-0.1-1.4
			c0.4-0.4,1-0.4,1.4-0.1l3,2.7c1.2,1,2.6,1.7,4.1,1.9c1.5,0.2,3.1,0,4.5-0.6c1.4-0.6,2.6-1.7,3.4-2.9c0.8-1.3,1.3-2.8,1.3-4.3
			c0-0.6,0.4-1,1-1h0c0.6,0,1,0.4,1,1c0,1.9-0.6,3.8-1.6,5.4c-1.1,1.6-2.5,2.9-4.3,3.7C13.3,21.2,11.9,21.5,10.5,21.5z"/>
	</g>
</g>
</svg>
