<?xml version="1.0" encoding="utf-8"?>
<!-- Generator: Adobe Illustrator 25.4.8, SVG Export Plug-In . SVG Version: 6.00 Build 0)  -->
<svg version="1.1" id="레이어_1" xmlns="http://www.w3.org/2000/svg" xmlns:xlink="http://www.w3.org/1999/xlink" x="0px"
	 y="0px" viewBox="0 0 16 15" style="enable-background:new 0 0 16 15;" xml:space="preserve">
<style type="text/css">
	.st0{fill:#191B1C;}
</style>
<g>
	<g>
		<path class="st0" d="M4.6,5.9H0.8c-0.3,0-0.6-0.3-0.6-0.6V1.5c0-0.3,0.3-0.6,0.6-0.6s0.6,0.3,0.6,0.6v3.1h3.1
			c0.3,0,0.6,0.3,0.6,0.6S4.9,5.9,4.6,5.9z"/>
	</g>
	<g>
		<path class="st0" d="M8.3,15c-0.5,0-1,0-1.5-0.1c-1.5-0.3-2.8-1-3.8-2.1c-0.2-0.2-0.2-0.6,0-0.9s0.6-0.2,0.9,0
			c0.9,0.9,2,1.5,3.2,1.7c1.2,0.2,2.5,0.1,3.6-0.4c1.1-0.5,2.1-1.3,2.8-2.3c0.7-1,1.1-2.2,1.1-3.5S14.2,5.1,13.5,4
			c-0.7-1-1.7-1.8-2.8-2.3C9.6,1.3,8.3,1.1,7.1,1.4C5.9,1.6,4.8,2.2,3.9,3.1L1.2,5.7C1,6,0.6,6,0.4,5.7s-0.2-0.6,0-0.9L3,2.2
			c1.1-1.1,2.4-1.8,3.8-2.1c1.5-0.3,3-0.1,4.3,0.4c1.4,0.6,2.5,1.5,3.4,2.8c0.8,1.2,1.3,2.7,1.3,4.2s-0.4,2.9-1.3,4.2
			s-2,2.2-3.4,2.8C10.3,14.8,9.3,15,8.3,15z"/>
	</g>
</g>
</svg>
