<svg width="32" height="32" viewBox="0 0 32 32" fill="none" xmlns="http://www.w3.org/2000/svg">
<path d="M24.5 18L25.94 20.8687C26.0267 21.0409 26.0678 21.2324 26.0592 21.4249C26.0507 21.6174 25.9928 21.8046 25.8912 21.9683C25.7896 22.1321 25.6476 22.267 25.4788 22.3601C25.3101 22.4532 25.1202 22.5013 24.9275 22.5H6.07249C5.87977 22.5013 5.68993 22.4532 5.52118 22.3601C5.35243 22.267 5.21043 22.1321 5.10879 21.9683C5.00715 21.8046 4.94929 21.6174 4.94074 21.4249C4.9322 21.2324 4.97326 21.0409 5.05999 20.8687L6.49999 18M24.5 18V7.875C24.5 7.27826 24.2629 6.70597 23.841 6.28401C23.419 5.86205 22.8467 5.625 22.25 5.625H8.74999C8.15326 5.625 7.58096 5.86205 7.159 6.28401C6.73705 6.70597 6.49999 7.27826 6.49999 7.875V18H24.5ZM24.5 18H6.49999H24.5Z" stroke="white" stroke-width="2" stroke-linecap="round" stroke-linejoin="round"/>
<g clip-path="url(#clip0_21_3366)">
<path d="M12.5 12C13.3951 12 14.2536 12.3556 14.8865 12.9885C15.5194 13.6214 15.875 14.4799 15.875 15.375" stroke="white" stroke-width="2" stroke-linecap="round" stroke-linejoin="round"/>
<path d="M12.5 9.375C14.0913 9.375 15.6174 10.0071 16.7426 11.1324C17.8679 12.2576 18.5 13.7837 18.5 15.375" stroke="white" stroke-width="2" stroke-linecap="round" stroke-linejoin="round"/>
<path d="M12.875 15.375C13.0821 15.375 13.25 15.2071 13.25 15C13.25 14.7929 13.0821 14.625 12.875 14.625C12.6679 14.625 12.5 14.7929 12.5 15C12.5 15.2071 12.6679 15.375 12.875 15.375Z" stroke="white" stroke-width="2" stroke-linecap="round" stroke-linejoin="round"/>
</g>
<defs>
<clipPath id="clip0_21_3366">
<rect width="9" height="9" fill="white" transform="translate(11 7.875)"/>
</clipPath>
</defs>
</svg>
