<svg width="24" height="24" viewBox="0 0 24 24" fill="none" xmlns="http://www.w3.org/2000/svg">
<path d="M3.50208 10.5413C3.26915 10.748 3.18828 11.0773 3.29888 11.3684C3.40947 11.6596 3.68853 11.8521 4 11.8521H5.19737V20C5.19737 20.4142 5.53315 20.75 5.94737 20.75H18.0526C18.4668 20.75 18.8026 20.4142 18.8026 20V11.8521H20C20.3115 11.8521 20.5905 11.6596 20.7011 11.3684C20.8117 11.0773 20.7308 10.748 20.4979 10.5413L12.4979 3.43913C12.2139 3.18696 11.7861 3.18696 11.5021 3.43913L3.50208 10.5413Z" stroke="#0043E1" stroke-width="1.5" stroke-linejoin="round"/>
<circle cx="12" cy="16" r="1" fill="#0043E1"/>
<path d="M16.057 11.8718C15.0229 10.7209 13.5797 10 12.0002 10C10.4206 10 8.97745 10.7209 7.94336 11.8718" stroke="#0043E1" stroke-width="1.5" stroke-linecap="round" stroke-linejoin="round"/>
<path d="M9.56836 14.1256C10.1934 13.43 11.057 13 12.0002 13C12.9434 13 13.807 13.43 14.432 14.1256" stroke="#0043E1" stroke-width="1.5" stroke-linecap="round" stroke-linejoin="round"/>
</svg>
