<?xml version="1.0" encoding="utf-8"?>
<!-- Generator: Adobe Illustrator 27.5.0, SVG Export Plug-In . SVG Version: 6.00 Build 0)  -->
<svg version="1.1" xmlns="http://www.w3.org/2000/svg" xmlns:xlink="http://www.w3.org/1999/xlink" x="0px" y="0px"
	 viewBox="0 0 21 20" style="enable-background:new 0 0 21 20;" xml:space="preserve">
<style type="text/css">
	.st0{fill:none;stroke:#191B1C;stroke-width:1.25;stroke-linecap:round;stroke-linejoin:round;}
</style>
<g id="레이어_1">
	<path class="st0" d="M3.6,13.8V5.6C3.6,5.3,3.8,5,4,4.7c0.2-0.2,0.6-0.4,0.9-0.4h11.2c0.3,0,0.6,0.1,0.9,0.4
		c0.2,0.2,0.4,0.6,0.4,0.9v8.1"/>
	<path class="st0" d="M2.4,13.8h16.2V15c0,0.3-0.1,0.6-0.4,0.9s-0.6,0.4-0.9,0.4H3.6c-0.3,0-0.6-0.1-0.9-0.4
		c-0.2-0.2-0.4-0.6-0.4-0.9V13.8z"/>
	<path class="st0" d="M7.5,7.5h-1"/>
	<path class="st0" d="M14.5,7.5h-5"/>
	<path class="st0" d="M7.5,10.3h-1"/>
	<path class="st0" d="M14.5,10.3h-5"/>
</g>
<g id="transport">
</g>
</svg>
