<svg width="21" height="20" viewBox="0 0 21 20" fill="none" xmlns="http://www.w3.org/2000/svg">
<path opacity="0.2" d="M16.125 4.375H4.875C4.62877 4.375 4.38495 4.4235 4.15747 4.51772C3.92998 4.61195 3.72328 4.75006 3.54917 4.92417C3.37506 5.09828 3.23695 5.30498 3.14272 5.53247C3.0485 5.75995 3 6.00377 3 6.25V15C3 15.2462 3.0485 15.49 3.14272 15.7175C3.23695 15.945 3.37506 16.1517 3.54917 16.3258C3.72328 16.4999 3.92998 16.638 4.15747 16.7323C4.38495 16.8265 4.62877 16.875 4.875 16.875H16.125C16.3712 16.875 16.615 16.8265 16.8425 16.7323C17.07 16.638 17.2767 16.4999 17.4508 16.3258C17.6249 16.1517 17.763 15.945 17.8573 15.7175C17.9515 15.49 18 15.2462 18 15V6.25C18 6.00377 17.9515 5.75995 17.8573 5.53247C17.763 5.30498 17.6249 5.09828 17.4508 4.92417C17.2767 4.75006 17.07 4.61195 16.8425 4.51772C16.615 4.4235 16.3712 4.375 16.125 4.375ZM13.3125 14.375H7.6875C7.2731 14.375 6.87567 14.2104 6.58265 13.9174C6.28962 13.6243 6.125 13.2269 6.125 12.8125C6.125 12.3981 6.28962 12.0007 6.58265 11.7076C6.87567 11.4146 7.2731 11.25 7.6875 11.25H13.3125C13.7269 11.25 14.1243 11.4146 14.4174 11.7076C14.7104 12.0007 14.875 12.3981 14.875 12.8125C14.875 13.2269 14.7104 13.6243 14.4174 13.9174C14.1243 14.2104 13.7269 14.375 13.3125 14.375Z" fill="#191B1C"/>
<path d="M16.125 4.375H4.875C3.83947 4.375 3 5.21447 3 6.25V15C3 16.0355 3.83947 16.875 4.875 16.875H16.125C17.1605 16.875 18 16.0355 18 15V6.25C18 5.21447 17.1605 4.375 16.125 4.375Z" stroke="#191B1C" stroke-width="1.25" stroke-linecap="round" stroke-linejoin="round"/>
<path d="M7.6875 11.25H13.3125C14.1754 11.25 14.875 11.9496 14.875 12.8125V12.8125C14.875 13.6754 14.1754 14.375 13.3125 14.375H7.6875C6.82455 14.375 6.125 13.6754 6.125 12.8125V12.8125C6.125 11.9496 6.82455 11.25 7.6875 11.25Z" stroke="#191B1C" stroke-width="1.25" stroke-linecap="round" stroke-linejoin="round"/>
<path d="M12.0625 11.25V14.375" stroke="#191B1C" stroke-width="1.25" stroke-linecap="round" stroke-linejoin="round"/>
<path d="M8.9375 11.25V14.375" stroke="#191B1C" stroke-width="1.25" stroke-linecap="round" stroke-linejoin="round"/>
<path d="M10.5 4.375V1.25" stroke="#191B1C" stroke-width="1.25" stroke-linecap="round" stroke-linejoin="round"/>
<path d="M7.0625 9.375C7.58027 9.375 8 8.95527 8 8.4375C8 7.91973 7.58027 7.5 7.0625 7.5C6.54473 7.5 6.125 7.91973 6.125 8.4375C6.125 8.95527 6.54473 9.375 7.0625 9.375Z" fill="#191B1C"/>
<path d="M13.9375 9.375C14.4553 9.375 14.875 8.95527 14.875 8.4375C14.875 7.91973 14.4553 7.5 13.9375 7.5C13.4197 7.5 13 7.91973 13 8.4375C13 8.95527 13.4197 9.375 13.9375 9.375Z" fill="#191B1C"/>
</svg>
