<?xml version="1.0" encoding="utf-8"?>
<!-- Generator: Adobe Illustrator 25.4.8, SVG Export Plug-In . SVG Version: 6.00 Build 0)  -->
<svg version="1.1" id="레이어_1" xmlns="http://www.w3.org/2000/svg" xmlns:xlink="http://www.w3.org/1999/xlink" x="0px"
	 y="0px" viewBox="0 0 21 20" style="enable-background:new 0 0 21 20;" xml:space="preserve">
<style type="text/css">
	.st0{fill:none;stroke:#191B1C;stroke-width:1.25;stroke-linecap:round;stroke-linejoin:round;}
	.st1{opacity:0.2;fill:#191B1C;enable-background:new    ;}
</style>
<path class="st0" d="M14.2,17.4c0,0.2-0.1,0.4-0.2,0.6c-0.1,0.1-0.3,0.2-0.5,0.2H2.9c-0.2,0-0.4-0.1-0.5-0.2
	c-0.1-0.2-0.2-0.4-0.2-0.6V3c0-0.2,0.1-0.4,0.2-0.6c0.1-0.1,0.3-0.2,0.5-0.2h7.5"/>
<g>
	<path class="st1" d="M12.5,4.7L8.9,6C8.9,6,8.8,6.1,8.7,6.2C8.7,6.2,8.6,6.3,8.6,6.4l-1.4,8.3l8.4-1.4c0.1,0,0.2,0,0.2-0.1
		c0.1-0.1,0.1-0.1,0.1-0.2l1.4-3.6L12.5,4.7z M12.3,10.9c-0.2,0-0.5-0.1-0.7-0.2c-0.2-0.1-0.4-0.3-0.4-0.5c-0.1-0.2-0.1-0.5-0.1-0.7
		s0.2-0.4,0.3-0.6c0.2-0.2,0.4-0.3,0.6-0.3c0.2,0,0.5,0,0.7,0.1C13,8.7,13.2,8.8,13.3,9c0.1,0.2,0.2,0.4,0.2,0.7
		c0,0.2,0,0.3-0.1,0.5c-0.1,0.1-0.1,0.3-0.3,0.4c-0.1,0.1-0.2,0.2-0.4,0.3C12.6,10.9,12.5,10.9,12.3,10.9z"/>
	<path class="st0" d="M12.3,10.9c0.7,0,1.2-0.5,1.2-1.2c0-0.7-0.5-1.2-1.2-1.2c-0.7,0-1.2,0.5-1.2,1.2
		C11.1,10.4,11.6,10.9,12.3,10.9z"/>
	<path class="st0" d="M7.2,14.7l4.2-4.2"/>
	<path class="st0" d="M7.2,14.7l8.4-1.4c0.1,0,0.2,0,0.2-0.1c0.1-0.1,0.1-0.1,0.1-0.2l1.4-3.6l-4.8-4.8L8.9,6C8.9,6,8.8,6.1,8.7,6.2
		C8.7,6.2,8.6,6.3,8.6,6.4L7.2,14.7z"/>
	<path class="st0" d="M17.4,9.5L19,7.9c0,0,0.1-0.1,0.1-0.2c0-0.1,0-0.1,0-0.2c0-0.1,0-0.1,0-0.2c0-0.1-0.1-0.1-0.1-0.2l-4.2-4.1
		C14.7,3,14.6,3,14.5,3c-0.1,0-0.3,0.1-0.3,0.1l-1.6,1.6"/>
</g>
</svg>
