<?xml version="1.0" encoding="utf-8"?>
<!-- Generator: Adobe Illustrator 25.4.8, SVG Export Plug-In . SVG Version: 6.00 Build 0)  -->
<svg version="1.1" id="레이어_1" xmlns="http://www.w3.org/2000/svg" xmlns:xlink="http://www.w3.org/1999/xlink" x="0px"
	 y="0px" viewBox="0 0 20 20" style="enable-background:new 0 0 20 20;" xml:space="preserve">
<style type="text/css">
	.st0{fill:none;stroke:#000000;stroke-miterlimit:10;}
	.st1{fill:none;stroke:#000000;stroke-linecap:round;stroke-miterlimit:10;}
</style>
<path class="st0" d="M17.4,18.4H2.6c-0.8,0-1.5-0.7-1.5-1.5V3.1c0-0.8,0.7-1.5,1.5-1.5h14.8c0.8,0,1.5,0.7,1.5,1.5V17
	C18.9,17.7,18.2,18.4,17.4,18.4z"/>
<circle class="st1" cx="15.4" cy="15.2" r="1.4"/>
<path class="st0" d="M15.1,8.8H4.9c-0.5,0-1-0.3-1-0.6V2.2c0-0.3,0.5-0.6,1-0.6h10.1c0.5,0,1,0.3,1,0.6v6
	C16.1,8.5,15.6,8.8,15.1,8.8z"/>
</svg>
