<?xml version="1.0" encoding="utf-8"?>
<!-- Generator: Adobe Illustrator 25.4.8, SVG Export Plug-In . SVG Version: 6.00 Build 0)  -->
<svg version="1.1" id="레이어_1" xmlns="http://www.w3.org/2000/svg" xmlns:xlink="http://www.w3.org/1999/xlink" x="0px"
	 y="0px" viewBox="0 0 400 400" style="enable-background:new 0 0 400 400;" xml:space="preserve">
<style type="text/css">
	.st0{fill:#00FFFF;}
</style>
<g>
	<path class="st0" d="M70,11v8H24h-4v4v46h-8V23V11h12H70 M74,7H24H8v16v50h16V23h50V7L74,7z"/>
</g>
<g>
	<path class="st0" d="M390,11v12v46h-8V23v-4h-4h-46v-8h46H390 M394,7h-16h-50v16h50v50h16V23V7L394,7z"/>
</g>
<g>
	<path class="st0" d="M382,331l8,0v46v12l-12,0h-46v-8h46h4v-4V331 M378,327v50h-50v16h50l16,0v-16v-50L378,327L378,327z"/>
</g>
<g>
	<path class="st0" d="M20,331v46v4h4h46v8H24H12v-12v-46H20 M24,327H8v50v16h16h50v-16H24V327L24,327z"/>
</g>
</svg>
