<?xml version="1.0" encoding="utf-8"?>
<!-- Generator: Adobe Illustrator 25.4.8, SVG Export Plug-In . SVG Version: 6.00 Build 0)  -->
<svg version="1.1" id="레이어_1" xmlns="http://www.w3.org/2000/svg" xmlns:xlink="http://www.w3.org/1999/xlink" x="0px"
	 y="0px" viewBox="0 0 24 61" style="enable-background:new 0 0 24 61;" xml:space="preserve">
<style type="text/css">
	.st0{fill:#FFFFFF;}
	.st1{fill:#0B0289;}
	.st2{fill:none;stroke:#0B0289;stroke-width:3;stroke-linecap:round;stroke-linejoin:round;stroke-miterlimit:10;}
	.st3{fill:none;stroke:#0B0289;stroke-width:2;stroke-linecap:round;stroke-linejoin:round;stroke-miterlimit:10;}
</style>
<g>
	<path class="st0" d="M12,59C6.5,59,2,54.5,2,49V13C2,7.5,6.5,3,12,3s10,4.5,10,10v36C22,54.5,17.5,59,12,59z"/>
	<path class="st1" d="M12,4c5,0,9,4,9,9v36c0,5-4,9-9,9c-5,0-9-4-9-9V13C3,8,7,4,12,4 M12,2L12,2C5.9,2,1,6.9,1,13v36
		c0,6.1,4.9,11,11,11h0c6.1,0,11-4.9,11-11V13C23,6.9,18.1,2,12,2L12,2z"/>
</g>
<polyline class="st2" points="7,18 12,13 17,18 "/>
<circle class="st3" cx="12" cy="25" r="1"/>
<circle class="st3" cx="12" cy="31" r="1"/>
<polyline class="st2" points="17.3,43.7 12.3,48.7 7.3,43.7 "/>
<circle class="st3" cx="12" cy="37" r="1"/>
</svg>
