<?xml version="1.0" encoding="utf-8"?>
<!-- Generator: Adobe Illustrator 25.4.8, SVG Export Plug-In . SVG Version: 6.00 Build 0)  -->
<svg version="1.1" id="레이어_1" xmlns="http://www.w3.org/2000/svg" xmlns:xlink="http://www.w3.org/1999/xlink" x="0px"
	 y="0px" viewBox="0 0 13 8" style="enable-background:new 0 0 13 8;" xml:space="preserve">
<path d="M12.5,1.6L6.9,7.2C6.8,7.3,6.8,7.3,6.7,7.3c-0.1,0-0.1,0-0.2,0c-0.1,0-0.1,0-0.2,0c-0.1,0-0.1-0.1-0.2-0.1L0.5,1.6
	C0.4,1.5,0.3,1.3,0.3,1.2c0-0.1,0.1-0.3,0.2-0.4c0.1-0.1,0.2-0.2,0.4-0.2c0.1,0,0.3,0.1,0.4,0.2L6.5,6l5.2-5.2
	c0.1-0.1,0.1-0.1,0.2-0.1c0.1,0,0.1,0,0.2,0s0.1,0,0.2,0c0.1,0,0.1,0.1,0.2,0.1c0.1,0.1,0.1,0.1,0.1,0.2c0,0.1,0,0.1,0,0.2
	c0,0.1,0,0.1,0,0.2C12.6,1.5,12.6,1.5,12.5,1.6z"/>
</svg>
