<svg width="16" height="17" viewBox="0 0 16 17" fill="none" xmlns="http://www.w3.org/2000/svg">
<path d="M7.37988 13.6443C10.8609 13.6231 13.6656 10.7839 13.6443 7.30293C13.6231 3.82192 10.784 1.01722 7.30294 1.03847C3.82192 1.05971 1.01722 3.89886 1.03847 7.37987C1.05972 10.8609 3.89886 13.6656 7.37988 13.6443Z" stroke="#191B1C" stroke-width="1.25" stroke-miterlimit="10"/>
<path d="M14.8401 15.1364L11.9149 12.2111C11.8475 12.1438 11.7243 12.1578 11.6397 12.2425L11.1797 12.7024C11.0951 12.7871 11.081 12.9103 11.1483 12.9776L14.0736 15.9029C14.1409 15.9702 14.2641 15.9561 14.3488 15.8715L14.8087 15.4116C14.8934 15.3269 14.9074 15.2037 14.8401 15.1364Z" stroke="#191B1C" stroke-width="1.25" stroke-linecap="round" stroke-linejoin="round"/>
</svg>
