<?xml version="1.0" encoding="utf-8"?>
<!-- Generator: Adobe Illustrator 25.4.8, SVG Export Plug-In . SVG Version: 6.00 Build 0)  -->
<svg version="1.1" id="레이어_1" xmlns="http://www.w3.org/2000/svg" xmlns:xlink="http://www.w3.org/1999/xlink" x="0px"
	 y="0px" viewBox="0 0 21 20" style="enable-background:new 0 0 21 20;" xml:space="preserve">
<style type="text/css">
	.st0{fill:none;stroke:#005CE8;stroke-width:1.25;stroke-miterlimit:10;}
</style>
<g>
	<path class="st0" d="M4.5,13.2c1.5,0,2.7-1.2,2.7-2.7C7.2,9,6,7.7,4.5,7.7C3,7.7,1.8,9,1.8,10.5C1.8,11.9,3,13.2,4.5,13.2z"/>
	<path class="st0" d="M16.2,7.7c1.5,0,2.7-1.2,2.7-2.7c0-1.5-1.2-2.7-2.7-2.7c-1.5,0-2.7,1.2-2.7,2.7C13.4,6.5,14.7,7.7,16.2,7.7z"
		/>
	<path class="st0" d="M16.2,17.7c1.5,0,2.7-1.2,2.7-2.7c0-1.5-1.2-2.7-2.7-2.7c-1.5,0-2.7,1.2-2.7,2.7
		C13.4,16.5,14.7,17.7,16.2,17.7z"/>
	<line class="st0" x1="7" y1="8.9" x2="13.3" y2="5.8"/>
	<line class="st0" x1="13.3" y1="14.2" x2="7" y2="11"/>
</g>
</svg>
