<svg width="12" height="10" viewBox="0 0 12 10" fill="none" xmlns="http://www.w3.org/2000/svg">
<g id="Group 37017">
<rect id="Rectangle 4781" x="1.2002" y="3.43994" width="9.6" height="4.68" rx="0.78" stroke="#191B1C" stroke-width="0.75"/>
<path id="Rectangle 4782" d="M2.91468 0.439941H9.08611L9.60039 3.43994H2.40039L2.91468 0.439941Z" stroke="#191B1C" stroke-width="0.75" stroke-linejoin="round"/>
<g id="Group 37015">
<path id="Vector 581" d="M1.79883 2.24023H2.55336" stroke="#191B1C" stroke-width="0.75" stroke-linecap="round"/>
<path id="Vector 582" d="M9.44434 2.24023H10.1989" stroke="#191B1C" stroke-width="0.75" stroke-linecap="round"/>
</g>
<ellipse id="Ellipse 274" cx="3.18573" cy="5.30543" rx="0.665222" ry="0.665294" fill="#191B1C"/>
<ellipse id="Ellipse 275" cx="8.81464" cy="5.30543" rx="0.665222" ry="0.665294" fill="#191B1C"/>
<path id="Vector 580" d="M4.2002 6.43994H7.8002" stroke="#191B1C" stroke-width="0.75" stroke-linecap="round"/>
<path id="Ellipse 276" d="M8.22043 3.16979C8.22043 2.54018 7.71003 2.02979 7.08043 2.02979C6.45083 2.02979 5.94043 2.54018 5.94043 3.16979" stroke="#191B1C" stroke-width="0.75"/>
<g id="Group 37016">
<path id="Rectangle 4783" d="M3.90094 8.24023V8.90012C3.90094 9.29776 3.57858 9.62012 3.18094 9.62012V9.62012C2.78329 9.62012 2.46094 9.29776 2.46094 8.90012V8.24023" stroke="#191B1C" stroke-width="0.75"/>
<path id="Rectangle 4784" d="M9.54156 8.24023V8.90012C9.54156 9.29776 9.21921 9.62012 8.82156 9.62012V9.62012C8.42392 9.62012 8.10156 9.29776 8.10156 8.90012V8.24023" stroke="#191B1C" stroke-width="0.75"/>
</g>
</g>
</svg>
