<svg width="21" height="20" viewBox="0 0 21 20" fill="none" xmlns="http://www.w3.org/2000/svg">
<path d="M3 5V11.25" stroke="#191B1C" stroke-width="1.25" stroke-linecap="round" stroke-linejoin="round"/>
<path d="M4.73682 16.8749C5.3614 15.9155 6.21563 15.1272 7.22202 14.5815C8.22841 14.0358 9.35511 13.75 10.4999 13.75C11.6447 13.75 12.7714 14.0358 13.7778 14.5815C14.7842 15.1272 15.6385 15.9155 16.2631 16.8749" stroke="#191B1C" stroke-width="1.25" stroke-linecap="round" stroke-linejoin="round"/>
<path d="M18 5L10.5 7.5L3 5L10.5 2.5L18 5Z" stroke="#191B1C" stroke-width="1.25" stroke-linecap="round" stroke-linejoin="round"/>
<path d="M13.7294 6.42334C14.3019 7.04971 14.6799 7.82904 14.8173 8.66639C14.9547 9.50375 14.8456 10.363 14.5033 11.1395C14.1611 11.9159 13.6004 12.5761 12.8896 13.0396C12.1788 13.5031 11.3486 13.7498 10.5 13.7498C9.65145 13.7498 8.8212 13.5031 8.1104 13.0396C7.3996 12.5761 6.83893 11.9159 6.49667 11.1395C6.15441 10.363 6.04534 9.50375 6.18274 8.66639C6.32015 7.82904 6.6981 7.04971 7.27056 6.42334" stroke="#191B1C" stroke-width="1.25" stroke-linecap="round" stroke-linejoin="round"/>
</svg>
