<?xml version="1.0" encoding="utf-8"?>
<!-- Generator: Adobe Illustrator 25.4.8, SVG Export Plug-In . SVG Version: 6.00 Build 0)  -->
<svg version="1.1" id="레이어_1" xmlns="http://www.w3.org/2000/svg" xmlns:xlink="http://www.w3.org/1999/xlink" x="0px"
	 y="0px" viewBox="0 0 21 20" style="enable-background:new 0 0 21 20;" xml:space="preserve">
<style type="text/css">
	.st0{fill:none;stroke:#191B1C;stroke-width:1.25;stroke-linecap:round;stroke-linejoin:round;}
</style>
<path class="st0" d="M15.6,18.4H5c-0.2,0-0.4-0.1-0.5-0.2c-0.1-0.2-0.2-0.4-0.2-0.6V3.2c0-0.2,0.1-0.4,0.2-0.6
	C4.6,2.5,4.8,2.4,5,2.4h7.5l3.8,4v11.2c0,0.2-0.1,0.4-0.2,0.6C16,18.3,15.8,18.4,15.6,18.4z"/>
<path class="st0" d="M6.3,9.4h6.4"/>
<rect x="6.5" y="4.5" class="st0" width="4" height="2.9"/>
<rect x="6.3" y="13.4" class="st0" width="7.8" height="2.8"/>
<path class="st0" d="M6.3,11.3h8"/>
</svg>
