<svg width="16" height="17" viewBox="0 0 16 17" fill="none" xmlns="http://www.w3.org/2000/svg">
<path d="M4.33498 2.57744C3.26707 3.64535 2.66713 5.09374 2.66713 6.60398L0.531738 6.60398L3.37893 9.45117L6.22612 6.60398L4.09073 6.60398C4.09073 5.4713 4.54068 4.385 5.34161 3.58408C6.14254 2.78315 7.22883 2.33319 8.36152 2.33319L9.07331 2.39013L9.07331 0.952303L8.36152 0.909595C6.85127 0.909595 5.40288 1.50954 4.33498 2.57744Z" fill="white"/>
<path fill-rule="evenodd" clip-rule="evenodd" d="M0.0234375 11.7457C0.0234375 11.2486 0.426381 10.8457 0.923437 10.8457H14.9619C15.459 10.8457 15.8619 11.2486 15.8619 11.7457V15.7853C15.8619 16.2824 15.459 16.6853 14.9619 16.6853H0.923437C0.426381 16.6853 0.0234375 16.2824 0.0234375 15.7853V11.7457ZM1.82344 12.6457V14.8853H14.0619V12.6457H1.82344Z" fill="white"/>
<path fill-rule="evenodd" clip-rule="evenodd" d="M14.9485 0.812216C15.3376 0.812216 15.653 1.19593 15.653 1.66927L15.653 4.56632L15.6548 4.56632L15.6548 9.45117L11.4465 9.45117L11.4465 5.37721C11.4435 5.34484 11.4419 5.31192 11.4419 5.27855L11.4419 1.66927C11.4419 1.19593 11.7573 0.812215 12.1464 0.812215L14.9485 0.812216Z" fill="white"/>
</svg>
