<svg width="22" height="18" viewBox="0 0 22 18" fill="none" xmlns="http://www.w3.org/2000/svg">
<path fill-rule="evenodd" clip-rule="evenodd" d="M19.9219 17.8361L1.06469 2.05722L2.34816 0.523361L21.2053 16.3022L19.9219 17.8361Z" fill="white"/>
<path fill-rule="evenodd" clip-rule="evenodd" d="M17.365 17.0372L14.9834 15.0372H2.96191V4.9422L0.961914 3.2627V16.0372C0.961914 16.5895 1.40963 17.0372 1.96191 17.0372H17.365ZM4.49912 1.00977H19.8755C20.4278 1.00977 20.8755 1.45748 20.8755 2.00977V14.7619L18.8755 13.0824V3.00977H6.88077L4.49912 1.00977Z" fill="white"/>
<path fill-rule="evenodd" clip-rule="evenodd" d="M16.9149 10.2867L15.3096 10.2875L13.0098 8.28711L16.9148 8.28675L16.9149 10.2867Z" fill="white"/>
<path fill-rule="evenodd" clip-rule="evenodd" d="M6.93194 10.2869L5.06948 10.2871L5.06934 8.28711L6.93179 8.28694L6.93194 10.2869Z" fill="white"/>
<path fill-rule="evenodd" clip-rule="evenodd" d="M5.10458 11.6023L13.4856 11.6016L14.9912 13.6016L5.10472 13.6023L5.10458 11.6023Z" fill="white"/>
</svg>
