<svg width="21" height="17" viewBox="0 0 21 17" fill="none" xmlns="http://www.w3.org/2000/svg">
<path fill-rule="evenodd" clip-rule="evenodd" d="M0.354492 1.27344C0.354492 0.721153 0.802207 0.273438 1.35449 0.273438H19.2681C19.8204 0.273438 20.2681 0.721153 20.2681 1.27344V15.3009C20.2681 15.8532 19.8204 16.3009 19.2681 16.3009H1.35449C0.802207 16.3009 0.354492 15.8532 0.354492 15.3009V1.27344ZM2.35449 2.27344V14.3009H18.2681V2.27344H2.35449Z" fill="white"/>
<path fill-rule="evenodd" clip-rule="evenodd" d="M16.3075 9.55L7.92641 9.55078L7.92627 7.55078L16.3073 7.55L16.3075 9.55Z" fill="white"/>
<path fill-rule="evenodd" clip-rule="evenodd" d="M6.32452 9.54865L4.46206 9.54883L4.46191 7.54883L6.32437 7.54865L6.32452 9.54865Z" fill="white"/>
<path fill-rule="evenodd" clip-rule="evenodd" d="M4.49721 10.8641L12.8783 10.8633L12.8784 12.8633L4.49735 12.8641L4.49721 10.8641Z" fill="white"/>
<path fill-rule="evenodd" clip-rule="evenodd" d="M14.4802 10.8654L16.3426 10.8652L16.3428 12.8652L14.4803 12.8654L14.4802 10.8654Z" fill="white"/>
</svg>
