<svg width="17" height="17" viewBox="0 0 17 17" fill="none" xmlns="http://www.w3.org/2000/svg">
<path d="M2.73223 4.50637C3.80013 3.43846 5.24852 2.83852 6.75877 2.83852V0.703125L9.60596 3.55032L6.75877 6.39751L6.75877 4.26212C5.62608 4.26212 4.53979 4.71207 3.73886 5.513C2.93793 6.31393 2.48798 7.40022 2.48798 8.5329L2.54492 9.2447H1.10709L1.06438 8.5329C1.06438 7.02266 1.66432 5.57427 2.73223 4.50637Z" fill="white"/>
<path fill-rule="evenodd" clip-rule="evenodd" d="M11.901 0.195312C11.4039 0.195312 11.001 0.598256 11.001 1.09531L11.001 15.1338C11.001 15.6308 11.4039 16.0338 11.901 16.0338L15.9406 16.0338C16.4377 16.0338 16.8406 15.6308 16.8406 15.1338L16.8406 1.09531C16.8406 0.598256 16.4377 0.195312 15.9406 0.195312L11.901 0.195312ZM12.801 1.99531L15.0406 1.99531L15.0406 14.2338L12.801 14.2338L12.801 1.99531Z" fill="white"/>
<path fill-rule="evenodd" clip-rule="evenodd" d="M0.967001 15.1199C0.967001 15.509 1.35072 15.8244 1.82406 15.8244L4.72111 15.8244V15.8261H9.60596V11.6179L5.532 11.6179C5.49962 11.6148 5.4667 11.6133 5.43333 11.6133L1.82406 11.6133C1.35072 11.6133 0.967 11.9287 0.967 12.3178L0.967001 15.1199Z" fill="white"/>
</svg>
