<?xml version="1.0" encoding="utf-8"?>
<!-- Generator: Adobe Illustrator 25.4.8, SVG Export Plug-In . SVG Version: 6.00 Build 0)  -->
<svg version="1.1" id="레이어_1" xmlns="http://www.w3.org/2000/svg" xmlns:xlink="http://www.w3.org/1999/xlink" x="0px"
	 y="0px" viewBox="0 0 20.6 17.3" style="enable-background:new 0 0 20.6 17.3;" xml:space="preserve">
<style type="text/css">
	.st0{fill:#0042E0;}
</style>
<g>
	<path class="st0" d="M18.3,17.3h-16C1,17.3,0,16.3,0,15V5.2C0,4,1,2.9,2.3,2.9h3.3l1.6-2.4c0.1-0.1,0.2-0.2,0.4-0.2h5.3
		c0.2,0,0.3,0.1,0.4,0.2L15,2.9h3.3c1.3,0,2.3,1,2.3,2.3V15C20.6,16.3,19.5,17.3,18.3,17.3z M2.3,3.9C1.6,3.9,1,4.5,1,5.2V15
		c0,0.7,0.6,1.3,1.3,1.3h16c0.7,0,1.3-0.6,1.3-1.3V5.2c0-0.7-0.6-1.3-1.3-1.3h-3.6c-0.2,0-0.3-0.1-0.4-0.2l-1.6-2.4H7.9L6.2,3.7
		C6.2,3.9,6,3.9,5.8,3.9H2.3z"/>
</g>
<g>
	<path class="st0" d="M10.3,14.1c-2.5,0-4.5-2-4.5-4.5s2-4.5,4.5-4.5s4.5,2,4.5,4.5S12.8,14.1,10.3,14.1z M10.3,6.1
		c-1.9,0-3.5,1.6-3.5,3.5c0,1.9,1.6,3.5,3.5,3.5c1.9,0,3.5-1.6,3.5-3.5C13.8,7.6,12.2,6.1,10.3,6.1z"/>
</g>
</svg>
