<?xml version="1.0" encoding="utf-8"?>
<!-- Generator: Adobe Illustrator 25.4.8, SVG Export Plug-In . SVG Version: 6.00 Build 0)  -->
<svg version="1.1" id="레이어_1" xmlns="http://www.w3.org/2000/svg" xmlns:xlink="http://www.w3.org/1999/xlink" x="0px"
	 y="0px" viewBox="0 0 21 20" style="enable-background:new 0 0 21 20;" xml:space="preserve">
<style type="text/css">
	.st0{opacity:0.2;fill:#191B1C;enable-background:new    ;}
	.st1{fill:none;stroke:#191B1C;stroke-width:1.25;stroke-linecap:round;stroke-linejoin:round;}
	.st2{fill:#191B1C;}
</style>
<g>
	<g>
		<path class="st0" d="M6,14.1c1.7,0,3.1-1.4,3.1-3.1c0-1.7-1.4-3.1-3.1-3.1c-1.7,0-3.1,1.4-3.1,3.1C2.9,12.7,4.3,14.1,6,14.1z"/>
		<path class="st1" d="M6,14.1c1.7,0,3.1-1.4,3.1-3.1c0-1.7-1.4-3.1-3.1-3.1c-1.7,0-3.1,1.4-3.1,3.1C2.9,12.7,4.3,14.1,6,14.1z"/>
		<path class="st1" d="M1.5,16.9c0.4-0.8,1-1.6,1.8-2.1s1.7-0.8,2.7-0.8c0.9,0,1.9,0.3,2.7,0.8c0.8,0.5,1.4,1.2,1.8,2.1"/>
	</g>
	<path class="st2" d="M12.5,6.5v3.4l2.9,1.7c0.1,0,0.1,0.1,0.2,0.2c0,0.1,0.1,0.1,0.1,0.2c0,0.1,0,0.2,0,0.2s0,0.2-0.1,0.2
		s-0.1,0.1-0.2,0.2c-0.1,0-0.1,0.1-0.2,0.1c-0.1,0-0.2,0-0.2,0c-0.1,0-0.2,0-0.2-0.1l-3.2-1.9c0,0,0,0,0,0c0,0,0,0,0,0c0,0,0,0,0,0
		c0,0,0,0,0,0c0,0,0,0,0,0c0,0,0,0,0,0c0,0,0,0,0,0c0,0,0,0,0,0c0,0,0,0,0,0c0,0,0,0,0,0c0,0,0,0,0,0c0,0,0,0,0,0c0,0,0,0,0,0
		c0,0,0,0,0,0c0,0,0,0,0,0c0,0,0,0,0,0c0,0,0,0,0,0c0,0,0,0,0,0c0,0,0,0,0,0c0,0,0,0,0,0c0,0,0,0,0,0c0,0,0,0,0,0V6.5
		c0-0.2,0.1-0.3,0.2-0.4c0.1-0.1,0.3-0.2,0.4-0.2c0.2,0,0.3,0.1,0.4,0.2S12.5,6.3,12.5,6.5z"/>
	<path class="st2" d="M6.9,5.9c0.7-1,0.9-1.1,2-1.7c1.1-0.6,2.3-0.9,3.5-0.8c1.2,0.1,2.4,0.5,3.4,1.3c1,0.8,1.7,1.8,2.1,3
		c0.4,1.2,0.4,2.4,0.1,3.6c-0.3,1.2-1,2.3-1.9,3.1c-0.9,0.8-2.1,1.3-3.3,1.5c-0.2,0-0.3,0.1-0.4,0.2c-0.1,0.1-0.1,0.3-0.1,0.5
		c0,0.2,0.1,0.3,0.2,0.4c0.1,0.1,0.3,0.1,0.5,0.1c2-0.2,3.8-1.3,5-2.8c1.2-1.6,1.8-3.6,1.5-5.5c-0.2-2-1.3-3.8-2.8-5
		C15,2.5,13,2,11,2.2c-2,0.3-3.8,1.3-5,2.8"/>
	<circle class="st2" cx="6.4" cy="5.6" r="0.6"/>
</g>
</svg>
