<svg width="21" height="20" viewBox="0 0 21 20" fill="none" xmlns="http://www.w3.org/2000/svg">
<path opacity="0.2" d="M8.9375 12.5C11.5263 12.5 13.625 10.4013 13.625 7.8125C13.625 5.22367 11.5263 3.125 8.9375 3.125C6.34867 3.125 4.25 5.22367 4.25 7.8125C4.25 10.4013 6.34867 12.5 8.9375 12.5Z" fill="#191B1C"/>
<path d="M8.9375 12.5C11.5263 12.5 13.625 10.4013 13.625 7.8125C13.625 5.22367 11.5263 3.125 8.9375 3.125C6.34867 3.125 4.25 5.22367 4.25 7.8125C4.25 10.4013 6.34867 12.5 8.9375 12.5Z" stroke="#191B1C" stroke-width="1.25" stroke-miterlimit="10"/>
<path d="M2.23511 15.6248C3.05646 14.6463 4.08213 13.8594 5.24005 13.3196C6.39798 12.7797 7.66006 12.5 8.93764 12.5C10.2152 12.5 11.4773 12.7798 12.6352 13.3196C13.7931 13.8595 14.8188 14.6463 15.6402 15.6249" stroke="#191B1C" stroke-width="1.25" stroke-linecap="round" stroke-linejoin="round"/>
<path d="M17.6875 11.875C18.3779 11.875 18.9375 11.3154 18.9375 10.625C18.9375 9.93464 18.3779 9.375 17.6875 9.375C16.9971 9.375 16.4375 9.93464 16.4375 10.625C16.4375 11.3154 16.9971 11.875 17.6875 11.875Z" stroke="#191B1C" stroke-width="1.25" stroke-linecap="round" stroke-linejoin="round"/>
<path d="M17.6875 9.375V8.4375" stroke="#191B1C" stroke-width="1.25" stroke-linecap="round" stroke-linejoin="round"/>
<path d="M16.6051 10L15.7932 9.53125" stroke="#191B1C" stroke-width="1.25" stroke-linecap="round" stroke-linejoin="round"/>
<path d="M16.6051 11.25L15.7932 11.7188" stroke="#191B1C" stroke-width="1.25" stroke-linecap="round" stroke-linejoin="round"/>
<path d="M17.6875 11.875V12.8125" stroke="#191B1C" stroke-width="1.25" stroke-linecap="round" stroke-linejoin="round"/>
<path d="M18.77 11.25L19.5819 11.7188" stroke="#191B1C" stroke-width="1.25" stroke-linecap="round" stroke-linejoin="round"/>
<path d="M18.77 10L19.5819 9.53125" stroke="#191B1C" stroke-width="1.25" stroke-linecap="round" stroke-linejoin="round"/>
</svg>
