<svg width="21" height="20" viewBox="0 0 21 20" fill="none" xmlns="http://www.w3.org/2000/svg">
<path opacity="0.2" d="M10.5 14.0625C12.2259 14.0625 13.625 12.6634 13.625 10.9375C13.625 9.21161 12.2259 7.8125 10.5 7.8125C8.77411 7.8125 7.375 9.21161 7.375 10.9375C7.375 12.6634 8.77411 14.0625 10.5 14.0625Z" fill="#191B1C"/>
<path opacity="0.2" d="M5.1875 9.0625C6.56821 9.0625 7.6875 7.94321 7.6875 6.5625C7.6875 5.18179 6.56821 4.0625 5.1875 4.0625C3.80679 4.0625 2.6875 5.18179 2.6875 6.5625C2.6875 7.94321 3.80679 9.0625 5.1875 9.0625Z" fill="#191B1C"/>
<path opacity="0.2" d="M15.8125 9.0625C17.1932 9.0625 18.3125 7.94321 18.3125 6.5625C18.3125 5.18179 17.1932 4.0625 15.8125 4.0625C14.4318 4.0625 13.3125 5.18179 13.3125 6.5625C13.3125 7.94321 14.4318 9.0625 15.8125 9.0625Z" fill="#191B1C"/>
<path d="M10.5 14.0625C12.2259 14.0625 13.625 12.6634 13.625 10.9375C13.625 9.21161 12.2259 7.8125 10.5 7.8125C8.77411 7.8125 7.375 9.21161 7.375 10.9375C7.375 12.6634 8.77411 14.0625 10.5 14.0625Z" stroke="#191B1C" stroke-width="1.25" stroke-linecap="round" stroke-linejoin="round"/>
<path d="M15.8125 9.0625C16.5403 9.0619 17.2582 9.23102 17.9092 9.55645C18.5602 9.88188 19.1263 10.3546 19.5626 10.9372" stroke="#191B1C" stroke-width="1.25" stroke-linecap="round" stroke-linejoin="round"/>
<path d="M1.43726 10.9373C1.87354 10.3548 2.43968 9.88196 3.09069 9.5565C3.7417 9.23104 4.45964 9.0619 5.18748 9.0625" stroke="#191B1C" stroke-width="1.25" stroke-linecap="round" stroke-linejoin="round"/>
<path d="M6.00269 16.8749C6.41325 16.0317 7.05263 15.3208 7.84785 14.8235C8.64307 14.3262 9.56208 14.0625 10.5 14.0625C11.4379 14.0625 12.3569 14.3262 13.1521 14.8235C13.9474 15.3208 14.5867 16.0316 14.9973 16.8749" stroke="#191B1C" stroke-width="1.25" stroke-linecap="round" stroke-linejoin="round"/>
<path d="M5.18752 9.0625C4.71318 9.06241 4.24865 8.92738 3.84817 8.67316C3.4477 8.41895 3.12781 8.05605 2.92587 7.62684C2.72392 7.19763 2.64825 6.71982 2.7077 6.24921C2.76714 5.77861 2.95924 5.33462 3.26157 4.96911C3.56389 4.60359 3.96397 4.33163 4.41508 4.18498C4.86618 4.03833 5.3497 4.02304 5.80917 4.1409C6.26864 4.25876 6.6851 4.50491 7.00991 4.8506C7.33472 5.19629 7.55449 5.62725 7.64354 6.09316" stroke="#191B1C" stroke-width="1.25" stroke-linecap="round" stroke-linejoin="round"/>
<path d="M13.3564 6.09314C13.4455 5.62715 13.6652 5.19611 13.99 4.85034C14.3149 4.50458 14.7313 4.25837 15.1909 4.14046C15.6504 4.02255 16.134 4.03782 16.5851 4.18447C17.0363 4.33113 17.4365 4.60312 17.7388 4.96868C18.0412 5.33424 18.2333 5.77829 18.2928 6.24896C18.3522 6.71963 18.2765 7.1975 18.0745 7.62675C17.8725 8.05601 17.5526 8.41894 17.152 8.67316C16.7515 8.92738 16.2869 9.06239 15.8125 9.06243" stroke="#191B1C" stroke-width="1.25" stroke-linecap="round" stroke-linejoin="round"/>
</svg>
