<svg width="12" height="12" viewBox="0 0 12 12" fill="none" xmlns="http://www.w3.org/2000/svg">
<path opacity="0.2" d="M5.82129 7.5C7.37459 7.5 8.63379 6.2408 8.63379 4.6875C8.63379 3.1342 7.37459 1.875 5.82129 1.875C4.26799 1.875 3.00879 3.1342 3.00879 4.6875C3.00879 6.2408 4.26799 7.5 5.82129 7.5Z" fill="#191B1C"/>
<path d="M4.67871 10.1299L6.1913 9.2566" stroke="black" stroke-width="0.504194" stroke-linecap="round"/>
<path d="M4.67871 9.25635L6.1913 10.1296" stroke="black" stroke-width="0.504194" stroke-linecap="round"/>
<path d="M5.43555 8.81982L5.43555 10.5664" stroke="black" stroke-width="0.504194" stroke-linecap="round"/>
<path d="M7.22363 10.1294L8.73622 9.25611" stroke="black" stroke-width="0.504194" stroke-linecap="round"/>
<path d="M7.22363 9.25635L8.73622 10.1296" stroke="black" stroke-width="0.504194" stroke-linecap="round"/>
<path d="M7.98047 8.81982L7.98047 10.5664" stroke="black" stroke-width="0.504194" stroke-linecap="round"/>
<path d="M9.76758 10.1299L11.2802 9.2566" stroke="black" stroke-width="0.504194" stroke-linecap="round"/>
<path d="M9.76758 9.25635L11.2802 10.1296" stroke="black" stroke-width="0.504194" stroke-linecap="round"/>
<path d="M10.5244 8.81982L10.5244 10.5664" stroke="black" stroke-width="0.504194" stroke-linecap="round"/>
<path d="M5.82129 7.5C7.37459 7.5 8.63379 6.2408 8.63379 4.6875C8.63379 3.1342 7.37459 1.875 5.82129 1.875C4.26799 1.875 3.00879 3.1342 3.00879 4.6875C3.00879 6.2408 4.26799 7.5 5.82129 7.5Z" stroke="#191B1C" stroke-width="0.75" stroke-miterlimit="10"/>
<path d="M1.7998 9.3749C2.29262 8.78776 2.90802 8.31565 3.60277 7.99175C4.29753 7.66784 5.05478 7.5 5.82133 7.5C6.58787 7.5 7.34512 7.66786 8.03987 7.99177" stroke="#191B1C" stroke-width="0.75" stroke-linecap="round" stroke-linejoin="round"/>
</svg>
