<svg width="20" height="20" viewBox="0 0 20 20" fill="none" xmlns="http://www.w3.org/2000/svg">
<g clip-path="url(#clip0_740_4763)">
<path d="M4.23011 14.3901H3.11011" stroke="black" stroke-width="1.25" stroke-linecap="round" stroke-linejoin="round"/>
<path d="M4.23011 17.1299H3.11011" stroke="black" stroke-width="1.25" stroke-linecap="round" stroke-linejoin="round"/>
<path d="M16.85 14.3901H6.46997" stroke="black" stroke-width="1.25" stroke-linecap="round" stroke-linejoin="round"/>
<path d="M16.85 17.1299H6.46997" stroke="black" stroke-width="1.25" stroke-linecap="round" stroke-linejoin="round"/>
<path opacity="0.2" d="M5.95995 11.3298L15.8599 8.12984C16.7199 7.84984 17.1199 6.86984 16.6899 6.06984C16.3599 5.44984 15.6399 5.15984 14.9699 5.36984L12.0899 6.29984C12.0099 6.32984 11.9299 6.29984 11.8699 6.24984L7.74995 2.11984C7.65995 2.02984 7.53995 1.99984 7.41995 2.03984L6.21994 2.40984C6.02994 2.46984 5.93995 2.67984 6.01995 2.85984L8.17995 7.29984C8.23995 7.41984 8.17995 7.55984 8.04995 7.59984L6.31995 8.19984C6.24995 8.21984 6.17994 8.19984 6.11995 8.15984L4.49995 6.78984C4.34995 6.66984 4.13995 6.63984 3.95995 6.70984L2.80995 7.34984C2.60995 7.42984 2.54995 7.68984 2.67995 7.85984L5.36995 11.1398C5.50995 11.3098 5.73995 11.3798 5.95995 11.3098V11.3298Z" fill="black"/>
<path d="M5.95995 11.3298L15.8599 8.12984C16.7199 7.84984 17.1199 6.86984 16.6899 6.06984C16.3599 5.44984 15.6399 5.15984 14.9699 5.36984L12.0899 6.29984C12.0099 6.32984 11.9299 6.29984 11.8699 6.24984L7.74995 2.11984C7.65995 2.02984 7.53995 1.99984 7.41995 2.03984L6.21994 2.40984C6.02994 2.46984 5.93995 2.67984 6.01995 2.85984L8.17995 7.29984C8.23995 7.41984 8.17995 7.55984 8.04995 7.59984L6.31995 8.19984C6.24995 8.21984 6.17995 8.19984 6.11995 8.15984L4.49995 6.78984C4.34995 6.66984 4.13995 6.63984 3.95995 6.70984L2.80995 7.34984C2.60995 7.42984 2.54995 7.68984 2.67995 7.85984L5.36995 11.1398C5.50995 11.3098 5.73995 11.3798 5.95995 11.3098V11.3298Z" stroke="black" stroke-width="1.25" stroke-linecap="round" stroke-linejoin="round"/>
</g>
<defs>
<clipPath id="clip0_740_4763">
<rect width="20" height="20" fill="white"/>
</clipPath>
</defs>
</svg>
