<svg width="22" height="22" viewBox="0 0 22 22" fill="none" xmlns="http://www.w3.org/2000/svg">
<path d="M9.26795 5.22852C10.0377 3.89518 11.9623 3.89518 12.7321 5.22852L18.7942 15.7285C19.564 17.0618 18.6018 18.7285 17.0622 18.7285H4.93782C3.39822 18.7285 2.43597 17.0618 3.20577 15.7285L9.26795 5.22852Z" fill="#F24115"/>
<path d="M10.1128 8.63791C10.1034 8.46878 10.1081 8.29966 10.1268 8.13053C10.1456 7.9614 10.1879 7.80637 10.2537 7.66543C10.3195 7.53388 10.4134 7.43053 10.5356 7.35536C10.6577 7.2708 10.8128 7.22852 11.0007 7.22852C11.2168 7.22852 11.3859 7.2708 11.5081 7.35536C11.6302 7.43053 11.7242 7.53388 11.7899 7.66543C11.8557 7.80637 11.8933 7.9614 11.9027 8.13053C11.9215 8.29966 11.9262 8.47348 11.9168 8.652L11.5926 14.0017C11.5832 14.1708 11.5268 14.307 11.4235 14.4104C11.3201 14.5137 11.1886 14.5654 11.0289 14.5654C10.7094 14.5654 10.5356 14.3822 10.5074 14.0158L10.1128 8.63791ZM11.057 15.1433C11.3765 15.1433 11.6302 15.2372 11.8181 15.4252C12.006 15.6131 12.1 15.848 12.1 16.1299C12.1 16.4305 12.006 16.6701 11.8181 16.8486C11.6302 17.0272 11.3765 17.1164 11.057 17.1164C10.7376 17.1164 10.4792 17.0272 10.2819 16.8486C10.094 16.6701 10 16.4305 10 16.1299C10 15.848 10.094 15.6131 10.2819 15.4252C10.4792 15.2372 10.7376 15.1433 11.057 15.1433Z" fill="white"/>
</svg>
