<svg width="20" height="20" viewBox="0 0 20 20" fill="none" xmlns="http://www.w3.org/2000/svg">
<path d="M14.4524 2.89607L11.1742 6.17434L11.6161 8.38405L13.8258 8.82599L17.1041 5.54772L17.1044 5.54758C17.5102 6.50542 17.6072 7.56593 17.382 8.58151C17.1568 9.59708 16.6206 10.5172 15.848 11.2137C15.0754 11.9103 14.1049 12.3486 13.0715 12.4677C12.0381 12.5869 10.9932 12.3808 10.0824 11.8783L10.0825 11.8782L5.7008 16.951C5.3491 17.3023 4.87229 17.4996 4.3752 17.4994C3.8781 17.4993 3.40141 17.3017 3.04991 16.9502C2.69841 16.5987 2.50087 16.122 2.50073 15.6249C2.50059 15.1278 2.69785 14.651 3.04915 14.2993L8.12191 9.91767L8.12181 9.91772C7.6193 9.0069 7.41327 7.96207 7.53239 6.92868C7.65151 5.89528 8.08986 4.92473 8.78641 4.15213C9.48296 3.37952 10.4031 2.84331 11.4186 2.61812C12.4342 2.39293 13.4947 2.48998 14.4526 2.89575L14.4524 2.89607Z" stroke="#707070" stroke-width="1.25" stroke-linecap="round" stroke-linejoin="round"/>
</svg>
