<svg width="19" height="17" viewBox="0 0 19 17" fill="none" xmlns="http://www.w3.org/2000/svg">
<path d="M18 2L9.00001 11L4.0001 6.00009" stroke="#6E747C" stroke-width="1.5"/>
<path fill-rule="evenodd" clip-rule="evenodd" d="M16.6667 6.43863V14.3333C16.6667 15.0697 16.0697 15.6667 15.3333 15.6667H2.66667C1.93029 15.6667 1.33333 15.0697 1.33333 14.3333V2.66667C1.33333 1.93029 1.93029 1.33333 2.66667 1.33333H15.3333C15.4506 1.33333 15.5644 1.34848 15.6728 1.37693L16.6834 0.366509C16.2874 0.133586 15.826 0 15.3333 0H2.66667C1.19391 0 0 1.19391 0 2.66667V14.3333C0 15.8061 1.19391 17 2.66667 17H15.3333C16.8061 17 18 15.8061 18 14.3333V5.10555L16.6667 6.43863Z" fill="#6E747C"/>
</svg>
