<svg width="18" height="18" viewBox="0 0 18 18" fill="none" xmlns="http://www.w3.org/2000/svg">
<mask id="mask0_1947_11049" style="mask-type:alpha" maskUnits="userSpaceOnUse" x="0" y="0" width="18" height="18">
<path d="M18 0H0V18H18V0Z" fill="#606060"/>
</mask>
<g mask="url(#mask0_1947_11049)">
<path d="M14.3726 5.06651L12.865 3.50005L11.6336 2.22184C11.4978 2.07998 11.3092 2 11.1115 2H4.61928C3.72588 2 3 2.72437 3 3.61927V14.3807C3 14.7354 3.1162 15.0628 3.30937 15.33C3.60365 15.7344 4.07901 16 4.61928 16H12.9556C13.849 16 14.5749 15.2756 14.5749 14.3807V5.56904C14.5749 5.38191 14.5024 5.20233 14.3726 5.06651Z" fill="#A5A5A5"/>
<path d="M14.373 5.06615L11.6339 2.21998C11.5283 2.11132 11.394 2.03888 11.2461 2.01172V4.25425C11.2461 4.91977 11.7864 5.46003 12.4519 5.46003H14.5646C14.542 5.31365 14.4771 5.17481 14.373 5.06615Z" fill="#D6D6D6"/>
<g opacity="0.5">
<path d="M9.31097 8.64254C9.31097 8.38901 9.14497 8.22301 8.77675 8.22301C8.37985 8.22301 8.14142 8.49012 7.99654 8.82967L6.99902 8.25923C7.31745 7.51524 8.01767 7.0957 8.81901 7.0957C9.62034 7.0957 10.467 7.60125 10.467 8.53992C10.467 9.61591 9.31097 9.94943 9.31097 10.4474H8.155C8.155 9.60233 9.31097 9.27637 9.31097 8.64103V8.64254ZM8.04635 11.6683C8.04635 11.2925 8.35722 10.9817 8.73299 10.9817C9.10876 10.9817 9.41963 11.2925 9.41963 11.6683C9.41963 12.0441 9.10876 12.3549 8.73299 12.3549C8.35722 12.3549 8.04635 12.0441 8.04635 11.6683Z" fill="white"/>
</g>
</g>
</svg>
