<svg width="18" height="18" viewBox="0 0 18 18" fill="none" xmlns="http://www.w3.org/2000/svg">
<path d="M6.60251 2.50011V2.50014L6.60779 2.50008C7.05452 2.49536 7.47441 2.70058 7.75306 3.0554L8.32464 3.81533L8.32913 3.8213L8.3338 3.82713C8.60778 4.1696 9.0235 4.38037 9.47499 4.38037H11.4792C12.5978 4.38037 13.3366 4.67723 13.8044 5.19007C14.2803 5.71174 14.5599 6.54761 14.5568 7.80264V7.80387V10.9832C14.5568 12.1394 14.2024 13.0202 13.6107 13.6112C13.019 14.2022 12.1364 14.5568 10.9765 14.5568H6.07371C4.92101 14.5568 4.0399 14.2026 3.44787 13.6106C2.85587 13.0186 2.5 12.1359 2.5 10.9766V6.07388C2.5 4.7862 2.78742 3.90688 3.27285 3.35304C3.74751 2.81148 4.48352 2.50011 5.57102 2.50011H6.60251Z" fill="#F7DC53" stroke="#C6A812"/>
<path d="M12.4511 13.9813L11.6357 7.6123L14.4564 8.2631L14.9987 9.78086L13.6701 13.3313L12.4511 13.9813Z" fill="#F7DC53"/>
<path d="M5.21289 11.0147L6.43682 8.68282C6.7823 8.0246 7.46434 7.6123 8.20771 7.6123H13.2245C14.5897 7.6123 15.5537 8.94987 15.1218 10.245L14.391 12.4364C13.9899 13.6394 12.8756 14.4603 11.6078 14.4868L7.85814 14.5652" stroke="#C6A812"/>
</svg>
