<svg width="18" height="18" viewBox="0 0 18 18" fill="none" xmlns="http://www.w3.org/2000/svg">
<path d="M6.58248 2.50011V2.50014L6.58776 2.50008C7.03185 2.49539 7.44928 2.69939 7.72631 3.05213L8.29539 3.80874L8.29988 3.81471L8.30454 3.82054C8.57772 4.16202 8.99225 4.37219 9.44247 4.37219H11.438C12.5514 4.37219 13.2862 4.66765 13.7514 5.17765C14.2248 5.6965 14.5031 6.52809 14.5 7.77739V7.77862V10.9441C14.5 12.0948 14.1473 12.9712 13.5587 13.5591C12.97 14.1471 12.0918 14.5 10.9375 14.5H6.05598C4.90876 14.5 4.03208 14.1475 3.44311 13.5585C2.85418 12.9696 2.5 12.0913 2.5 10.9376V6.05615C2.5 4.77435 2.78611 3.89947 3.26895 3.34859C3.74101 2.80999 4.47314 2.50011 5.55549 2.50011H6.58248Z" fill="#F7DC53" stroke="#C6A812"/>
</svg>
