<svg width="18" height="18" viewBox="0 0 18 18" fill="none" xmlns="http://www.w3.org/2000/svg">
<mask id="mask0_1947_11020" style="mask-type:alpha" maskUnits="userSpaceOnUse" x="0" y="0" width="18" height="18">
<path d="M18 0H0V18H18V0Z" fill="#606060"/>
</mask>
<g mask="url(#mask0_1947_11020)">
<path d="M14.3726 5.06651L12.865 3.50005L11.6336 2.22184C11.4978 2.07998 11.3092 2 11.1115 2H4.61928C3.72588 2 3 2.72437 3 3.61927V14.3807C3 14.7354 3.1162 15.0628 3.30937 15.33C3.60364 15.7344 4.07901 16 4.61928 16H12.9556C13.849 16 14.5749 15.2756 14.5749 14.3807V5.56904C14.5749 5.38191 14.5024 5.20233 14.3726 5.06651Z" fill="#00C5CC"/>
<path d="M14.373 5.06615L11.6339 2.21998C11.5283 2.11132 11.394 2.03888 11.2461 2.01172V4.25425C11.2461 4.91977 11.7864 5.46003 12.4519 5.46003H14.5646C14.542 5.31365 14.4771 5.17481 14.373 5.06615Z" fill="#BDE5E5"/>
<g opacity="0.5">
<path d="M12.7507 11.8321L9.91356 8.16797L7.75704 10.7667L6.67803 9.24698L4.87012 11.8321H12.7507Z" fill="white"/>
<path d="M8.11281 8.09467C8.63634 7.97255 8.96174 7.44915 8.83963 6.92562C8.71751 6.4021 8.19411 6.07669 7.67058 6.19881C7.14706 6.32093 6.82165 6.84432 6.94377 7.36785C7.06589 7.89138 7.58928 8.21678 8.11281 8.09467Z" fill="white"/>
</g>
</g>
</svg>
