<svg width="18" height="18" viewBox="0 0 18 18" fill="none" xmlns="http://www.w3.org/2000/svg">
<mask id="mask0_1947_11038" style="mask-type:alpha" maskUnits="userSpaceOnUse" x="0" y="0" width="18" height="18">
<path d="M18 0H0V18H18V0Z" fill="#606060"/>
</mask>
<g mask="url(#mask0_1947_11038)">
<path d="M14.3726 5.06651L12.865 3.50005L11.6336 2.22184C11.4978 2.07998 11.3092 2 11.1115 2H4.61928C3.72588 2 3 2.72437 3 3.61927V14.3807C3 14.7354 3.1162 15.0628 3.30937 15.33C3.60365 15.7344 4.07901 16 4.61928 16H12.9556C13.849 16 14.5749 15.2756 14.5749 14.3807V5.56904C14.5749 5.38191 14.5024 5.20233 14.3726 5.06651Z" fill="#27A3FF"/>
<path d="M14.373 5.06615L11.6339 2.21998C11.5283 2.11132 11.394 2.03888 11.2461 2.01172V4.25425C11.2461 4.91977 11.7864 5.46003 12.4519 5.46003H14.5646C14.542 5.31365 14.4771 5.17481 14.373 5.06615Z" fill="#ADD5F2"/>
<g opacity="0.5">
<path d="M5.75 7H9.75" stroke="white" stroke-width="0.75" stroke-linecap="round"/>
<path d="M5.75 9H9.75" stroke="white" stroke-width="0.75" stroke-linecap="round"/>
<path d="M5.75 11H11.75" stroke="white" stroke-width="0.75" stroke-linecap="round"/>
<path d="M5.75 13H11.75" stroke="white" stroke-width="0.75" stroke-linecap="round"/>
</g>
</g>
</svg>
