<svg width="16" height="20" viewBox="0 0 16 20" fill="none" xmlns="http://www.w3.org/2000/svg">
<path fill-rule="evenodd" clip-rule="evenodd" d="M6.28564 3.3649C3.43449 4.12143 1.33333 6.71988 1.33333 9.80908C1.33333 12.8983 3.43449 15.4967 6.28564 16.2533V17.625C2.69119 16.8402 0 13.6389 0 9.80908C0 5.97925 2.69119 2.77799 6.28564 1.99319V3.3649ZM9.71422 1.99316V3.36487C12.5654 4.12134 14.6667 6.71983 14.6667 9.80908C14.6667 12.8983 12.5654 15.4968 9.71422 16.2533V17.625C13.3087 16.8403 16 13.639 16 9.80908C16 5.9792 13.3087 2.7779 9.71422 1.99316Z" fill="#6E747C"/>
<path d="M2.95504 1.94925L6.18753 1.94925L6.18753 5.18174" stroke="#6E747C" stroke-width="1.33333"/>
<path d="M13.045 17.7168L9.81247 17.7168L9.81247 14.4843" stroke="#6E747C" stroke-width="1.33333"/>
</svg>
