<svg width="18" height="18" viewBox="0 0 18 18" fill="none" xmlns="http://www.w3.org/2000/svg">
<mask id="mask0_1947_11029" style="mask-type:alpha" maskUnits="userSpaceOnUse" x="0" y="0" width="18" height="18">
<path d="M18 0H0V18H18V0Z" fill="#606060"/>
</mask>
<g mask="url(#mask0_1947_11029)">
<path d="M14.3726 5.06651L12.865 3.50005L11.6336 2.22184C11.4978 2.07998 11.3092 2 11.1115 2H4.61928C3.72588 2 3 2.72437 3 3.61927V14.3807C3 14.7354 3.1162 15.0628 3.30937 15.33C3.60364 15.7344 4.07901 16 4.61928 16H12.9556C13.849 16 14.5749 15.2756 14.5749 14.3807V5.56904C14.5749 5.38191 14.5024 5.20233 14.3726 5.06651Z" fill="#E54180"/>
<path d="M14.373 5.06615L11.6339 2.21998C11.5283 2.11132 11.394 2.03888 11.2461 2.01172V4.25425C11.2461 4.91977 11.7864 5.46003 12.4519 5.46003H14.5646C14.542 5.31365 14.4771 5.17481 14.373 5.06615Z" fill="#FF9DAF"/>
<g opacity="0.5">
<path d="M8.65477 6.66895C7.09436 6.66895 5.8252 7.93811 5.8252 9.49852C5.8252 11.0589 7.09436 12.3281 8.65477 12.3281C10.2152 12.3281 11.4844 11.0589 11.4844 9.49852C11.4844 7.93811 10.2152 6.66895 8.65477 6.66895Z" stroke="white" stroke-width="0.75"/>
<path d="M10.1575 9.22354L8.13828 8.00569C7.92549 7.87742 7.65234 8.03135 7.65234 8.28035V10.7176C7.65234 10.9666 7.92398 11.1205 8.13828 10.9922L10.1575 9.77437C10.3642 9.65062 10.3642 9.35031 10.1575 9.22656V9.22354Z" fill="white"/>
</g>
</g>
</svg>
