<?xml version="1.0" encoding="utf-8"?>
<!-- Generator: Adobe Illustrator 25.4.8, SVG Export Plug-In . SVG Version: 6.00 Build 0)  -->
<svg version="1.1" id="레이어_1" xmlns="http://www.w3.org/2000/svg" xmlns:xlink="http://www.w3.org/1999/xlink" x="0px"
	 y="0px" viewBox="0 0 80 80" style="enable-background:new 0 0 80 80;" xml:space="preserve">
<style type="text/css">
	.st0{fill:#C7E4FF;}
	.st1{fill:#78B5FF;}
</style>
<circle class="st0" cx="40" cy="40.2" r="39.5"/>
<path class="st1" d="M40,18.8c-6.1,0-11,4.9-11,11c0,4.7,2.9,8.6,7,10.2c0.3,0.1,0.6,0.2,1,0.3c0.3,0.1,0.6,0.2,1,0.2c0,0,0,0,0.1,0
	c0.3,0.1,0.6,0.1,0.9,0.1c0.3,0,0.7,0.1,1.1,0.1c0.4,0,0.7,0,1.1-0.1c0.3,0,0.6-0.1,0.9-0.1c0,0,0,0,0.1,0c0.3-0.1,0.7-0.1,1-0.2
	c0.3-0.1,0.6-0.2,1-0.3c4.1-1.6,7-5.6,7-10.2C51,23.7,46.1,18.8,40,18.8L40,18.8z M32,40.1c-6.3,0.8-11.2,6.1-11.2,12.7V58
	c0,2,1.6,3.6,3.6,3.6h31.2c2,0,3.6-1.6,3.6-3.6v-5.1c0-6.6-4.9-11.9-11.2-12.7c-2.2,1.7-5,2.8-8,2.8C37,42.9,34.2,41.9,32,40.1
	L32,40.1z M32,40.1"/>
</svg>
