<svg width="18" height="18" viewBox="0 0 18 18" fill="none" xmlns="http://www.w3.org/2000/svg">
<path fill-rule="evenodd" clip-rule="evenodd" d="M14.6919 15.457L14.6919 12.3575L11.1932 12.3575L11.1932 15.457L14.6919 15.457ZM15.6919 17.457C16.2442 17.457 16.6919 17.0093 16.6919 16.457L16.6919 11.3575C16.6919 10.8052 16.2442 10.3575 15.6919 10.3575L10.1932 10.3575C9.64092 10.3575 9.1932 10.8052 9.1932 11.3575L9.1932 16.457C9.1932 17.0093 9.64092 17.457 10.1932 17.457L15.6919 17.457Z" fill="white"/>
<path fill-rule="evenodd" clip-rule="evenodd" d="M17.2197 16.8184C17.2197 17.3706 16.772 17.8184 16.2197 17.8184L1.21973 17.8184C0.667442 17.8184 0.219727 17.3706 0.219727 16.8184L0.219729 1.81836C0.219729 1.26607 0.667445 0.818359 1.21973 0.818359L16.2197 0.818359C16.772 0.818359 17.2197 1.26608 17.2197 1.81836L17.2197 16.8184ZM15.2197 15.8184L15.2197 2.81836L2.21973 2.81836L2.21973 15.8184L15.2197 15.8184Z" fill="white"/>
<path fill-rule="evenodd" clip-rule="evenodd" d="M5.17144 5.87949L5.17144 9.66406L3.47144 9.66406L3.47144 5.02949C3.47144 4.56005 3.852 4.17949 4.32144 4.17949L8.5625 4.17949L8.5625 5.87949L5.17144 5.87949Z" fill="white"/>
<path fill-rule="evenodd" clip-rule="evenodd" d="M5.16962 4.59633L9.33203 8.91613L8.10786 10.0957L3.94544 5.7759L5.16962 4.59633Z" fill="white"/>
</svg>
