<svg width="18" height="18" viewBox="0 0 18 18" fill="none" xmlns="http://www.w3.org/2000/svg">
<path fill-rule="evenodd" clip-rule="evenodd" d="M2.82129 3.11719V6.21675H6.31998V3.11719H2.82129ZM1.82129 1.11719C1.269 1.11719 0.821289 1.5649 0.821289 2.11719V7.21675C0.821289 7.76904 1.269 8.21675 1.82129 8.21675H7.31998C7.87226 8.21675 8.31998 7.76904 8.31998 7.21675V2.11719C8.31998 1.5649 7.87226 1.11719 7.31998 1.11719H1.82129Z" fill="white"/>
<path fill-rule="evenodd" clip-rule="evenodd" d="M0.292969 1.75586C0.292969 1.20357 0.740684 0.755859 1.29297 0.755859H16.293C16.8453 0.755859 17.293 1.20357 17.293 1.75586V16.7559C17.293 17.3081 16.8453 17.7559 16.293 17.7559H1.29297C0.740684 17.7559 0.292969 17.3081 0.292969 16.7559V1.75586ZM2.29297 2.75586V15.7559H15.293V2.75586H2.29297Z" fill="white"/>
<path fill-rule="evenodd" clip-rule="evenodd" d="M12.3413 12.6947V8.91016H14.0413V13.5447C14.0413 14.0142 13.6607 14.3947 13.1913 14.3947H8.9502V12.6947H12.3413Z" fill="white"/>
<path fill-rule="evenodd" clip-rule="evenodd" d="M12.3431 13.9779L8.18066 9.65809L9.40484 8.47852L13.5673 12.7983L12.3431 13.9779Z" fill="white"/>
</svg>
