<?xml version="1.0" encoding="utf-8"?>
<!-- Generator: Adobe Illustrator 25.4.8, SVG Export Plug-In . SVG Version: 6.00 Build 0)  -->
<svg version="1.1" id="레이어_1" xmlns="http://www.w3.org/2000/svg" xmlns:xlink="http://www.w3.org/1999/xlink" x="0px"
	 y="0px" viewBox="0 0 15 27" style="enable-background:new 0 0 15 27;" xml:space="preserve">
<style type="text/css">
	.st0{fill:#ACDBA4;}
</style>
<g>
	<g>
		
			<rect x="4.1" y="11" transform="matrix(1 -2.297524e-03 2.297524e-03 1 -2.722196e-02 1.200746e-02)" class="st0" width="2.2" height="1.7"/>
	</g>
	<g>
		<path class="st0" d="M5.5,5.4l-1.1-1c0.7-0.7,1.6-1.2,2.6-1.2c0,0,0,0,0,0c1,0,1.9,0.4,2.6,1.1l-1.1,1C8.2,4.9,7.7,4.7,7.1,4.7
			C6.5,4.7,5.9,4.9,5.5,5.4z"/>
	</g>
	<g>
		<path class="st0" d="M2.3,26.8c-0.6,0-1.1-0.2-1.5-0.6c-0.4-0.4-0.6-0.9-0.6-1.5l0-15.4c0-0.6,0.2-1.1,0.6-1.5
			c0.4-0.4,0.9-0.6,1.5-0.6l10.4,0l0,0c0,0,0,0,0,0c1.2,0,2.1,1,2.1,2.1l0,15.4c0,0.6-0.2,1.1-0.6,1.5c-0.4,0.4-0.9,0.6-1.5,0.6
			L2.3,26.8C2.3,26.8,2.3,26.8,2.3,26.8z M12.7,8.8l-10.4,0C2.2,8.8,2,8.9,2,8.9c0,0-0.1,0.1-0.1,0.3l0,15.4c0,0.2,0.1,0.3,0.1,0.3
			c0.1,0.1,0.2,0.1,0.3,0.1c0,0,0,0,0,0l10.4,0c0.1,0,0.2,0,0.3-0.1c0,0,0.1-0.1,0.1-0.3l0-15.4C13.1,9,12.9,8.8,12.7,8.8L12.7,8.8z
			"/>
	</g>
	<g>
		
			<rect x="8.5" y="11" transform="matrix(1 -2.297524e-03 2.297524e-03 1 -2.719232e-02 2.218532e-02)" class="st0" width="2.2" height="1.7"/>
	</g>
	<g>
		
			<rect x="4.1" y="14.6" transform="matrix(1 -2.873551e-03 2.873551e-03 1 -4.430208e-02 1.507616e-02)" class="st0" width="2.2" height="1.7"/>
	</g>
	<g>
		
			<rect x="8.5" y="14.6" transform="matrix(1 -2.873551e-03 2.873551e-03 1 -4.423890e-02 2.779450e-02)" class="st0" width="2.2" height="1.7"/>
	</g>
	<g>
		
			<rect x="4.1" y="18.2" transform="matrix(1 -2.873551e-03 2.873551e-03 1 -5.458397e-02 1.511338e-02)" class="st0" width="2.2" height="1.7"/>
	</g>
	<g>
		
			<rect x="8.6" y="18.1" transform="matrix(1 -2.873551e-03 2.873551e-03 1 -5.454323e-02 2.784298e-02)" class="st0" width="2.2" height="1.7"/>
	</g>
	<g>
		<path class="st0" d="M3.5,3.1L2.4,2c2.4-2.4,6.4-2.4,8.9,0l-1,1.1C8.4,1.2,5.4,1.2,3.5,3.1z"/>
	</g>
	<g>
		<path class="st0" d="M11,25.4l-6.9,0c0.2-1.7,1.7-3,3.5-3S10.7,23.7,11,25.4z"/>
	</g>
</g>
</svg>
