<svg width="16" height="16" viewBox="0 0 16 16" fill="none" xmlns="http://www.w3.org/2000/svg">
<path fill-rule="evenodd" clip-rule="evenodd" d="M5.58105 3.79883C5.58105 4.9034 4.68562 5.79883 3.58105 5.79883H0.174376V3.79883L3.58105 3.79883V0.398323H5.58105V3.79883Z" fill="white"/>
<path fill-rule="evenodd" clip-rule="evenodd" d="M10.1084 3.79883C10.1084 4.9034 11.0038 5.79883 12.1084 5.79883H15.456V3.79883L12.1084 3.79883V0.398323H10.1084V3.79883Z" fill="white"/>
<path fill-rule="evenodd" clip-rule="evenodd" d="M5.58105 12.1914C5.58105 11.0868 4.68562 10.1914 3.58105 10.1914H0.174376V12.1914L3.58105 12.1914V15.5919H5.58105V12.1914Z" fill="white"/>
<path fill-rule="evenodd" clip-rule="evenodd" d="M10.1084 12.1914C10.1084 11.0868 11.0038 10.1914 12.1084 10.1914H15.456V12.1914L12.1084 12.1914V15.5919H10.1084V12.1914Z" fill="white"/>
</svg>
