<svg width="21" height="17" viewBox="0 0 21 17" fill="none" xmlns="http://www.w3.org/2000/svg">
<path fill-rule="evenodd" clip-rule="evenodd" d="M10.377 0.917066C10.7235 1.08359 10.9438 1.43396 10.9438 1.81837V15.4766C10.9438 15.861 10.7235 16.2113 10.377 16.3779C10.0306 16.5444 9.61931 16.4976 9.31914 16.2574L4.71513 12.5742H1.16357C0.611289 12.5742 0.163574 12.1265 0.163574 11.5742V5.72071C0.163574 5.16842 0.611289 4.72071 1.16357 4.72071H4.71513L9.31914 1.0375C9.61931 0.797364 10.0306 0.750546 10.377 0.917066ZM8.94384 3.89899L5.69061 6.50158C5.5133 6.64343 5.29298 6.72071 5.06591 6.72071H2.16357V10.5742H5.06591C5.29298 10.5742 5.5133 10.6515 5.69061 10.7933L8.94384 13.3959V3.89899Z" fill="white"/>
<path fill-rule="evenodd" clip-rule="evenodd" d="M13.1343 4.48615C13.5249 4.09568 14.1581 4.09578 14.5485 4.48636C15.6505 5.58863 16.2695 7.08344 16.2695 8.64205C16.2695 10.2007 15.6505 11.6955 14.5485 12.7977C14.1581 13.1883 13.5249 13.1884 13.1343 12.798C12.7437 12.4075 12.7436 11.7743 13.1341 11.3837C13.8611 10.6565 14.2695 9.67034 14.2695 8.64205C14.2695 7.61377 13.8611 6.62758 13.1341 5.90036C12.7436 5.50978 12.7437 4.87661 13.1343 4.48615Z" fill="white"/>
<path fill-rule="evenodd" clip-rule="evenodd" d="M16.4859 2.68536C16.8765 2.2949 17.5096 2.29499 17.9001 2.68558C19.4796 4.26562 20.367 6.40832 20.367 8.6425C20.367 10.8767 19.4796 13.0194 17.9001 14.5994C17.5096 14.99 16.8765 14.9901 16.4859 14.5996C16.0953 14.2092 16.0952 13.576 16.4857 13.1854C17.6903 11.9804 18.367 10.3463 18.367 8.6425C18.367 6.93865 17.6903 5.30456 16.4857 4.09958C16.0952 3.709 16.0953 3.07583 16.4859 2.68536Z" fill="white"/>
</svg>
